<svg id="Layer_1" data-name="Layer 1" xmlns="http://www.w3.org/2000/svg" viewBox="0 0 458.89 118.21"><defs><style>.cls-1,.cls-5{fill:#231f20;}.cls-10,.cls-2{fill:#fff;}.cls-2,.cls-3,.cls-4,.cls-5,.cls-6,.cls-7,.cls-9{stroke:#231f20;stroke-miterlimit:10;}.cls-3,.cls-4,.cls-6,.cls-7,.cls-9{fill:none;}.cls-4{stroke-width:6px;}.cls-6{stroke-width:2px;}.cls-7{stroke-width:0.75px;}.cls-8{fill:#58595b;}.cls-9{stroke-width:0.5px;}</style></defs><path class="cls-1" d="M237.57,27.67H210.48V18.81h64.68v8.86h-27.1v73.05H237.57Z" transform="translate(-13.67 -10.57)"/><path class="cls-1" d="M299.75,18.31h3.75V97.22h43.95v3.5h-47.7Z" transform="translate(-13.67 -10.57)"/><path class="cls-1" d="M355.32,86.11c0-13.36,13.73-19.61,46.7-22.6C402,53,398,43,383.54,43c-9.49,0-18.61,5-23.23,8.49l-2-3c4.25-3.24,14.74-9,25.48-9,15.85,0,22,10.49,22,22.48v38.71h-3.24l-.5-9.24h-.25c-7,5.62-16.48,10.74-25.48,10.74C365.81,102.22,355.32,97.47,355.32,86.11ZM402,87.23V66.75c-32.22,3-42.71,9-42.71,19.23,0,9.24,8.74,12.74,17.23,12.74C384.54,98.72,393,94.85,402,87.23Z" transform="translate(-13.67 -10.57)"/><path class="cls-1" d="M424.12,94h-.25l-.5,6.75h-3.25V10.57h3.75V37.29l-.25,13.23h.25c6.24-6.49,15.23-11,23.22-11,17.11,0,25.47,12,25.47,30.47,0,20.23-13.11,32.22-28,32.22C438.48,102.22,430.24,99,424.12,94Zm44.45-24c0-15.23-6.12-27-21.73-27-6.62,0-15,3.75-23,11.74V89.23c7.49,6.87,15.85,9.49,21,9.49C458.58,98.72,468.57,86.73,468.57,70Z" transform="translate(-13.67 -10.57)"/><path class="cls-1" d="M13.67,16.88H36.9c16.73,0,28.09,5.62,28.09,20C65,45,60.37,52.21,50.63,54.71v.5c12,1.87,19,8.37,19,19.6,0,16.11-12.49,24-30.84,24H13.67ZM35.15,51.34c14,0,19.6-4.5,19.6-13.61,0-8.87-6.49-12.11-19.1-12.11H24V51.34Zm2.12,38.71c14,0,22.1-4.62,22.1-15.74,0-10.11-7.74-14.23-22.1-14.23H24v30Z" transform="translate(-13.67 -10.57)"/><path class="cls-2" d="M181.93,6.23" transform="translate(-13.67 -10.57)"/><path class="cls-3" d="M168.19,106.27l1.69-3.35a1.71,1.71,0,0,0-1.53-2.48H165a1.71,1.71,0,0,0-1.53,2.48l1.69,3.35A1.72,1.72,0,0,0,168.19,106.27Z" transform="translate(-13.67 -10.57)"/><path class="cls-3" d="M200.19,106.06l1.7-3.17a1.67,1.67,0,0,0-1.47-2.45H197a1.66,1.66,0,0,0-1.47,2.45l1.69,3.17A1.67,1.67,0,0,0,200.19,106.06Z" transform="translate(-13.67 -10.57)"/><path class="cls-4" d="M175.87,25.19,153.73,91a7.14,7.14,0,0,0,6.77,9.41h44.27A7.14,7.14,0,0,0,211.54,91L189.4,25.19A7.14,7.14,0,0,0,175.87,25.19Z" transform="translate(-13.67 -10.57)"/><rect class="cls-3" x="165.21" y="13.45" width="7.53" height="51.6"/><polygon class="cls-5" points="148.29 18.97 166.18 64.95 167.94 64.56 148.29 18.97"/><line class="cls-6" x1="145.24" y1="65.05" x2="192.69" y2="65.05"/><line class="cls-7" x1="167.92" y1="35.29" x2="172.61" y2="35.17"/><line class="cls-7" x1="168.25" y1="45.68" x2="172.94" y2="45.56"/><line class="cls-7" x1="167.58" y1="24.69" x2="172.28" y2="24.57"/><line class="cls-7" x1="167.84" y1="56.08" x2="172.53" y2="55.96"/><ellipse class="cls-7" cx="169.31" cy="77.67" rx="10.99" ry="9.96"/><ellipse class="cls-8" cx="169.36" cy="77.72" rx="8.73" ry="7.91"/><path class="cls-1" d="M190.11,88.28c0,.11-11.63-1.9-11.67-1.8s10.1,6.18,10,6.27-7.93-8.8-8-8.75,4.63,11,4.52,11S183.15,83.26,183,83.26,181.19,95,181.09,95s4.62-10.93,4.53-11-8,8.82-8,8.74,10.08-6.16,10-6.26S176,88.39,176,88.28s11.63,1.91,11.67,1.81-10.1-6.19-10-6.27,7.93,8.8,8,8.74-4.63-11-4.52-11,1.82,11.73,1.94,11.73,1.84-11.76,1.94-11.73-4.62,10.93-4.53,11,8-8.81,8-8.73-10.08,6.15-10,6.25S190.11,88.17,190.11,88.28Z" transform="translate(-13.67 -10.57)"/><path class="cls-9" d="M190.11,88.28c0,.11-11.63-1.9-11.67-1.8s10.1,6.18,10,6.27-7.93-8.8-8-8.75,4.63,11,4.52,11S183.15,83.26,183,83.26,181.19,95,181.09,95s4.62-10.93,4.53-11-8,8.82-8,8.74,10.08-6.16,10-6.26S176,88.39,176,88.28s11.63,1.91,11.67,1.81-10.1-6.19-10-6.27,7.93,8.8,8,8.74-4.63-11-4.52-11,1.82,11.73,1.94,11.73,1.84-11.76,1.94-11.73-4.62,10.93-4.53,11,8-8.81,8-8.73-10.08,6.15-10,6.25S190.11,88.17,190.11,88.28Z" transform="translate(-13.67 -10.57)"/><path class="cls-10" d="M181.6,87.32a2.25,2.25,0,0,1,.49,0,1.69,1.69,0,0,1,.54.06.25.25,0,0,1,.16.28.66.66,0,0,1-.48.52h0a.72.72,0,0,1,.58.63.34.34,0,0,1-.18.34,1.68,1.68,0,0,1-.69.08,1.65,1.65,0,0,1-.42,0Zm.12.76.2,0a.53.53,0,0,0,.53-.4c0-.24-.15-.27-.41-.25a1.24,1.24,0,0,0-.23,0A2.89,2.89,0,0,0,181.72,88.08Zm.1,1,.21,0c.26,0,.52,0,.49-.32s-.36-.47-.63-.47h-.17A2.84,2.84,0,0,0,181.82,89Z" transform="translate(-13.67 -10.57)"/><path class="cls-10" d="M183.29,87.29h.27a3,3,0,0,1,.06,1.79,5.23,5.23,0,0,0,.83-.1v.21h-1.16A5.11,5.11,0,0,0,183.29,87.29Z" transform="translate(-13.67 -10.57)"/><path class="cls-1" d="M15.44,119.46H18.2v.47H16.1v7.65h2.1v.47H15.44Z" transform="translate(-13.67 -10.57)"/><path class="cls-1" d="M20.18,120H22c1.33,0,2.24.45,2.24,1.6A1.43,1.43,0,0,1,23.14,123v0a1.54,1.54,0,0,1,1.51,1.57c0,1.28-1,1.91-2.46,1.91h-2Zm1.72,2.76c1.12,0,1.57-.36,1.57-1.09s-.52-1-1.53-1H21v2.06Zm.17,3.09c1.12,0,1.76-.36,1.76-1.25s-.61-1.14-1.76-1.14H21v2.39Z" transform="translate(-13.67 -10.57)"/><path class="cls-1" d="M26.64,121.68h.69l.08,1.15h0a2.56,2.56,0,0,1,2.17-1.27,2,2,0,0,1,.95.2l-.19.71a2.42,2.42,0,0,0-.89-.16,2.28,2.28,0,0,0-2,1.39v2.83h-.83Z" transform="translate(-13.67 -10.57)"/><path class="cls-1" d="M32,125.28c0-1.09,1-1.62,3.53-1.82a1.15,1.15,0,0,0-1.29-1.22,3.39,3.39,0,0,0-1.7.58l-.33-.56a4.26,4.26,0,0,1,2.17-.7,1.8,1.8,0,0,1,2,2v3h-.68l-.08-.66h0a3.27,3.27,0,0,1-1.91.78C32.74,126.65,32,126.14,32,125.28Zm3.53,0V124c-2.08.16-2.71.57-2.71,1.21s.5.76,1.06.76A2.65,2.65,0,0,0,35.52,125.26Z" transform="translate(-13.67 -10.57)"/><path class="cls-1" d="M40.34,122.35H38.09v-.67h3.08v4.85h-.83ZM40,120a.66.66,0,1,1,.66.64A.63.63,0,0,1,40,120Z" transform="translate(-13.67 -10.57)"/><path class="cls-1" d="M44.12,121.68h.68l.07.82h0a2.52,2.52,0,0,1,1.83-.94c1.14,0,1.67.68,1.67,2v3h-.83v-2.9c0-.92-.31-1.35-1.1-1.35-.58,0-1,.29-1.53.87v3.38h-.83Z" transform="translate(-13.67 -10.57)"/><path class="cls-1" d="M53.45,119.44h.74l-3.27,8.69h-.74Z" transform="translate(-13.67 -10.57)"/><path class="cls-1" d="M56.18,120H58c1.33,0,2.24.45,2.24,1.6A1.43,1.43,0,0,1,59.14,123v0a1.54,1.54,0,0,1,1.51,1.57c0,1.28-1,1.91-2.46,1.91h-2Zm1.72,2.76c1.12,0,1.57-.36,1.57-1.09s-.52-1-1.53-1H57v2.06Zm.17,3.09c1.12,0,1.76-.36,1.76-1.25s-.61-1.14-1.76-1.14H57v2.39Z" transform="translate(-13.67 -10.57)"/><path class="cls-1" d="M61.79,124.12a2.4,2.4,0,1,1,2.4,2.53A2.38,2.38,0,0,1,61.79,124.12Zm3.94,0c0-1.12-.61-1.87-1.54-1.87s-1.55.75-1.55,1.87.62,1.84,1.55,1.84S65.73,125.23,65.73,124.12Z" transform="translate(-13.67 -10.57)"/><path class="cls-1" d="M67.79,124.12a2.34,2.34,0,0,1,2.2-2.56,2.09,2.09,0,0,1,1.46.62h0l0-.89v-1.87h.82v7.11h-.67l-.08-.64h0a2.29,2.29,0,0,1-1.58.76C68.63,126.65,67.79,125.74,67.79,124.12Zm3.64,1.12v-2.42a1.8,1.8,0,0,0-1.27-.56,1.66,1.66,0,0,0-1.52,1.85c0,1.15.54,1.84,1.43,1.84A1.82,1.82,0,0,0,71.43,125.24Z" transform="translate(-13.67 -10.57)"/><path class="cls-1" d="M73.86,128.52l.17-.66a1.56,1.56,0,0,0,.44.07,1.41,1.41,0,0,0,1.33-1l.14-.36-2.26-4.86h.84l1.18,2.68c.19.43.4.94.6,1.4h0l.52-1.4,1-2.68h.8l-2.14,5.25a2.17,2.17,0,0,1-2.06,1.69A2,2,0,0,1,73.86,128.52Z" transform="translate(-13.67 -10.57)"/><path class="cls-1" d="M86.33,120h4v.71H87.17v2h2.71v.71H87.17v2.37h3.31v.71H86.33Z" transform="translate(-13.67 -10.57)"/><path class="cls-1" d="M92.12,121.68h.68l.07.82h0a2.52,2.52,0,0,1,1.83-.94c1.14,0,1.67.68,1.67,2v3h-.83v-2.9c0-.92-.31-1.35-1.1-1.35-.58,0-1,.29-1.53.87v3.38h-.83Z" transform="translate(-13.67 -10.57)"/><path class="cls-1" d="M99.25,124.65v-2.3H97.87v-.62l1.41,0,.11-1.56h.69v1.56h2.37v.67h-2.37v2.31c0,.87.29,1.31,1.23,1.31a3.18,3.18,0,0,0,1.15-.22l.18.61a4.23,4.23,0,0,1-1.51.29C99.71,126.65,99.25,125.84,99.25,124.65Z" transform="translate(-13.67 -10.57)"/><path class="cls-1" d="M104.64,121.68h.69l.08,1.15h0a2.56,2.56,0,0,1,2.17-1.27,2,2,0,0,1,1,.2l-.19.71a2.42,2.42,0,0,0-.89-.16,2.28,2.28,0,0,0-2,1.39v2.83h-.83Z" transform="translate(-13.67 -10.57)"/><path class="cls-1" d="M110,125.28c0-1.09,1-1.62,3.53-1.82a1.15,1.15,0,0,0-1.29-1.22,3.39,3.39,0,0,0-1.7.58l-.33-.56a4.26,4.26,0,0,1,2.17-.7,1.8,1.8,0,0,1,2,2v3h-.68l-.08-.66h0a3.27,3.27,0,0,1-1.91.78C110.74,126.65,110,126.14,110,125.28Zm3.53,0V124c-2.08.16-2.71.57-2.71,1.21s.5.76,1.06.76A2.65,2.65,0,0,0,113.52,125.26Z" transform="translate(-13.67 -10.57)"/><path class="cls-1" d="M118.34,122.35h-2.25v-.67h3.08v4.85h-.83ZM118,120a.66.66,0,1,1,.66.64A.63.63,0,0,1,118,120Z" transform="translate(-13.67 -10.57)"/><path class="cls-1" d="M122.12,121.68h.68l.07.82h0a2.52,2.52,0,0,1,1.83-.94c1.14,0,1.67.68,1.67,2v3h-.83v-2.9c0-.92-.31-1.35-1.1-1.35-.58,0-1,.29-1.53.87v3.38h-.83Z" transform="translate(-13.67 -10.57)"/><path class="cls-1" d="M127.77,121.68h.66l.07.64h0a1.21,1.21,0,0,1,1.11-.76c.48,0,.78.28.92.84.28-.52.58-.84,1.13-.84s1.08.53,1.08,1.5v3.47h-.82v-3.41c0-.56-.15-.85-.51-.85s-.52.25-.78.75v3.51h-.76v-3.41c0-.56-.14-.85-.5-.85s-.56.25-.8.75v3.51h-.82Z" transform="translate(-13.67 -10.57)"/><path class="cls-1" d="M133.87,124.1a2.44,2.44,0,0,1,2.48-2.54,2.09,2.09,0,0,1,2.21,2.28,3.37,3.37,0,0,1,0,.5h-4.1v-.64H138l-.2.23c0-1.15-.57-1.72-1.46-1.72a1.71,1.71,0,0,0-1.68,1.89,1.76,1.76,0,0,0,1.9,1.89,2.62,2.62,0,0,0,1.47-.46l.3.54a3.3,3.3,0,0,1-1.87.58A2.45,2.45,0,0,1,133.87,124.1Z" transform="translate(-13.67 -10.57)"/><path class="cls-1" d="M140.12,121.68h.68l.07.82h0a2.52,2.52,0,0,1,1.83-.94c1.14,0,1.67.68,1.67,2v3h-.83v-2.9c0-.92-.31-1.35-1.1-1.35-.58,0-1,.29-1.53.87v3.38h-.83Z" transform="translate(-13.67 -10.57)"/><path class="cls-1" d="M147.25,124.65v-2.3h-1.38v-.62l1.41,0,.11-1.56h.69v1.56h2.37v.67h-2.37v2.31c0,.87.29,1.31,1.23,1.31a3.18,3.18,0,0,0,1.15-.22l.18.61a4.23,4.23,0,0,1-1.51.29C147.71,126.65,147.25,125.84,147.25,124.65Z" transform="translate(-13.67 -10.57)"/><path class="cls-1" d="M159.71,120h1l2.2,6.55H162l-1.12-3.65c-.23-.73-.45-1.45-.65-2.21h0c-.21.76-.42,1.48-.65,2.21l-1.15,3.65h-.86Zm-1,3.89h3v.68h-3Z" transform="translate(-13.67 -10.57)"/><path class="cls-1" d="M165.25,124.65v-2.3h-1.38v-.62l1.41,0,.11-1.56h.69v1.56h2.37v.67h-2.37v2.31c0,.87.29,1.31,1.22,1.31a3.2,3.2,0,0,0,1.16-.22l.18.61a4.24,4.24,0,0,1-1.52.29C165.71,126.65,165.25,125.84,165.25,124.65Z" transform="translate(-13.67 -10.57)"/><path class="cls-1" d="M171.25,124.65v-2.3h-1.38v-.62l1.41,0,.11-1.56h.69v1.56h2.37v.67h-2.37v2.31c0,.87.29,1.31,1.22,1.31a3.2,3.2,0,0,0,1.16-.22l.18.61a4.24,4.24,0,0,1-1.52.29C171.71,126.65,171.25,125.84,171.25,124.65Z" transform="translate(-13.67 -10.57)"/><path class="cls-1" d="M175.87,124.1a2.44,2.44,0,0,1,2.48-2.54,2.09,2.09,0,0,1,2.21,2.28,3.37,3.37,0,0,1,0,.5h-4.1v-.64H180l-.2.23c0-1.15-.58-1.72-1.46-1.72a1.71,1.71,0,0,0-1.68,1.89,1.75,1.75,0,0,0,1.89,1.89,2.65,2.65,0,0,0,1.48-.46l.3.54a3.32,3.32,0,0,1-1.87.58A2.45,2.45,0,0,1,175.87,124.1Z" transform="translate(-13.67 -10.57)"/><path class="cls-1" d="M182.12,121.68h.68l.07.82h0a2.52,2.52,0,0,1,1.83-.94c1.14,0,1.67.68,1.67,2v3h-.83v-2.9c0-.92-.32-1.35-1.1-1.35-.58,0-1,.29-1.53.87v3.38h-.83Z" transform="translate(-13.67 -10.57)"/><path class="cls-1" d="M189.25,124.65v-2.3h-1.38v-.62l1.41,0,.11-1.56h.69v1.56h2.37v.67h-2.37v2.31c0,.87.29,1.31,1.22,1.31a3.2,3.2,0,0,0,1.16-.22l.18.61a4.24,4.24,0,0,1-1.52.29C189.71,126.65,189.25,125.84,189.25,124.65Z" transform="translate(-13.67 -10.57)"/><path class="cls-1" d="M196.34,122.35h-2.25v-.67h3.07v4.85h-.82ZM196,120a.62.62,0,0,1,.65-.64.64.64,0,1,1,0,1.28A.62.62,0,0,1,196,120Z" transform="translate(-13.67 -10.57)"/><path class="cls-1" d="M199.79,124.12a2.4,2.4,0,1,1,2.4,2.53A2.38,2.38,0,0,1,199.79,124.12Zm4,0c0-1.12-.62-1.87-1.55-1.87s-1.55.75-1.55,1.87.62,1.84,1.55,1.84S203.74,125.23,203.74,124.12Z" transform="translate(-13.67 -10.57)"/><path class="cls-1" d="M206.12,121.68h.68l.07.82h0a2.52,2.52,0,0,1,1.83-.94c1.14,0,1.67.68,1.67,2v3h-.83v-2.9c0-.92-.31-1.35-1.1-1.35-.58,0-1,.29-1.53.87v3.38h-.83Z" transform="translate(-13.67 -10.57)"/><path class="cls-1" d="M217.61,124.84c0-1.89,2.83-2.26,2.83-3.67,0-.38-.16-.72-.6-.72s-.73.41-.73,1c0,1.23,1.31,2.86,2.52,3.79A4.31,4.31,0,0,0,223,126l-.23.69a4.75,4.75,0,0,1-1.58-.91c-1.4-1.11-2.75-3-2.75-4.32a1.45,1.45,0,0,1,1.44-1.56,1.2,1.2,0,0,1,1.28,1.3c0,1.63-2.7,2.16-2.7,3.63a1.19,1.19,0,0,0,1.26,1.2,1.87,1.87,0,0,0,1.37-.76,5.41,5.41,0,0,0,1.08-2.23h.76a7.09,7.09,0,0,1-1.26,2.62,2.61,2.61,0,0,1-2.05,1A1.81,1.81,0,0,1,217.61,124.84Z" transform="translate(-13.67 -10.57)"/><path class="cls-1" d="M231.77,120.69H229.6V120h5.17v.71h-2.16v5.84h-.84Z" transform="translate(-13.67 -10.57)"/><path class="cls-1" d="M238.34,122.35h-2.25v-.67h3.07v4.85h-.82ZM238,120a.66.66,0,1,1,.66.64A.63.63,0,0,1,238,120Z" transform="translate(-13.67 -10.57)"/><path class="cls-1" d="M241.77,121.68h.66l.07.64h0a1.21,1.21,0,0,1,1.11-.76c.48,0,.78.28.92.84.28-.52.57-.84,1.13-.84s1.08.53,1.08,1.5v3.47H246v-3.41c0-.56-.16-.85-.53-.85s-.51.25-.77.75v3.51h-.76v-3.41c0-.56-.14-.85-.5-.85s-.56.25-.8.75v3.51h-.82Z" transform="translate(-13.67 -10.57)"/><path class="cls-1" d="M250.34,122.35h-2.25v-.67h3.07v4.85h-.82ZM250,120a.66.66,0,1,1,.66.64A.63.63,0,0,1,250,120Z" transform="translate(-13.67 -10.57)"/><path class="cls-1" d="M254.12,121.68h.68l.07.82h0a2.52,2.52,0,0,1,1.83-.94c1.14,0,1.67.68,1.67,2v3h-.83v-2.9c0-.92-.31-1.35-1.1-1.35-.58,0-1,.29-1.53.87v3.38h-.83Z" transform="translate(-13.67 -10.57)"/><path class="cls-1" d="M259.91,127.42a1.35,1.35,0,0,1,.8-1.08v0a.88.88,0,0,1-.5-.79,1.18,1.18,0,0,1,.58-.91v0a1.55,1.55,0,0,1-.6-1.26,1.78,1.78,0,0,1,1.91-1.74,2,2,0,0,1,.72.12h2v.67h-1.25a1.46,1.46,0,0,1,.4,1A1.7,1.7,0,0,1,262.1,125a2.1,2.1,0,0,1-.82-.18.67.67,0,0,0-.38.56c0,.37.37.55,1,.55H263c1.25,0,1.85.32,1.85,1.14s-1,1.7-2.69,1.7C260.73,128.77,259.91,128.28,259.91,127.42Zm4.13-.22c0-.46-.38-.59-1.11-.59H262a2.75,2.75,0,0,1-.74-.08c-.46.25-.62.53-.62.81,0,.51.55.83,1.59.83S264,127.7,264,127.2Zm-.83-3.9a1.09,1.09,0,0,0-1.11-1.14,1.15,1.15,0,0,0,0,2.29A1.09,1.09,0,0,0,263.21,123.3Z" transform="translate(-13.67 -10.57)"/><path class="cls-1" d="M266.17,127.58h2.11v-7.65h-2.11v-.47h2.77v8.59h-2.77Z" transform="translate(-13.67 -10.57)"/><path class="cls-1" d="M85.22,16.88h50.7v8.86H95.71v25.6h34v8.87h-34V89.92h41.46v8.87H85.22Z" transform="translate(-13.67 -10.57)"/><path class="cls-1" d="M321,119.46h2.77v.47h-2.11v7.65h2.11v.47H321Z" transform="translate(-13.67 -10.57)"/><path class="cls-1" d="M325.21,124c0-2.55,1.29-3.85,2.94-3.85,1.38,0,2,1,2,2.38v3h-.5l-.07-.57h0a1.82,1.82,0,0,1-1.32.69,1.25,1.25,0,0,1-1.29-1.3c0-1,.94-1.5,2.64-1.71v-.14c0-1-.44-1.76-1.49-1.76s-2.27,1.12-2.27,3.33,1,3.35,2.31,3.35a2.2,2.2,0,0,0,1.41-.45l.28.45a2.86,2.86,0,0,1-1.71.55C326.55,128,325.21,126.6,325.21,124Zm4.32.4v-1.26c-1.37.2-1.91.54-1.91,1.15a.71.71,0,0,0,.8.74A1.57,1.57,0,0,0,329.53,124.44Z" transform="translate(-13.67 -10.57)"/><path class="cls-1" d="M337.44,120h1l.92,2.8.32,1.06h0l.31-1.06L341,120h1v6.55h-.8v-3.27c0-.64.1-1.76.14-2.32h0l-.37,1.28L340,124.8h-.6l-.92-2.58-.38-1.28h0c.06.56.14,1.68.14,2.32v3.27h-.78Z" transform="translate(-13.67 -10.57)"/><path class="cls-1" d="M343.52,124.12a2.52,2.52,0,0,1,2.71-2.56,2.47,2.47,0,0,1,1.77.71l-.41.53a2,2,0,0,0-1.33-.55,1.78,1.78,0,0,0-1.89,1.87,1.76,1.76,0,0,0,1.87,1.84,2.3,2.3,0,0,0,1.5-.6l.37.53a2.89,2.89,0,0,1-1.93.76A2.45,2.45,0,0,1,343.52,124.12Z" transform="translate(-13.67 -10.57)"/><path class="cls-1" d="M349.44,120h1l.92,2.8.32,1.06h0l.31-1.06L353,120h1v6.55h-.8v-3.27c0-.64.1-1.76.14-2.32h0l-.37,1.28L352,124.8h-.6l-.92-2.58-.38-1.28h0c.06.56.14,1.68.14,2.32v3.27h-.78Z" transform="translate(-13.67 -10.57)"/><path class="cls-1" d="M355.52,125.28c0-1.09,1-1.62,3.53-1.82a1.15,1.15,0,0,0-1.29-1.22,3.39,3.39,0,0,0-1.7.58l-.33-.56a4.26,4.26,0,0,1,2.17-.7,1.81,1.81,0,0,1,2,2v3h-.69l-.07-.66h0a3.27,3.27,0,0,1-1.91.78C356.27,126.65,355.52,126.14,355.52,125.28Zm3.53,0V124c-2.08.16-2.71.57-2.71,1.21s.5.76,1.06.76A2.65,2.65,0,0,0,359.05,125.26Z" transform="translate(-13.67 -10.57)"/><path class="cls-1" d="M361.43,125.89l.38-.55a3.47,3.47,0,0,0,2.11.66c.82,0,1.22-.34,1.22-.74s-.19-.63-1.51-.9-1.9-.69-1.9-1.42.69-1.38,2-1.38a3.65,3.65,0,0,1,2,.62l-.4.53a2.87,2.87,0,0,0-1.63-.51c-.82,0-1.12.33-1.12.7s.42.6,1.42.81c1.61.35,2,.75,2,1.5s-.77,1.44-2.16,1.44A4.27,4.27,0,0,1,361.43,125.89Z" transform="translate(-13.67 -10.57)"/><path class="cls-1" d="M368.78,124.65v-2.3H367.4v-.62l1.41,0,.11-1.56h.69v1.56H372v.67h-2.38v2.31c0,.87.29,1.31,1.23,1.31a3.2,3.2,0,0,0,1.16-.22l.18.61a4.24,4.24,0,0,1-1.52.29C369.24,126.65,368.78,125.84,368.78,124.65Z" transform="translate(-13.67 -10.57)"/><path class="cls-1" d="M373.4,124.1a2.44,2.44,0,0,1,2.48-2.54,2.09,2.09,0,0,1,2.22,2.28,3.37,3.37,0,0,1,0,.5H374v-.64h3.62l-.21.23c0-1.15-.57-1.72-1.46-1.72a1.71,1.71,0,0,0-1.68,1.89,1.76,1.76,0,0,0,1.9,1.89,2.65,2.65,0,0,0,1.48-.46l.3.54a3.33,3.33,0,0,1-1.88.58A2.45,2.45,0,0,1,373.4,124.1Z" transform="translate(-13.67 -10.57)"/><path class="cls-1" d="M380.17,121.68h.69l.08,1.15h0a2.56,2.56,0,0,1,2.17-1.27,2,2,0,0,1,1,.2l-.19.71a2.44,2.44,0,0,0-.9-.16,2.28,2.28,0,0,0-2,1.39v2.83h-.83Z" transform="translate(-13.67 -10.57)"/><path class="cls-1" d="M391.51,124.06V120h.85v4.1c0,1.35.59,1.83,1.37,1.83s1.39-.48,1.39-1.83V120h.81v4.08c0,1.87-.92,2.59-2.2,2.59S391.51,125.93,391.51,124.06Z" transform="translate(-13.67 -10.57)"/><path class="cls-1" d="M397.65,121.68h.68l.07.82h0a2.52,2.52,0,0,1,1.83-.94c1.15,0,1.68.68,1.68,2v3h-.83v-2.9c0-.92-.32-1.35-1.11-1.35-.58,0-1,.29-1.53.87v3.38h-.83Z" transform="translate(-13.67 -10.57)"/><path class="cls-1" d="M405.87,122.35h-2.25v-.67h3.08v4.85h-.83Zm-.33-2.33a.66.66,0,1,1,.66.64A.63.63,0,0,1,405.54,120Z" transform="translate(-13.67 -10.57)"/><path class="cls-1" d="M409.22,121.68h.85l1.12,2.75c.19.49.37,1,.54,1.43h0c.17-.46.33-.94.53-1.43l1.12-2.75h.8l-2,4.85h-.93Z" transform="translate(-13.67 -10.57)"/><path class="cls-1" d="M415.4,124.1a2.44,2.44,0,0,1,2.48-2.54,2.09,2.09,0,0,1,2.22,2.28,3.37,3.37,0,0,1,0,.5H416v-.64h3.62l-.21.23c0-1.15-.57-1.72-1.46-1.72a1.71,1.71,0,0,0-1.68,1.89,1.76,1.76,0,0,0,1.9,1.89,2.65,2.65,0,0,0,1.48-.46l.3.54a3.33,3.33,0,0,1-1.88.58A2.45,2.45,0,0,1,415.4,124.1Z" transform="translate(-13.67 -10.57)"/><path class="cls-1" d="M422.17,121.68h.69l.08,1.15h0a2.56,2.56,0,0,1,2.17-1.27,2,2,0,0,1,1,.2l-.19.71a2.44,2.44,0,0,0-.9-.16,2.28,2.28,0,0,0-2,1.39v2.83h-.83Z" transform="translate(-13.67 -10.57)"/><path class="cls-1" d="M427.43,125.89l.38-.55a3.47,3.47,0,0,0,2.11.66c.82,0,1.22-.34,1.22-.74s-.19-.63-1.51-.9-1.9-.69-1.9-1.42.69-1.38,2-1.38a3.65,3.65,0,0,1,2,.62l-.4.53a2.87,2.87,0,0,0-1.63-.51c-.82,0-1.12.33-1.12.7s.42.6,1.42.81c1.61.35,2,.75,2,1.5s-.77,1.44-2.16,1.44A4.27,4.27,0,0,1,427.43,125.89Z" transform="translate(-13.67 -10.57)"/><path class="cls-1" d="M435.87,122.35h-2.25v-.67h3.08v4.85h-.83Zm-.33-2.33a.66.66,0,1,1,.66.64A.63.63,0,0,1,435.54,120Z" transform="translate(-13.67 -10.57)"/><path class="cls-1" d="M440.78,124.65v-2.3H439.4v-.62l1.41,0,.11-1.56h.69v1.56H444v.67h-2.38v2.31c0,.87.29,1.31,1.23,1.31a3.2,3.2,0,0,0,1.16-.22l.18.61a4.24,4.24,0,0,1-1.52.29C441.24,126.65,440.78,125.84,440.78,124.65Z" transform="translate(-13.67 -10.57)"/><path class="cls-1" d="M445.39,128.52l.17-.66a1.56,1.56,0,0,0,.44.07,1.41,1.41,0,0,0,1.33-1l.14-.36-2.26-4.86h.84l1.18,2.68c.19.43.4.94.6,1.4h0l.52-1.4,1.05-2.68h.8l-2.15,5.25a2.17,2.17,0,0,1-2.06,1.69A2,2,0,0,1,445.39,128.52Z" transform="translate(-13.67 -10.57)"/><path class="cls-1" d="M451.7,127.58h2.11v-7.65H451.7v-.47h2.77v8.59H451.7Z" transform="translate(-13.67 -10.57)"/></svg>