<?xml version="1.0" encoding="UTF-8" standalone="no"?>
<svg
   id="mcmaster-logo-header"
   viewBox="0 0 236.2 131"
   title="McMaster Univeristy Logo"
   alt="McMaster Univeristy Logo"
   version="1.1"
   sodipodi:docname="mac-logo.svg"
   width="236.2"
   height="131"
   inkscape:version="1.3 (0e150ed, 2023-07-21)"
   xml:space="preserve"
   xmlns:inkscape="http://www.inkscape.org/namespaces/inkscape"
   xmlns:sodipodi="http://sodipodi.sourceforge.net/DTD/sodipodi-0.dtd"
   xmlns="http://www.w3.org/2000/svg"
   xmlns:svg="http://www.w3.org/2000/svg"><defs
     id="defs16"><rect
       id="SVGID_1_"
       width="41.119999"
       height="28.15"
       x="0"
       y="0" /></defs><sodipodi:namedview
     id="namedview16"
     pagecolor="#ffffff"
     bordercolor="#000000"
     borderopacity="0.25"
     inkscape:showpageshadow="2"
     inkscape:pageopacity="0.0"
     inkscape:pagecheckerboard="true"
     inkscape:deskcolor="#d1d1d1"
     inkscape:zoom="1.8015267"
     inkscape:cx="117.95551"
     inkscape:cy="65.500001"
     inkscape:window-width="1312"
     inkscape:window-height="825"
     inkscape:window-x="0"
     inkscape:window-y="38"
     inkscape:window-maximized="0"
     inkscape:current-layer="mcmaster-logo-header" /><g
     id="letterstop"
     style="fill:#000000;fill-opacity:1"><path
       class="letters"
       style="fill:#000000;fill-opacity:1"
       d="M 45.2,40.9 H 45 c -0.8,0 -1.4,-0.1 -1.9,-0.7 -0.6,-0.8 -0.6,-3.3 -0.5,-4.3 V 7.9 7 C 42.6,5.9 42.5,3.9 43,3.2 43.2,3 44,3.1 44.7,3.1 h 0.4 c 1.9,0 2,-1.3 2,-1.7 C 47.1,0.9 47,0.6 46.7,0.3 46.3,-0.1 45.7,0 45.2,0 h -7 C 37.5,0 36.5,0 36,1.3 L 24.2,31.7 14.5,4.4 C 14.1,3.2 13.9,2.7 13.8,2.5 13.8,2.4 13.7,2.2 13.7,2.1 V 2 C 13.4,1.1 13.1,0 11.7,0 H 4.7 4.4 C 4,0 3.3,-0.1 2.9,0.3 2.6,0.6 2.5,0.9 2.5,1.4 c 0,0.4 0.1,1.7 2,1.7 1.3,0 2.1,0.1 2.4,0.4 0.3,0.4 0.3,1.3 0.2,2.9 0,0.3 -1.9,29.7 -1.9,29.8 -0.2,3.5 -0.4,4.7 -3.1,4.7 -1.9,0 -2.1,1 -2.1,1.5 0,0.5 0.2,1.4 1.5,1.4 0.9,0 1.8,-0.1 2.7,-0.1 0.9,-0.1 1.8,-0.1 2.7,-0.1 0.9,0 1.8,0.1 2.7,0.1 0.9,0.1 1.8,0.1 2.7,0.1 0.5,0 1.9,0 1.9,-1.4 0,-0.4 -0.1,-0.7 -0.4,-0.9 C 13.3,41 12.4,41 11.9,41 H 11.8 C 10.6,41 9.8,40.7 9.3,40.2 8.2,39.1 8.3,36.8 8.4,33.9 L 10,7.9 20.9,39.5 c 0.2,0.6 0.3,0.8 0.4,1 v 0.1 c 0.1,0.5 0.4,1.7 1.4,1.7 0.9,0 1.2,-0.9 1.4,-1.4 0,-0.1 0,-0.1 0.1,-0.2 L 36.7,7.2 v 28.9 c 0,1.2 0,3.3 -0.7,4 -0.5,0.5 -1.7,0.8 -2.4,0.8 h -0.2 c -0.5,0 -1.3,0 -1.9,0.5 -0.3,0.3 -0.4,0.6 -0.4,1 0,0.5 0.2,1.4 1.7,1.4 1.2,0 2.4,-0.1 3.5,-0.1 1.2,-0.1 2.4,-0.1 3.6,-0.1 1,0 1.9,0.1 2.9,0.1 0.9,0.1 1.9,0.1 2.9,0.1 1.5,0 1.7,-0.9 1.7,-1.4 0,-0.4 -0.1,-0.7 -0.4,-1 -0.4,-0.5 -1.3,-0.5 -1.8,-0.5 z"
       id="path1" /><path
       class="letters"
       style="fill:#000000;fill-opacity:1"
       d="m 60.2,44.6 c 3.6,0 6.9,-1.2 9.6,-3.6 1.8,-1.7 2.1,-2.5 2.1,-2.9 0,-0.6 -0.5,-1.1 -1,-1.1 -0.5,0 -0.9,0.4 -1.3,0.9 0,0.1 -0.1,0.1 -0.1,0.1 -1.8,1.9 -4.1,2.9 -6.9,2.9 -7,0 -11.3,-7.2 -11.3,-13.9 0,-4.2 1.6,-8.3 4.4,-10.9 1.4,-1.4 3.9,-2.7 6,-2.7 2.8,0 4.3,2.7 5.6,4.9 0.9,1.6 1.6,2.8 2.7,2.8 0.3,0 0.6,-0.1 0.8,-0.4 0.6,-0.7 0.6,-2.1 0.5,-3.5 v -0.3 -0.6 c 0.1,-1 0.1,-2.3 -0.8,-2.9 -2.2,-1.7 -5.7,-2.4 -8.1,-2.4 -9.2,0 -17,8 -17,17.5 0.2,8.6 6.9,16.1 14.8,16.1 z"
       id="path2" /><path
       class="letters"
       style="fill:#000000;fill-opacity:1"
       d="m 95.5,40.7 c 0,-0.1 0,-0.1 0.1,-0.1 L 108.2,7.2 v 28.9 c 0,1.2 0,3.3 -0.7,4 -0.5,0.5 -1.7,0.8 -2.4,0.8 h -0.2 c -0.5,0 -1.3,0 -1.9,0.5 -0.3,0.3 -0.4,0.6 -0.4,1 0,0.5 0.2,1.4 1.7,1.4 1.2,0 2.4,-0.1 3.5,-0.1 1.2,-0.1 2.4,-0.1 3.6,-0.1 1,0 1.9,0.1 2.9,0.1 0.9,0.1 1.9,0.1 2.9,0.1 1.5,0 1.7,-0.9 1.7,-1.4 0,-0.4 -0.1,-0.7 -0.4,-1 -0.5,-0.5 -1.3,-0.5 -1.9,-0.5 h -0.2 c -0.8,0 -1.4,-0.1 -1.9,-0.7 -0.6,-0.8 -0.6,-3.3 -0.5,-4.3 V 7.9 7 c 0,-1.1 -0.1,-3.1 0.4,-3.8 0.3,-0.4 1.1,-0.4 1.7,-0.3 h 0.4 c 1.9,0 2,-1.3 2,-1.7 0,-0.5 -0.1,-0.8 -0.4,-1.1 -0.4,-0.4 -1.1,-0.4 -1.6,-0.3 h -7 c -0.7,0 -1.7,0 -2.2,1.3 L 95.7,31.7 85.7,3.5 C 85.5,2.9 85.4,2.6 85.3,2.5 85.3,2.3 85.2,2.2 85.2,2 84.9,1.1 84.6,0 83.2,0 H 75.9 C 75.4,0 74.8,-0.1 74.3,0.3 74.1,0.6 74,0.9 74,1.4 c 0,0.4 0.1,1.7 2,1.7 1.3,0 2.1,0.1 2.4,0.4 0.3,0.4 0.3,1.3 0.2,2.9 -1.8,29.6 -1.9,29.8 -1.9,29.8 -0.2,3.5 -0.4,4.7 -3.1,4.7 -1.9,0 -2.1,1 -2.1,1.5 0,0.5 0.2,1.4 1.5,1.4 0.9,0 1.8,-0.1 2.7,-0.1 0.9,-0.1 1.8,-0.1 2.7,-0.1 0.9,0 1.8,0.1 2.7,0.1 0.9,0.1 1.8,0.1 2.7,0.1 0.5,0 1.9,0 1.9,-1.4 0,-0.4 -0.1,-0.7 -0.4,-0.9 C 84.8,41 83.9,41 83.4,41 h -0.1 c -1.2,0 -2,-0.3 -2.5,-0.8 -1.1,-1.1 -1,-3.4 -0.9,-6.3 L 81.5,8 92.3,39.4 c 0.2,0.7 0.4,1 0.4,1.2 v 0.1 c 0.1,0.5 0.4,1.7 1.4,1.7 0.9,-0.2 1.2,-1.1 1.4,-1.7 z"
       id="path3" /><path
       class="letters"
       style="fill:#000000;fill-opacity:1"
       d="m 135.3,40.3 c 0.6,1.5 1.6,3.9 4,3.9 1.8,0 3.6,-1.2 4.9,-2.2 l 0.1,-0.1 c 0.6,-0.5 1.6,-1.5 1.6,-2.5 0,-0.6 -0.5,-1.1 -1,-1.1 -0.5,0 -0.8,0.4 -1.1,0.7 -0.4,0.5 -1,1 -1.7,1 -0.3,0 -0.5,-0.1 -0.7,-0.3 -0.9,-0.9 -0.9,-3.5 -0.9,-4.6 V 17.7 c 0,-1.7 0.1,-3.4 -1.4,-4.8 -1.3,-1.3 -3.4,-2 -6.2,-2 -4.1,0 -8.7,1.9 -11.8,5 -1.3,1.2 -2.8,3.4 -2.8,5.4 0,0.9 0.5,1.4 1.4,1.4 0.9,0 2.3,-0.6 2.9,-1 1.1,-0.5 1.5,-1.5 1.9,-2.5 l 0.1,-0.3 c 1.6,-3.9 3.6,-5.5 6.8,-5.5 3.2,0 3.5,1.8 3.5,5.7 v 3.1 c 0,2.4 0,2.4 -2.1,3.4 0,0 -1.7,0.9 -3,1.6 -1,0.5 -1.9,1 -1.9,1 l -0.4,0.2 c -3.7,2 -9.2,5 -9.2,10.1 0,4 3.3,6.1 6.5,6.1 4.4,0 7.9,-3.2 9.6,-4.7 0.2,-0.2 0.4,-0.4 0.6,-0.5 0.1,0.2 0.2,0.6 0.3,0.9 z m -6.5,-9.7 c 0.1,-0.1 0.4,-0.2 0.9,-0.5 l 4.9,-2.7 c 0.1,0 0.2,-0.1 0.3,-0.1 h 0.1 c 0,0.2 0.1,0.5 0,1.1 v 4.4 c 0,2.2 -0.1,3.3 -1.4,4.9 -1.5,1.6 -3.5,2.6 -5.5,2.6 -1.8,0 -3.8,-0.9 -3.8,-3.6 -0.2,-3.1 2,-4.8 4.5,-6.1 z m 30.6,-6.9 c -3.5,-1.3 -6.6,-2.5 -6.6,-5.9 0,-3 3.1,-4.6 5.3,-4.6 4.2,0 5.3,2.7 6,4.6 0.4,1.1 0.8,2 1.7,2 0.3,0 0.6,-0.1 0.8,-0.3 0.6,-0.7 0.5,-2.1 0.4,-3.4 v -0.3 -0.6 c 0.1,-1 0.2,-2.4 -1.1,-3 -1.6,-0.7 -5.1,-1.2 -6.8,-1.2 -3.2,0 -5.8,0.8 -7.8,2.4 -2.3,1.9 -3.6,4.3 -3.6,7 0,5.8 5.5,7.8 9.5,9.2 0.3,0.1 0.5,0.2 0.6,0.2 2.8,1 5.7,2.4 5.7,6.2 0,4.1 -3.7,6.3 -7.2,6.3 -5.2,0 -6,-3.8 -6.5,-6.6 -0.3,-1.6 -0.6,-3 -1.8,-3 -1.2,0 -1.3,1.4 -1.4,2 v 0.1 c 0,0 0,0.6 -0.2,3.8 v 1.3 c 0,1 0,2.1 1.2,2.7 2.3,1.3 6.2,2.2 8.3,2.2 5.2,0 12.6,-3.4 12.6,-10.8 0.2,-6.8 -4.7,-8.7 -9.1,-10.3 z m 26,14.6 c -0.4,0 -0.7,0.3 -1.2,0.7 -0.8,0.7 -2,1.7 -3.4,1.7 -0.7,0 -1.3,-0.2 -1.8,-0.7 -1.4,-1.4 -1.4,-4.7 -1.4,-6.8 v -18 c 0,-0.7 0.1,-0.9 0.2,-0.9 0.1,-0.1 0.5,-0.1 0.9,-0.1 h 4.9 c 0.6,0 1.1,0.1 1.4,-0.3 0.4,-0.3 0.4,-0.9 0.4,-1.4 0,-0.5 0,-1.5 -1.1,-1.5 H 178 c -0.4,0 -0.5,0 -0.5,-0.8 v -5 c 0,-1.2 -0.7,-1.4 -1.1,-1.4 -0.7,0 -1,0.7 -1.2,1 -1.4,3.2 -3.1,4.9 -5.9,6.9 l -0.1,0.1 c -0.3,0.3 -0.8,0.7 -0.8,1.3 0,0.3 0.1,0.6 0.3,0.8 0.5,0.4 1.3,0.4 2,0.4 h 1.1 c 0,0.1 0.1,0.2 0.1,0.7 v 19.1 c 0,2.7 -0.1,5.9 1.5,8.1 1.1,1.5 3,2.4 5,2.4 2.3,0 4.5,-1 6.3,-2.8 0.4,-0.3 1.5,-1.4 1.5,-2.4 0.2,-0.5 -0.2,-1.1 -0.8,-1.1 z"
       id="path4" /><path
       class="letters"
       style="fill:#000000;fill-opacity:1"
       d="m 193.3,24.6 h 19.5 c 0.3,0 1.3,-0.1 1.3,-1.8 0,-2.4 -1,-5.5 -2.3,-7.4 -2.1,-2.9 -5.6,-4.6 -9.6,-4.6 -4.4,0 -8.5,1.7 -11.8,4.8 -3.2,3.1 -4.7,6.9 -4.7,12.1 0,9.4 6.6,16.7 14.9,16.7 4.2,0 7.4,-1.3 10.4,-4.1 1.8,-1.7 2.6,-2.8 2.6,-3.5 0,-0.6 -0.5,-1.1 -1.1,-1.1 -0.5,0 -0.8,0.3 -1.4,1 -1.3,1.3 -3.6,3.6 -7.9,3.6 -7.7,0 -11.7,-7.1 -11.7,-14.1 0,-0.8 0.1,-1.3 0.2,-1.4 0.4,-0.2 0.9,-0.2 1.6,-0.2 z m 0.3,-6.9 c 1.8,-2.8 4.7,-4.4 7.7,-4.4 1.5,0 3.7,0.3 5.1,2 0.9,1.1 1.5,2.6 1.5,3.8 0,1.2 -0.6,1.9 -1.9,2.2 -1.8,0.5 -5.3,0.5 -7.2,0.5 h -5.5 c -0.4,0 -1,0 -1.2,-0.1 0,0 -0.1,-0.1 -0.1,-0.2 0.1,-1 1.1,-3 1.6,-3.8 z M 232,11.2 c -3.4,0 -5.7,3.1 -7,4.8 -0.1,0.1 -0.2,0.2 -0.2,0.3 v -0.2 -3.6 c 0,-0.3 0,-0.9 -0.3,-1.2 -0.1,-0.1 -0.4,-0.3 -0.8,-0.3 -0.7,0 -1.1,0.5 -1.4,0.9 l 0.1,0.1 -0.1,-0.1 -0.2,0.2 c -1,1.3 -3.6,3 -5,3.5 -0.1,0 -0.2,0.1 -0.2,0.1 -0.6,0.2 -1.6,0.5 -1.6,1.6 0,0.7 0.5,1.1 1.3,1.1 h 0.8 c 0.7,0 1.2,0.1 1.4,0.4 0.3,0.4 0.5,1.7 0.5,3.9 v 14.6 c 0.1,2.6 0,3.8 -2.4,4 h -0.3 c -0.6,0 -2,0.1 -2,1.5 0,0.8 0.6,1.3 1.5,1.3 1,0 2,-0.1 3,-0.1 1,-0.1 2,-0.1 3,-0.1 0.9,0 1.9,0 2.8,0.1 1,0.1 2,0.1 3.1,0.1 0.8,0 1.3,-0.5 1.3,-1.3 0,-1.3 -1.4,-1.4 -2,-1.5 H 227 c -2.3,-0.2 -2.4,-1.4 -2.4,-4 V 24.6 c 0,-2.6 0,-4.3 1.3,-6.4 0.7,-0.9 1.6,-2.3 2.8,-2.3 0.5,0 0.8,0.4 1.4,1 0.6,0.7 1.3,1.7 2.7,1.7 1.9,0 3.2,-1.4 3.2,-3.4 0.2,-2.3 -1.6,-4 -4,-4 z M 24.6,51 c -0.5,0 -1,0 -1.5,0.1 -0.5,0 -0.9,0.1 -1.4,0.1 -0.5,0 -1.1,0 -1.6,-0.1 -0.6,0 -1.1,-0.1 -1.7,-0.1 -0.4,0 -0.8,0.1 -1,0.4 -0.2,0.2 -0.3,0.5 -0.3,0.8 0,0.4 0.2,0.6 0.3,0.7 0.4,0.4 0.9,0.4 1.2,0.4 h 0.1 c 0.8,0 1.4,0 1.7,0.6 0.3,0.6 0.3,2.8 0.3,3.6 v 11.6 c 0,1.9 0,3.6 -1.2,4.9 -1.6,1.8 -4.1,2 -5.5,2 C 13,76 9.7,75.8 8.6,73.6 7.9,72.3 7.9,69.7 7.9,68 V 55.6 c 0,-1 0,-1.7 0.2,-2 0.2,-0.2 0.7,-0.3 1.6,-0.3 1.3,0 1.5,-0.6 1.5,-1.1 0,-0.7 -0.5,-1.1 -1.2,-1.1 -0.7,0 -1.4,0 -2.1,0.1 -0.7,0 -1.4,0.1 -2.1,0.1 -0.7,0 -1.3,0 -2,-0.1 -0.6,0 -1.4,-0.1 -2.1,-0.1 -0.4,0 -0.7,0.1 -0.9,0.3 -0.2,0.2 -0.3,0.5 -0.3,0.8 0,0.5 0.3,1.1 1.5,1.1 0.9,0 1.4,0.1 1.6,0.3 0.3,0.3 0.3,1 0.2,2 v 13.6 c 0,2.7 0,5.2 2.4,7 2.1,1.7 5.4,2 7.2,2 3.3,0 5.7,-0.8 7.3,-2.3 2.2,-2.1 2.2,-4.3 2.2,-6.9 v -10.9 -2 -0.7 c 0,-1.7 0.1,-2.2 1.3,-2.2 1.4,0 1.7,-0.6 1.7,-1.1 0,-0.2 -0.1,-1.1 -1.3,-1.1 z m 20.5,24.7 h -0.2 c -1.1,-0.1 -1.2,-0.5 -1.2,-2.1 v -7.5 c 0,-1.9 0,-3.9 -1.2,-5.6 -1.1,-1.6 -2.7,-2.4 -4.8,-2.4 -2.6,0 -4.4,1.7 -5.5,2.7 v -1.6 c 0,-0.3 0,-0.6 -0.3,-0.9 -0.1,-0.1 -0.3,-0.2 -0.6,-0.2 -0.5,0 -0.8,0.4 -1,0.6 0,0 -0.1,0.1 -0.1,0.2 -0.5,0.7 -2,1.7 -2.8,1.9 h -0.1 c -0.4,0.1 -1.1,0.4 -1.1,1.2 0,0.5 0.4,0.9 1,0.9 h 0.5 c 0.4,0 0.6,0.1 0.6,0.1 0.1,0.1 0.2,0.4 0.2,2.1 v 8.5 c 0,1.6 -0.1,2 -1.2,2.1 h -0.2 c -0.3,0 -1.4,0.1 -1.4,1.1 0,0.5 0.3,1 1.1,1 0.6,0 1.2,0 1.8,-0.1 0.6,0 1.1,-0.1 1.7,-0.1 0.5,0 1.1,0 1.6,0.1 0.6,0 1.2,0.1 1.8,0.1 0.6,0 1,-0.4 1,-1 0,-1 -1,-1.1 -1.4,-1.1 H 33.2 C 32.1,75.6 32,75.2 32,73.6 V 66 c 0,-1.6 0.1,-2.3 1,-3.4 0.9,-1 2,-1.6 3.2,-1.6 1.3,0 2.4,0.6 3,1.6 0.6,1 0.6,2.5 0.6,3.8 v 7.2 c 0,1.6 -0.1,2 -1.2,2.1 h -0.2 c -0.3,0 -1.4,0.1 -1.4,1.1 0,0.5 0.3,1 1.1,1 0.6,0 1.2,0 1.7,-0.1 0.6,0 1.1,-0.1 1.7,-0.1 0.5,0 1.1,0 1.6,0.1 0.6,0 1.2,0.1 1.8,0.1 0.6,0 1,-0.4 1,-1 0.6,-1 -0.5,-1.1 -0.8,-1.1 z m 10.5,0 H 55.4 C 54.3,75.6 54.2,75.2 54.2,73.6 V 59.2 c 0,-0.2 0,-0.6 -0.3,-0.9 -0.1,-0.1 -0.3,-0.2 -0.6,-0.2 -0.5,0 -0.8,0.4 -1,0.6 l -0.1,0.1 c -0.5,0.7 -2,1.7 -2.8,1.9 h -0.1 c -0.4,0.1 -1.1,0.4 -1.1,1.2 0,0.5 0.4,0.9 1,0.9 h 0.5 c 0.4,0 0.6,0.1 0.6,0.1 0.1,0.1 0.2,0.4 0.2,2.1 v 8.5 c 0,1.6 -0.1,2 -1.2,2.1 h -0.2 c -0.3,0 -1.4,0.1 -1.4,1.1 0,0.5 0.3,1 1.1,1 0.6,0 1.2,0 1.8,-0.1 0.6,0 1.1,-0.1 1.7,-0.1 0.5,0 1.1,0 1.6,0.1 0.6,0 1.2,0.1 1.8,0.1 0.6,0 1,-0.4 1,-1 0.3,-0.9 -0.7,-1 -1.1,-1 z M 50.3,53.1 c 0,1.5 0.9,2.5 2.1,2.5 1.3,0 2.2,-1 2.2,-2.6 0,-1.2 -0.8,-2.5 -2.1,-2.5 -1.2,0 -2.2,1.1 -2.2,2.6 z m 26.2,5.6 C 76.3,58.5 76,58.5 75.8,58.5 h -5.5 c -0.9,0 -1.1,0.5 -1.1,0.9 0,0.7 0.5,1 1.6,1 0.3,0 0.9,0.1 0.9,0.5 0,0.3 -0.2,0.9 -0.4,1.3 0,0.1 -0.1,0.2 -0.1,0.3 -0.1,0.1 -0.2,0.5 -0.5,1.1 l -3.3,8.1 C 64.2,63 64.1,62.8 64.1,62.8 L 64,62.7 c -0.1,-0.4 -0.5,-1.3 -0.5,-1.7 0,-0.6 0.7,-0.6 0.8,-0.6 h 0.1 c 0.3,0 0.9,0 1.2,-0.3 0.2,-0.2 0.3,-0.4 0.3,-0.6 0,-0.3 -0.1,-0.6 -0.3,-0.7 -0.3,-0.3 -0.7,-0.3 -0.9,-0.3 h -6.8 c -0.2,0 -0.5,0 -0.8,0.2 0,0.3 -0.1,0.5 -0.1,0.8 0,0.3 0.1,0.6 0.3,0.8 0.2,0.2 0.5,0.2 0.9,0.2 1.1,0.1 1.2,0.4 1.7,1.7 l 0.1,0.3 c 2,5.4 5.3,14.3 5.3,14.4 l 0.2,0.5 c 0.1,0.5 0.5,0.8 0.9,0.8 0.6,0 0.9,-0.7 1.1,-1.1 V 77 l -0.1,-0.1 h 0.1 c 0,0 5.2,-12.6 5.3,-12.7 0.1,-0.2 0.2,-0.4 0.2,-0.6 0.5,-1.4 1.1,-2.9 2.3,-3.1 h 0.1 c 0.3,0 1.3,-0.1 1.3,-1.1 0.1,-0.1 0.1,-0.4 -0.2,-0.7 z m 4.8,7.8 h 11.3 c 0.2,0 1,-0.1 1,-1.3 0,-1.5 -0.6,-3.3 -1.4,-4.4 C 90.9,59 88.8,58 86.5,58 c -2.6,0 -5.1,1 -7,2.9 -1.9,1.9 -2.8,4.1 -2.8,7.2 0,5.6 3.9,10 8.9,10 2.5,0 4.4,-0.8 6.2,-2.5 1.4,-1.3 1.6,-1.9 1.6,-2.2 0,-0.5 -0.4,-0.9 -0.9,-0.9 -0.4,0 -0.6,0.3 -1,0.6 -0.7,0.7 -2,2 -4.4,2 -4.3,0 -6.6,-4 -6.6,-8 0,-0.5 0.1,-0.7 0.1,-0.7 0.1,0.1 0.5,0.1 0.7,0.1 z M 86,59.9 c 0.8,0 2,0.2 2.8,1.1 0.5,0.6 0.8,1.4 0.8,2 0,0.6 -0.3,0.9 -0.9,1.1 -1,0.3 -3,0.3 -4.1,0.3 h -3 -0.7 c 0,-0.5 0.5,-1.6 0.8,-2 1,-1.6 2.6,-2.5 4.3,-2.5 z m 19.7,-1.6 c -1.9,0 -3.2,1.5 -3.9,2.5 v -1.6 c 0,-0.2 0,-0.6 -0.3,-0.9 -0.1,-0.1 -0.3,-0.2 -0.6,-0.2 -0.5,0 -0.8,0.4 -1,0.6 0,0 -0.1,0.1 -0.1,0.2 -0.5,0.7 -2,1.7 -2.8,1.9 h -0.1 c -0.4,0.1 -1.1,0.4 -1.1,1.2 0,0.5 0.4,0.9 1,0.9 h 0.5 c 0.4,0 0.6,0.1 0.6,0.1 0.1,0.1 0.2,0.4 0.2,2.1 v 8.5 c 0,1.6 -0.1,2 -1.2,2.1 h -0.2 c -0.3,0 -1.4,0.1 -1.4,1.1 0,0.5 0.3,1 1.1,1 0.6,0 1.2,0 1.8,-0.1 0.6,0 1.1,-0.1 1.7,-0.1 0.5,0 1.1,0 1.6,0.1 0.6,0 1.2,0.1 1.8,0.1 0.6,0 1,-0.4 1,-1 0,-1 -1,-1.1 -1.4,-1.1 h -0.1 c -1.1,-0.1 -1.2,-0.5 -1.2,-2.1 v -7.3 c 0,-1.5 0,-2.4 0.7,-3.6 0.4,-0.5 0.9,-1.2 1.4,-1.2 0.2,0 0.3,0.1 0.6,0.5 0.3,0.4 0.8,1.1 1.8,1.1 1.2,0 2.1,-0.9 2.1,-2.2 0.1,-1.5 -1,-2.6 -2.5,-2.6 z m 11.5,7.2 c -2,-0.7 -3.7,-1.4 -3.7,-3.2 0,-1.6 1.7,-2.5 2.8,-2.5 2.3,0 2.9,1.4 3.3,2.5 0.3,0.6 0.5,1.3 1.2,1.3 0.2,0 0.5,-0.1 0.6,-0.3 0.4,-0.5 0.4,-1.3 0.3,-2.2 V 61 60.6 c 0,-0.6 0.1,-1.6 -0.8,-2 -1,-0.5 -3,-0.7 -4,-0.7 -1.9,0 -3.5,0.5 -4.7,1.5 -1.4,1.1 -2.2,2.6 -2.2,4.2 0,3.6 3.3,4.7 5.7,5.6 l 0.3,0.1 c 2,0.7 3.2,1.5 3.2,3.4 0,2.2 -2,3.4 -3.9,3.4 -2.8,0 -3.2,-1.9 -3.5,-3.6 -0.2,-1 -0.4,-2 -1.3,-2 -0.9,0 -1,1 -1,1.3 v 0.1 l -0.1,2.8 v 0.2 c 0,0.6 0,1.4 0.8,1.8 1.4,0.8 3.7,1.3 5,1.3 3.7,0 7.6,-2.4 7.6,-6.5 0,-3.9 -3,-5 -5.6,-6 z M 131.8,53 c 0,-1.2 -0.8,-2.5 -2.1,-2.5 -1.2,0 -2.2,1.1 -2.2,2.6 0,1.5 0.9,2.5 2.1,2.5 1.4,0 2.2,-1 2.2,-2.6 z m 1,22.7 h -0.2 c -1.1,-0.1 -1.2,-0.5 -1.2,-2.1 V 59.2 c 0,-0.3 0,-0.6 -0.3,-0.9 -0.1,-0.1 -0.3,-0.2 -0.6,-0.2 -0.5,0 -0.8,0.4 -1,0.6 0,0 -0.1,0.1 -0.1,0.2 -0.5,0.7 -2,1.7 -2.8,1.9 h -0.1 c -0.4,0.1 -1.1,0.4 -1.1,1.2 0,0.5 0.4,0.9 1,0.9 h 0.5 c 0.4,0 0.6,0.1 0.6,0.1 0.1,0.1 0.2,0.4 0.2,2.1 v 8.5 c 0,1.6 -0.1,2 -1.2,2.1 h -0.2 c -0.3,0 -1.4,0.1 -1.4,1.1 0,0.5 0.3,1 1.1,1 0.6,0 1.2,0 1.8,-0.1 0.6,0 1.1,-0.1 1.7,-0.1 0.5,0 1.1,0 1.6,0.1 0.6,0 1.2,0.1 1.8,0.1 0.6,0 1,-0.4 1,-1 0.3,-1 -0.7,-1.1 -1.1,-1.1 z M 144.4,74 c -0.3,0 -0.5,0.2 -0.9,0.5 -0.4,0.4 -1.1,1 -1.8,1 -0.4,0 -0.6,-0.1 -0.9,-0.3 -0.7,-0.7 -0.7,-2.6 -0.7,-3.8 V 60.8 60.4 h 3.3 c 0.4,0 0.7,0 1,-0.2 0.3,-0.3 0.3,-0.6 0.3,-1 0,-0.8 -0.3,-1.1 -0.9,-1.1 h -3.6 -0.1 V 55 c 0,-1 -0.7,-1.1 -0.9,-1.1 -0.4,0 -0.7,0.2 -0.9,0.7 -0.8,1.8 -1.8,2.8 -3.3,3.9 l -0.1,0.1 c -0.2,0.2 -0.6,0.5 -0.6,1 0,0.2 0.1,0.5 0.3,0.6 0.4,0.3 0.9,0.3 1.4,0.3 h 0.4 v 11.4 c 0,1.6 0,3.5 0.9,4.8 0.7,0.9 1.8,1.5 3.1,1.5 1.4,0 2.7,-0.6 3.8,-1.7 0.3,-0.3 0.9,-0.9 0.9,-1.6 0.1,-0.4 -0.2,-0.9 -0.7,-0.9 z m 20.1,-15.5 h -5.8 c -0.6,0 -1.1,0.5 -1.1,1.1 0,0.9 1,0.9 1.4,0.9 1.4,0 1.4,0.7 1.4,0.9 0,0.4 -0.3,1 -0.4,1.4 v 0.1 c 0,0.1 -2.4,6.3 -3.6,9.3 l -3.6,-9.6 v -0.1 c -0.2,-0.4 -0.4,-1 -0.4,-1.4 0,-0.7 1.2,-0.7 1.3,-0.7 1.2,0 1.5,-0.5 1.5,-0.9 0,-0.7 -0.5,-1.1 -1.1,-1.1 H 147 c -0.7,0 -1.3,0.4 -1.3,1.1 0,0.9 1.1,0.9 1.5,0.9 0.8,0 1.2,0.8 1.6,2.1 0,0 0.1,0.3 0.2,0.4 l 4.8,12.7 c 0,0.1 0.1,0.3 0.2,0.4 0.1,0.4 0.3,0.8 0.3,1.1 0,0.3 -0.1,0.5 -0.2,0.8 0,0.1 -0.1,0.2 -0.1,0.2 -1,2.5 -1.2,3.1 -1.2,3.2 0,0.1 -0.1,0.2 -0.1,0.2 v 0.1 c -0.2,0.4 -0.3,0.8 -0.5,0.8 -0.3,0.1 -0.8,0.1 -1.2,0.1 h -0.3 c -1.7,0 -1.7,1.6 -1.7,2.2 0,0.6 0.2,1 0.5,1.3 0.5,0.5 1.3,0.6 2,0.6 h 0.2 c 1.7,0 1.9,-0.6 2.3,-1.9 v -0.1 l 6.2,-16.4 c 0.8,-2.1 1.1,-2.8 1.1,-3.1 0.3,-0.8 1.3,-3.3 1.9,-4.2 0.3,-0.4 0.9,-0.7 1.2,-0.7 h 0.2 c 0.4,0 1.1,-0.1 1.1,-0.8 -0.1,-0.4 -0.6,-0.9 -1.2,-0.9 z"
       id="path5" /></g><path
     id="shieldoutlinetop"
     class="shieldoutline"
     style="fill:#ffffff"
     d="M 234.8,49.6 H 174 v 46.1 c 1,11 12,29.3 30.2,34.9 l 0.3,0.1 0.3,0.1 0.3,0.1 0.3,-0.1 0.3,-0.1 0.3,-0.1 c 18.2,-5.6 29.2,-24 30.2,-35.2 V 49.8 h -1.4 z m -0.5,1.9 v 44 c -0.9,10.7 -11.6,28.3 -29.2,33.8 l -0.3,0.1 h -0.2 l -0.3,-0.1 C 186.7,123.9 176,106.2 175.1,95.6 V 51 H 234 v 0.5 z" /><path
     id="shieldtop"
     class="shield"
     style="fill:#5e6a71"
     d="m 232.9,51.1 h -57.6 v 44.6 c 0.9,10.6 11.6,28.2 29.2,33.7 l 0.3,0.1 h 0.2 l 0.3,-0.1 c 17.6,-5.4 28.2,-23.1 29.2,-33.8 V 51.2 h -1.6 z m 0,44.5 c -0.8,9.3 -10.5,27 -28.2,32.5 -17.7,-5.5 -27.4,-23.2 -28.2,-32.5 v -27 h 56.3 v 27 z m 0,-27 H 176.5 V 52.5 h 56.4 z" /><g
     id="shieldbgtop"><path
       class="shieldbg"
       style="fill:#fdbf57"
       d="m 204.8,68.6 h -28.2 v 27 c 0.8,9.3 10.5,27 28.2,32.5 17.7,-5.5 27.4,-23.2 28.2,-32.5 v -27 z m 11.5,5.9 c 0,0 2.6,4.7 0.2,6.5 0,0 1.5,-0.2 2.8,0.5 0,0 -0.9,1.6 -1.8,2.1 0,0 1.9,0.9 2.4,1.6 0,0 -1.2,1 -2.8,1.2 0,0 1.7,1.1 2.2,2 0,0 -1.3,0.9 -2.9,0.6 0,0 1.8,1.2 1.9,2.5 0,0 -1.8,0.5 -3.1,-1 0,0 1.2,2 0.5,3.3 -0.2,0.4 -0.7,0.8 -0.7,0.8 -1.1,-0.6 -1.3,-0.6 -1.4,-1.8 0,-0.6 0.1,-0.7 0.1,-2 0,-1.1 -0.2,-2.1 -0.2,-2.1 0,0 2.4,-0.4 1.8,-4.6 0,0 -3.2,2.2 -3.6,-0.8 -0.5,-3.6 5,-1.7 4.6,-8.8 z m -2.9,35 c 0,0 -0.1,0 -0.2,0.1 -0.3,0.1 -0.5,0.4 -0.4,1.1 0,0 -1,-1.1 0.4,-1.9 l 0.1,-0.1 c 0,0.1 -0.2,0.5 0.1,0.8 z m -2,-6.5 c 0,0 0.3,0.8 0.4,1 0.7,1.5 -0.3,3.6 -0.3,3.6 0.5,-2.8 -2.4,-5.3 -2.4,-5.3 0.4,-1.3 1.8,-3.3 1.9,-3.4 0,0.1 0.1,0.4 0.8,1.5 2,3.2 3.8,3 3.8,3 -1.7,0.8 -4.2,-0.4 -4.2,-0.4 z m -0.6,-7.1 c -3.6,6.4 -6.2,7.3 -1.2,11.7 0,0 -3.2,0.9 -4,-1.9 0,0 0.2,3.1 -0.6,3.9 -0.8,-0.8 -0.6,-3.8 -0.6,-3.8 -0.7,2.8 -4,1.9 -4,1.9 5,-4.4 2.4,-5.3 -1.2,-11.7 -3.5,-6.2 0.3,-8.9 2,-13.5 0.8,-0.1 2.1,-0.4 2.7,-1.1 0,0 0.3,0.5 1,0.7 0.7,-0.2 1.1,-0.7 1.1,-0.7 0.5,0.6 2,1 2.7,1 1.8,4.6 5.6,7.4 2.1,13.5 z m -12.1,11.7 c 0,0 -1,-2 -0.3,-3.6 0.1,-0.1 0.4,-1 0.4,-1 0,0 -2.5,1.2 -4.2,0.3 0,0 1.8,0.2 3.8,-3 0.7,-1.2 0.8,-1.5 0.8,-1.5 0.1,0.2 1.5,2.1 1.9,3.4 0,0 -3,2.6 -2.4,5.4 z m -1.9,2.1 c -0.1,0 -0.2,-0.1 -0.2,-0.1 0.2,-0.3 0.1,-0.7 0.1,-0.7 0.1,0 0.1,0.1 0.1,0.1 1.4,0.8 0.4,1.9 0.4,1.9 0.1,-0.9 -0.2,-1.1 -0.4,-1.2 z M 198,75.4 c 0,0.3 0.4,0.9 0.7,1.1 0.5,0.4 4.7,0.1 5.2,0.1 -0.4,-0.8 -2.3,-2.3 -3.3,-2.2 -1.1,0 -1.4,1.1 -1.4,1.1 -0.5,-0.5 -0.6,-1.4 0.1,-2.1 0.6,-0.6 3.5,-0.8 3.7,-1 0.1,-0.2 0.3,-0.6 1,-0.5 0.7,0.1 1.3,1.2 3.2,0.8 0,0 1.5,-0.1 1.2,-1 -0.1,-0.4 -1,-0.4 -1,-0.4 0,0 1.9,-0.3 1.7,1.2 -0.1,1.1 -1.8,1 -1.9,2.9 0,0.3 -0.1,4.1 1.9,5.6 0,0 -2.5,-0.2 -3.5,-2.8 0,0 0,1.9 -0.6,1.9 -0.6,0 -0.8,-1.9 -0.8,-1.9 -0.2,2.5 -3.1,2.3 -3.1,2.3 2,-0.3 1.4,-1.3 1.2,-1.6 -0.3,-0.5 -1.1,-0.2 -1.4,-0.2 -1.3,0.4 -1.2,-0.5 -1.2,-0.5 h 3.3 c 0.9,-0.1 0.8,-0.9 0.9,-1.2 -0.4,0 -4.5,0.1 -4.8,0.1 -0.3,0 -0.5,0 -1,-0.3 -0.4,-0.3 -0.1,-1.4 -0.1,-1.4 z m -4.2,-0.9 c -0.4,7.1 5.1,5.3 4.7,8.9 -0.4,3 -3.6,0.8 -3.6,0.8 -0.6,4.2 1.8,4.6 1.8,4.6 0,0 -0.1,1 -0.2,2.1 0,1.3 0.1,1.4 0.1,2 -0.1,1.2 -0.3,1.3 -1.4,1.8 0,0 -0.4,-0.4 -0.7,-0.8 -0.7,-1.3 0.5,-3.3 0.5,-3.3 -1.3,1.6 -3.1,1 -3.1,1 0.1,-1.3 1.9,-2.5 1.9,-2.5 -1.6,0.3 -2.9,-0.6 -2.9,-0.6 0.5,-0.9 2.2,-2 2.2,-2 -1.7,-0.1 -2.8,-1.2 -2.8,-1.2 0.5,-0.7 2.4,-1.6 2.4,-1.6 -0.9,-0.5 -1.8,-2.1 -1.8,-2.1 1.3,-0.7 2.8,-0.5 2.8,-0.5 -2.5,-1.9 0.1,-6.6 0.1,-6.6 z M 182.7,99 c 0,0 5.7,1.8 8,-4 -3.8,3 -6.3,2.7 -7.4,2.2 -1.5,-0.7 -1.8,-3 -1.8,-3 2.5,1.2 6.3,-0.7 8.3,-3.1 -5.3,0.8 -7.5,-0.7 -8.1,-1.6 -0.9,-1.4 -1.7,-3.8 -1.7,-3.8 1.4,1.4 6.2,3 8.9,1.5 -5.5,-2.7 -7.9,-3.6 -8.4,-4.9 -0.6,-1.6 -0.6,-4.2 -0.6,-4.2 1,1.8 5.7,3.7 9.2,4.2 -5.6,-3.7 -7.9,-6.2 -8,-7.7 -0.2,-1.7 0.2,-4.3 0.2,-4.3 1,2.9 9.6,7.5 9.6,7.5 0,0.6 -0.1,1.2 0.1,1.8 0,0 -1,0.3 -2.1,1.4 0,0 0.5,1.5 1.1,2.3 0,0 -1.3,1 -1.7,1.9 0,0 0.1,0.7 1.5,1.8 0,0 -0.4,0.4 -1,1.7 0,0 0.9,0.9 1.9,1.4 0,0 -0.5,1 -0.4,2.2 0,0 1.2,1.1 2.5,1.1 0,0 0.1,0.8 0.9,1.8 0.3,0.4 1.4,1.3 1.4,1.3 0,0 1.9,-0.7 2.4,-1.3 l 0.1,0.3 c 0,0 0.1,0.6 0.8,1.6 0,0 -1.4,5.7 -8.9,5.9 4.3,-1.4 4.6,-5.7 4.6,-5.7 -4.4,4.8 -7.1,5.4 -8.5,4.7 -1.6,-0.7 -2.9,-3 -2.9,-3 z m 3.7,11.9 c 0,0 -1.5,-1.4 0.2,-2.8 0,0 -0.2,0.4 0.2,1 -0.1,0.1 -1.1,0.5 -0.4,1.8 z m 0.3,-5.7 c 0,0 0.2,-1.5 1.9,-0.9 0,0 -0.4,0.2 -0.5,0.6 0,0 -0.9,-0.6 -1.4,0.3 z m 2,7.6 c 0,0 0,0.5 0.5,0.9 0,0 -0.8,0.7 0.3,1.7 0,0 -2,-0.8 -0.8,-2.6 z m 5.6,-3.4 c -0.4,-0.3 -1.2,-0.1 -1.4,0 -0.5,0.2 -0.9,0.9 -1.1,2.2 -0.3,1.7 -1.6,1.9 -2,1.5 -1.3,-1.3 0.6,-2.5 0.9,-2.7 1.1,-0.9 1,-1.4 0.8,-1.6 -0.3,-0.5 -1.6,-0.5 -2.5,0.2 -0.8,0.7 -2.1,0.2 -1.7,-1 0.3,-1 1.7,-0.5 2,-0.5 0.2,0 0.5,0.1 0.7,-0.2 0.2,-0.3 -0.3,-0.7 -0.6,-0.8 -0.5,-0.2 -1,-0.8 -0.6,-1.3 0.5,-0.6 1.4,-0.2 1.4,0.7 0,0.4 0.2,1.2 0.7,1.5 1.6,0.7 3.7,-2 3.7,-2 0,0 0.9,0.3 2,0.2 0,0 -0.5,1.3 -2.8,2.4 -0.5,0.3 -0.4,0.6 -0.1,0.8 0,0 0.5,0.1 0.8,0 0.5,-0.2 1.2,-0.4 1.4,0.4 0.2,0.8 -0.7,1.3 -1.4,0.8 0.2,-0.3 -0.1,-0.5 -0.2,-0.6 z m 2.3,9.6 c -3.7,-4.2 -0.9,-7 1.8,-8.1 1.8,-0.8 1.7,-1.3 1.7,-1.3 0,0 2,0.6 3.2,-0.1 0,0 -0.3,0.9 -0.9,1.8 -3,4 -5,2 -5,2 -2.4,1 -0.8,5.7 -0.8,5.7 z m 14.8,0.3 c -1.1,0.9 -2,-1.6 -2,-1.6 0,0 -0.1,2.3 -2.1,2.4 0,0 3,-1.8 -0.1,-5.9 0.3,2.9 -0.7,5.6 -2.1,5.6 -1.4,0 -2.4,-2.7 -2.1,-5.6 -3.1,4.1 -0.1,5.9 -0.1,5.9 -2,0 -2.1,-2.4 -2.1,-2.4 0,0 -0.9,2.5 -2,1.6 -1.7,-1.4 1.3,-2.8 1.3,-2.8 -1.7,-0.1 -2,-1.1 -2,-1.1 4.4,0.5 6.3,-4.1 6.3,-4.1 0.3,0.3 0.5,0.3 0.7,0.4 0.2,-0.1 0.5,-0.2 0.7,-0.4 0,0 1.9,4.6 6.3,4.1 0,0 -0.3,1 -2,1.1 0,0.1 3,1.4 1.3,2.8 z m 2.1,-0.3 c 0,0 1.5,-4.7 -0.8,-5.8 0,0 -2.1,2 -5,-2 -0.6,-0.8 -0.9,-1.8 -0.9,-1.8 1.2,0.8 3.2,0.1 3.2,0.1 0,0 -0.1,0.6 1.7,1.3 2.7,1.2 5.5,4.1 1.8,8.2 z m 7.1,-3.6 c 1.1,-1 0.3,-1.7 0.3,-1.7 0.6,-0.5 0.5,-0.9 0.5,-0.9 1.1,1.8 -0.8,2.6 -0.8,2.6 z m 0.4,-6.5 c -0.8,-0.7 -2.1,-0.7 -2.5,-0.2 -0.1,0.2 -0.3,0.8 0.8,1.6 0.4,0.3 2.3,1.5 0.9,2.7 -0.5,0.4 -1.7,0.3 -2,-1.5 -0.2,-1.3 -0.6,-1.9 -1.1,-2.2 -0.2,-0.1 -1,-0.3 -1.4,0 -0.1,0.1 -0.4,0.3 -0.4,0.3 -0.7,0.5 -1.6,-0.1 -1.4,-0.8 0.2,-0.9 0.9,-0.7 1.4,-0.4 0.4,0.2 0.8,0 0.8,0 0.3,-0.2 0.4,-0.5 -0.1,-0.8 -2.3,-1.1 -2.8,-2.4 -2.8,-2.4 1.1,0.1 2,-0.2 2,-0.2 0,0 2.1,2.8 3.7,2 0.5,-0.2 0.7,-1.1 0.7,-1.5 0,-0.8 0.9,-1.3 1.4,-0.7 0.5,0.6 -0.1,1.1 -0.6,1.3 -0.3,0.1 -0.7,0.5 -0.6,0.8 0.2,0.3 0.4,0.2 0.7,0.2 0.3,0 1.7,-0.5 2,0.5 0.7,1.4 -0.7,2 -1.5,1.3 z m 1,-4 c -0.1,-0.4 -0.5,-0.6 -0.5,-0.6 1.7,-0.6 1.9,0.9 1.9,0.9 -0.6,-0.9 -1.4,-0.3 -1.4,-0.3 z m 1.7,6 c 0.7,-1.3 -0.3,-1.7 -0.3,-1.7 0.4,-0.6 0.2,-1 0.2,-1 1.6,1.3 0.1,2.7 0.1,2.7 z m 6.4,-25.2 c 0,0 -0.8,2.3 -1.7,3.8 -0.6,0.9 -2.8,2.4 -8.1,1.6 2,2.4 5.7,4.3 8.3,3.1 0,0 -0.3,2.3 -1.8,3 -1.1,0.5 -3.6,0.8 -7.4,-2.2 2.3,5.7 8,4 8,4 0,0 -1.3,2.3 -2.8,3.1 -1.3,0.7 -4,0.1 -8.5,-4.7 0,0 0.3,4.3 4.6,5.7 -7.6,-0.2 -8.9,-5.9 -8.9,-5.9 0.7,-1.1 0.8,-1.6 0.8,-1.6 l 0.1,-0.3 c 0.5,0.5 2.4,1.3 2.4,1.3 0,0 1.1,-1 1.4,-1.3 0.7,-1.1 0.9,-1.8 0.9,-1.8 1.3,0 2.5,-1.1 2.5,-1.1 0.1,-1.2 -0.4,-2.2 -0.4,-2.2 0.9,-0.4 1.9,-1.4 1.9,-1.4 -0.6,-1.3 -1,-1.7 -1,-1.7 1.5,-1.1 1.5,-1.8 1.5,-1.8 -0.4,-1 -1.7,-1.9 -1.7,-1.9 0.6,-0.8 1.1,-2.3 1.1,-2.3 -1.1,-1.1 -2.1,-1.4 -2.1,-1.4 0.2,-0.6 0.1,-1.2 0.1,-1.8 0,0 8.7,-4.5 9.6,-7.5 0,0 0.4,2.6 0.2,4.3 -0.1,1.5 -2.5,3.9 -8,7.7 3.4,-0.5 8.1,-2.4 9.2,-4.2 0,0 0,2.7 -0.6,4.2 -0.5,1.3 -2.9,2.2 -8.4,4.9 2.7,1.4 7.4,-0.2 8.8,-1.6 z"
       id="path6" /><path
       class="shieldbg"
       style="fill:#fdbf57"
       d="m 211.1,90.1 c -0.4,-0.8 -0.9,-1.1 -1.3,-1.2 -0.1,-0.1 -0.1,-0.2 -0.2,-0.4 -0.5,-0.8 -1.4,-0.9 -2.1,-0.6 -0.2,0.1 -0.4,0.2 -0.5,0.2 l 0.1,-0.2 c 0.1,-0.1 0.2,-0.3 0.3,-0.6 0.2,-0.6 0.1,-1.5 -0.6,-2.1 -0.1,-0.1 -0.2,-0.1 -0.4,-0.2 -0.1,-0.4 -0.4,-0.9 -1.2,-1.3 l -0.2,-0.1 -0.2,0.1 c -0.8,0.4 -1.1,0.9 -1.2,1.3 -0.1,0 -0.2,0.1 -0.4,0.2 -0.8,0.5 -0.9,1.4 -0.6,2.1 0.1,0.4 0.2,0.5 0.3,0.6 l 0.2,0.2 C 203,88 202.8,88 202.6,87.9 c -0.6,-0.2 -1.5,-0.1 -2.1,0.6 -0.1,0.1 -0.1,0.2 -0.2,0.4 -0.4,0.1 -0.9,0.4 -1.3,1.2 l -0.1,0.2 0.1,0.2 c 0.4,0.8 0.9,1.1 1.3,1.2 0,0.1 0.1,0.2 0.2,0.4 0.5,0.8 1.4,0.9 2.1,0.6 0.4,-0.1 0.5,-0.2 0.6,-0.3 l 0.2,-0.2 v 2.1 l -0.2,-0.2 -0.3,0.4 c -0.1,0.1 -0.2,0.3 -0.3,0.6 -0.2,0.6 -0.1,1.5 0.6,2.1 0.1,0.1 0.2,0.1 0.4,0.2 0.1,0.4 0.4,0.9 1.2,1.3 l 0.2,0.1 0.2,-0.1 c 0.8,-0.4 1.1,-0.9 1.2,-1.3 0.1,0 0.2,-0.1 0.4,-0.2 0.8,-0.5 0.9,-1.4 0.6,-2.1 -0.1,-0.4 -0.2,-0.5 -0.3,-0.6 l -0.3,-0.4 -0.2,0.2 v -2.1 l 0.2,0.2 c 0.1,0.1 0.3,0.2 0.6,0.3 0.6,0.2 1.5,0.1 2.1,-0.6 0.1,-0.1 0.1,-0.2 0.2,-0.4 0.4,-0.1 0.9,-0.4 1.3,-1.2 l 0.1,-0.2 z m -1.2,0.3 c 0,0 -0.1,0 0,0 0,0.1 -0.5,0.7 -1.1,0.5 0.1,0.2 0.1,0.4 -0.1,0.7 -0.3,0.4 -0.7,0.3 -0.8,0.3 h -0.1 l 0.1,-0.1 c 0,0 0.1,-0.1 0.1,-0.2 0,-0.1 0,-0.3 -0.3,-0.5 C 207.6,91 207.3,91 207.1,91 h -1.5 v 4 c 0,0.1 0,0.5 0.1,0.6 0.2,0.2 0.4,0.3 0.5,0.3 0.1,0 0.2,-0.1 0.2,-0.1 l 0.1,-0.1 v 0.1 c 0.1,0.2 0.1,0.6 -0.3,0.8 -0.3,0.2 -0.5,0.1 -0.7,0.1 0.2,0.6 -0.5,1.1 -0.5,1.1 0,0 -0.6,-0.5 -0.5,-1.1 -0.2,0.1 -0.4,0.1 -0.7,-0.1 -0.4,-0.3 -0.3,-0.7 -0.3,-0.8 v -0.1 l 0.1,0.1 c 0,0 0.1,0.1 0.2,0.1 0.1,0 0.3,0 0.5,-0.3 0.1,-0.1 0.1,-0.4 0.1,-0.6 v -4 h -1.6 c -0.1,0 -0.4,0 -0.6,0.1 -0.2,0.2 -0.3,0.4 -0.2,0.5 0,0.1 0.1,0.2 0.1,0.2 l 0.1,0.1 h -0.1 c -0.2,0.1 -0.6,0.1 -0.8,-0.3 -0.2,-0.3 -0.1,-0.5 -0.1,-0.7 -0.6,0.2 -1.1,-0.5 -1.1,-0.5 0,0 0.5,-0.6 1.1,-0.5 -0.1,-0.2 -0.1,-0.4 0.1,-0.7 0.3,-0.4 0.7,-0.3 0.8,-0.3 h 0.1 l -0.1,0.1 c 0,0 -0.1,0.1 -0.1,0.2 0,0.1 0,0.3 0.2,0.5 0.1,0.1 0.5,0.1 0.6,0.1 h 1.6 v -2.2 c 0,-0.1 0,-0.4 -0.1,-0.6 -0.2,-0.2 -0.4,-0.3 -0.5,-0.3 -0.1,0 -0.2,0.1 -0.2,0.1 l -0.1,0.1 v -0.1 c -0.1,-0.2 -0.1,-0.6 0.3,-0.8 0.3,-0.2 0.5,-0.1 0.7,-0.1 -0.2,-0.6 0.5,-1.1 0.5,-1.1 0,0 0.6,0.5 0.5,1.1 0.2,-0.1 0.4,-0.1 0.7,0.1 0.4,0.3 0.3,0.7 0.3,0.8 v 0.1 l -0.1,-0.1 c 0,0 -0.1,-0.1 -0.2,-0.1 -0.1,0 -0.3,0 -0.5,0.3 -0.1,0.1 -0.1,0.5 -0.1,0.6 v 2.2 h 1.5 c 0.1,0 0.5,0 0.6,-0.1 0.2,-0.2 0.3,-0.4 0.3,-0.5 0,-0.1 -0.1,-0.2 -0.1,-0.2 l -0.1,-0.1 h 0.1 c 0.2,-0.1 0.6,-0.1 0.8,0.3 0.2,0.3 0.1,0.5 0.1,0.7 0.6,-0.2 1,0.4 1.1,0.5 z M 204.2,74 c 0,-0.1 0,-0.2 -0.1,-0.3 h 0.5 v -0.1 l -0.1,-0.5 V 73 h -0.1 l -2.3,0.9 1.3,-0.1 c 0,0.1 -0.1,0.2 -0.1,0.2 0,0.3 0.2,0.5 0.5,0.5 0.2,0.1 0.4,-0.2 0.4,-0.5 z"
       id="path7" /></g><g
     id="eagletop"><path
       class="eagle"
       style="fill:#7a003c"
       d="m 202.4,111.2 c 0.6,-0.8 0.9,-1.8 0.9,-1.8 -1.2,0.8 -3.2,0.1 -3.2,0.1 0,0 0.1,0.6 -1.7,1.3 -2.7,1.1 -5.5,4 -1.8,8.1 0,0 -1.5,-4.7 0.8,-5.8 0,0.1 2.1,2.1 5,-1.9 z m -8.8,-30.3 c 0,0 -1.5,-0.2 -2.8,0.5 0,0 0.9,1.6 1.8,2.1 0,0 -1.9,0.9 -2.4,1.6 0,0 1.2,1 2.8,1.2 0,0 -1.7,1.1 -2.2,2 0,0 1.3,0.9 2.9,0.6 0,0 -1.8,1.2 -1.9,2.5 0,0 1.8,0.5 3.1,-1 0,0 -1.2,2 -0.5,3.3 0.2,0.4 0.7,0.8 0.7,0.8 1.1,-0.6 1.3,-0.6 1.4,-1.8 0,-0.6 -0.1,-0.7 -0.1,-2 0,-1.1 0.2,-2.1 0.2,-2.1 0,0 -2.4,-0.4 -1.8,-4.6 0,0 3.2,2.2 3.6,-0.8 0.4,-3.6 -5.1,-1.8 -4.7,-8.9 0.1,0.2 -2.5,4.9 -0.1,6.6 z"
       id="path8" /><path
       class="eagle"
       style="fill:#7a003c"
       d="m 194,97.4 c 0,0 -0.3,4.3 -4.6,5.7 7.6,-0.2 8.9,-5.9 8.9,-5.9 -0.7,-1.1 -0.8,-1.6 -0.8,-1.6 l -0.1,-0.3 c -0.5,0.5 -2.4,1.3 -2.4,1.3 0,0 -1.1,-1 -1.4,-1.3 -0.7,-1.1 -0.9,-1.8 -0.9,-1.8 -1.3,0 -2.5,-1.1 -2.5,-1.1 -0.1,-1.2 0.4,-2.2 0.4,-2.2 -0.9,-0.4 -1.9,-1.4 -1.9,-1.4 0.6,-1.3 1,-1.7 1,-1.7 -1.5,-1.1 -1.5,-1.8 -1.5,-1.8 0.4,-1 1.7,-1.9 1.7,-1.9 -0.6,-0.8 -1.1,-2.3 -1.1,-2.3 1.1,-1.1 2.1,-1.4 2.1,-1.4 -0.2,-0.6 -0.1,-1.2 -0.1,-1.8 0,0 -8.7,-4.5 -9.6,-7.5 0,0 -0.4,2.6 -0.2,4.3 0.1,1.5 2.5,3.9 8,7.7 -3.4,-0.5 -8.1,-2.4 -9.2,-4.2 0,0 0,2.7 0.6,4.2 0.5,1.3 2.9,2.2 8.4,4.9 -2.7,1.5 -7.5,-0.2 -8.9,-1.5 0,0 0.8,2.3 1.7,3.8 0.6,0.9 2.8,2.4 8.1,1.6 -2,2.4 -5.7,4.3 -8.3,3.1 0,0 0.3,2.3 1.8,3 1.1,0.5 3.6,0.8 7.4,-2.2 -2.3,5.7 -8,4 -8,4 0,0 1.3,2.3 2.8,3.1 1.5,0.6 4.2,0 8.6,-4.8 z m 7.1,4.8 c -0.4,-1.3 -1.8,-3.3 -1.9,-3.4 0,0.1 -0.1,0.4 -0.8,1.5 -2,3.2 -3.8,3 -3.8,3 1.7,0.9 4.2,-0.3 4.2,-0.3 0,0 -0.3,0.8 -0.4,1 -0.7,1.5 0.3,3.6 0.3,3.6 -0.6,-2.8 2.4,-5.4 2.4,-5.4 z m -2,-3.4 c 0,0 0.1,0 0,0 0.1,0 0,0 0,0 z"
       id="path9" /><path
       class="eagle"
       style="fill:#7a003c"
       d="m 196.1,108.9 c -0.2,-0.9 -0.9,-0.7 -1.4,-0.4 -0.4,0.2 -0.8,0 -0.8,0 -0.3,-0.2 -0.4,-0.5 0.1,-0.8 2.3,-1.1 2.8,-2.4 2.8,-2.4 -1.1,0.1 -2,-0.2 -2,-0.2 0,0 -2.1,2.8 -3.7,2 -0.5,-0.2 -0.7,-1.1 -0.7,-1.5 0,-0.8 -0.9,-1.3 -1.4,-0.7 -0.5,0.6 0.1,1.1 0.6,1.3 0.3,0.1 0.7,0.5 0.6,0.8 -0.2,0.3 -0.4,0.2 -0.7,0.2 -0.3,0 -1.7,-0.5 -2,0.5 -0.4,1.2 1,1.7 1.7,1 0.8,-0.7 2.1,-0.7 2.5,-0.2 0.1,0.2 0.3,0.8 -0.8,1.6 -0.4,0.3 -2.3,1.5 -0.9,2.7 0.5,0.4 1.7,0.3 2,-1.5 0.2,-1.3 0.6,-1.9 1.1,-2.2 0.2,-0.1 1,-0.3 1.4,0 0.1,0.1 0.4,0.3 0.4,0.3 0.5,0.8 1.4,0.2 1.2,-0.5 z m -8,-4 c 0.1,-0.4 0.5,-0.6 0.5,-0.6 -1.7,-0.6 -1.9,0.9 -1.9,0.9 0.5,-0.9 1.4,-0.3 1.4,-0.3 z m -1.6,3.3 c -1.7,1.3 -0.2,2.8 -0.2,2.8 -0.7,-1.3 0.3,-1.7 0.3,-1.7 -0.2,-0.7 -0.1,-1.1 -0.1,-1.1 z m 2.7,5.5 c -0.6,-0.5 -0.5,-0.9 -0.5,-0.9 -1.1,1.8 0.8,2.6 0.8,2.6 -1.1,-1 -0.3,-1.7 -0.3,-1.7 z m 7.6,-4.8 -0.1,-0.1 c 0,0 0.2,0.4 -0.1,0.7 0,0 0.1,0 0.2,0.1 0.3,0.1 0.5,0.4 0.4,1.1 0,0.1 1,-1 -0.4,-1.8 z m 16.4,0 c -1.4,0.8 -0.4,1.9 -0.4,1.9 -0.1,-0.7 0.1,-1 0.4,-1.1 0.1,0 0.2,-0.1 0.2,-0.1 -0.2,-0.3 -0.1,-0.7 -0.1,-0.7 0,-0.1 -0.1,-0.1 -0.1,0 z m -1.5,2 c -1.8,-0.8 -1.7,-1.3 -1.7,-1.3 0,0 -2,0.6 -3.2,-0.1 0,0 0.3,0.9 0.9,1.8 3,4 5,2 5,2 2.4,1.1 0.8,5.8 0.8,5.8 3.7,-4.2 0.9,-7.1 -1.8,-8.2 z m 3.5,-26.7 c 0.6,4.2 -1.8,4.6 -1.8,4.6 0,0 0.1,1 0.2,2.1 0,1.3 -0.1,1.4 -0.1,2 0.1,1.2 0.3,1.3 1.4,1.8 0,0 0.4,-0.4 0.7,-0.8 0.7,-1.3 -0.5,-3.3 -0.5,-3.3 1.3,1.6 3.1,1 3.1,1 -0.1,-1.3 -1.9,-2.5 -1.9,-2.5 1.6,0.3 2.9,-0.6 2.9,-0.6 -0.5,-0.9 -2.2,-2 -2.2,-2 1.7,-0.1 2.8,-1.2 2.8,-1.2 -0.5,-0.7 -2.4,-1.6 -2.4,-1.6 0.9,-0.5 1.8,-2.1 1.8,-2.1 -1.3,-0.7 -2.8,-0.5 -2.8,-0.5 2.4,-1.7 -0.2,-6.5 -0.2,-6.5 0.4,7.1 -5.1,5.3 -4.7,8.9 0.4,2.9 3.7,0.7 3.7,0.7 z"
       id="path10" /><path
       class="eagle"
       style="fill:#7a003c"
       d="m 228.5,89.5 c 0.9,-1.4 1.7,-3.8 1.7,-3.8 -1.4,1.4 -6.2,3 -8.9,1.5 5.5,-2.7 7.9,-3.6 8.4,-4.9 0.6,-1.6 0.6,-4.2 0.6,-4.2 -1,1.8 -5.7,3.7 -9.2,4.2 5.6,-3.7 7.9,-6.2 8,-7.7 0.2,-1.7 -0.2,-4.3 -0.2,-4.3 -1,2.9 -9.6,7.5 -9.6,7.5 0,0.6 0.1,1.2 -0.1,1.8 0,0 1,0.3 2.1,1.4 0,0 -0.5,1.5 -1.1,2.3 0,0 1.3,1 1.7,1.9 0,0 -0.1,0.7 -1.5,1.8 0,0 0.4,0.4 1,1.7 0,0 -0.9,0.9 -1.9,1.4 0,0 0.5,1 0.4,2.2 0,0 -1.2,1.1 -2.5,1.1 0,0 -0.1,0.8 -0.9,1.8 -0.3,0.4 -1.4,1.3 -1.4,1.3 0,0 -1.9,-0.7 -2.4,-1.3 l -0.1,0.3 c 0,0 -0.1,0.6 -0.8,1.6 0,0 1.4,5.7 8.9,5.9 -4.3,-1.4 -4.6,-5.7 -4.6,-5.7 4.4,4.8 7.1,5.4 8.5,4.7 1.5,-0.8 2.8,-3.1 2.8,-3.1 0,0 -5.7,1.8 -8,-4 3.8,3 6.3,2.7 7.4,2.2 1.5,-0.7 1.8,-3 1.8,-3 -2.5,1.2 -6.3,-0.7 -8.3,-3.1 5.3,0.9 7.6,-0.6 8.2,-1.5 z m -17.6,9.3 c 0,0 0.1,0 0,0 0.1,0 0,0 0,0 z m 4.7,4.5 c 0,0 -1.8,0.2 -3.8,-3 -0.7,-1.2 -0.8,-1.5 -0.8,-1.5 -0.1,0.2 -1.5,2.1 -1.9,3.4 0,0 2.9,2.5 2.4,5.3 0,0 1,-2 0.3,-3.6 -0.1,-0.1 -0.4,-1 -0.4,-1 0,0 2.5,1.3 4.2,0.4 z"
       id="path11" /><path
       class="eagle"
       style="fill:#7a003c"
       d="m 220.7,107.3 c -0.2,0 -0.5,0.1 -0.7,-0.2 -0.2,-0.3 0.3,-0.7 0.6,-0.8 0.5,-0.2 1,-0.8 0.6,-1.3 -0.5,-0.6 -1.4,-0.2 -1.4,0.7 0,0.4 -0.2,1.2 -0.7,1.5 -1.6,0.7 -3.7,-2 -3.7,-2 0,0 -0.9,0.3 -2,0.2 0,0 0.5,1.3 2.8,2.4 0.5,0.3 0.4,0.6 0.1,0.8 0,0 -0.5,0.1 -0.8,0 -0.5,-0.2 -1.2,-0.4 -1.4,0.4 -0.2,0.8 0.7,1.3 1.4,0.8 0,0 0.3,-0.2 0.4,-0.3 0.4,-0.3 1.2,-0.1 1.4,0 0.5,0.2 0.9,0.9 1.1,2.2 0.3,1.7 1.6,1.9 2,1.5 1.3,-1.3 -0.6,-2.5 -0.9,-2.7 -1.1,-0.9 -1,-1.4 -0.8,-1.6 0.3,-0.5 1.6,-0.5 2.5,0.2 0.8,0.7 2.1,0.2 1.7,-1 -0.5,-1.2 -1.8,-0.7 -2.2,-0.8 z m 0.8,-3 c 0,0 0.4,0.2 0.5,0.6 0,0 0.8,-0.6 1.4,0.3 0,0 -0.1,-1.5 -1.9,-0.9 z m 2,3.9 c 0,0 0.2,0.4 -0.2,1 0,0 1,0.4 0.3,1.7 0.1,0 1.6,-1.4 -0.1,-2.7 z m -2.6,5.5 c 0,0 0.8,0.7 -0.3,1.7 0,0 1.9,-0.8 0.8,-2.6 0,0 0.1,0.4 -0.5,0.9 z m -8.8,1.8 c -4.4,0.5 -6.3,-4.1 -6.3,-4.1 -0.3,0.3 -0.5,0.3 -0.7,0.4 -0.2,-0.1 -0.5,-0.2 -0.7,-0.4 0,0 -1.9,4.6 -6.3,4.1 0,0 0.3,1 2,1.1 0,0 -3,1.4 -1.3,2.8 1.1,0.9 2,-1.6 2,-1.6 0,0 0.1,2.3 2.1,2.4 0,0 -3,-1.8 0.1,-5.9 -0.3,2.9 0.7,5.6 2.1,5.6 1.4,0 2.4,-2.7 2.1,-5.6 3.1,4.1 0.1,5.9 0.1,5.9 2,0 2.1,-2.4 2.1,-2.4 0,0 0.9,2.5 2,1.6 1.7,-1.4 -1.3,-2.8 -1.3,-2.8 1.7,-0.2 2,-1.1 2,-1.1 z M 199.2,77.1 c 0.3,0 4.3,-0.1 4.8,-0.1 -0.1,0.3 0,1.1 -0.9,1.2 h -3.3 c 0,0 -0.1,0.8 1.2,0.5 0.3,-0.1 1.1,-0.3 1.4,0.2 0.2,0.3 0.8,1.4 -1.2,1.6 0,0 2.9,0.2 3.1,-2.3 0,0 0.2,1.8 0.8,1.9 0.6,0 0.6,-1.9 0.6,-1.9 1,2.6 3.5,2.8 3.5,2.8 -2.1,-1.4 -2,-5.3 -1.9,-5.6 0.1,-1.9 1.8,-1.7 1.9,-2.9 0.2,-1.6 -1.7,-1.2 -1.7,-1.2 0,0 0.8,0 1,0.4 0.3,0.9 -1.2,1 -1.2,1 -1.9,0.5 -2.5,-0.6 -3.2,-0.8 -0.7,-0.1 -0.8,0.3 -1,0.5 -0.1,0.2 -3.1,0.3 -3.7,1 -0.7,0.7 -0.6,1.6 -0.1,2.1 0,0 0.3,-1 1.4,-1.1 1.1,0 2.9,1.4 3.3,2.2 -0.5,0 -4.6,0.3 -5.2,-0.1 -0.3,-0.3 -0.7,-0.8 -0.7,-1.1 0,0 -0.2,1.1 0.3,1.4 0.4,0.4 0.5,0.3 0.8,0.3 z m 4.5,-2.5 c -0.3,0 -0.5,-0.2 -0.5,-0.5 0,-0.1 0,-0.2 0.1,-0.2 l -1.3,0.1 2.3,-0.9 h 0.1 v 0.1 l 0.1,0.5 v 0.1 H 204 c 0.1,0.1 0.1,0.2 0.1,0.3 0.1,0.2 -0.1,0.5 -0.4,0.5 z m 5.1,7.9 c -0.7,-0.1 -2.2,-0.4 -2.7,-1 0,0 -0.3,0.5 -1.1,0.7 -0.7,-0.2 -1,-0.7 -1,-0.7 -0.6,0.6 -1.9,1 -2.7,1.1 -1.7,4.5 -5.5,7.3 -2,13.5 3.6,6.4 6.2,7.3 1.2,11.7 0,0 3.2,0.9 4,-1.9 0,0 -0.1,3 0.6,3.8 0.8,-0.8 0.6,-3.9 0.6,-3.9 0.7,2.8 4,1.9 4,1.9 -5,-4.4 -2.4,-5.3 1.2,-11.7 3.4,-6.2 -0.4,-9 -2.1,-13.5 z m 1,9.3 c 0,0.1 -0.1,0.2 -0.2,0.4 -0.5,0.8 -1.4,0.9 -2.1,0.6 -0.4,-0.1 -0.5,-0.2 -0.6,-0.3 l -0.2,-0.2 v 2.1 l 0.2,-0.2 0.3,0.4 c 0.1,0.1 0.2,0.3 0.3,0.6 0.2,0.6 0.1,1.5 -0.6,2.1 -0.1,0.1 -0.2,0.1 -0.4,0.2 -0.1,0.4 -0.4,0.9 -1.2,1.3 l -0.2,0.1 -0.2,-0.1 c -0.8,-0.4 -1.1,-0.9 -1.2,-1.3 -0.1,0 -0.2,-0.1 -0.4,-0.2 -0.8,-0.5 -0.9,-1.4 -0.6,-2.1 0.1,-0.4 0.2,-0.5 0.3,-0.6 l 0.3,-0.4 0.2,0.2 v -2.1 l -0.2,0.2 c -0.1,0.1 -0.3,0.2 -0.6,0.3 -0.6,0.2 -1.5,0.1 -2.1,-0.6 -0.1,-0.1 -0.1,-0.2 -0.2,-0.4 -0.4,-0.1 -0.9,-0.4 -1.3,-1.2 l -0.1,-0.2 0.1,-0.2 c 0.4,-0.8 0.9,-1.1 1.3,-1.2 0,-0.1 0.1,-0.2 0.2,-0.4 0.5,-0.8 1.4,-0.9 2.1,-0.6 0.2,0.1 0.4,0.2 0.5,0.2 L 203,88 c -0.1,-0.1 -0.2,-0.3 -0.3,-0.6 -0.2,-0.6 -0.1,-1.5 0.6,-2.1 0.1,-0.1 0.2,-0.1 0.4,-0.2 0.1,-0.4 0.4,-0.9 1.2,-1.3 l 0.2,-0.1 0.2,0.1 c 0.8,0.4 1.1,0.9 1.2,1.3 0.1,0 0.2,0.1 0.4,0.2 0.8,0.5 0.9,1.4 0.6,2.1 -0.1,0.4 -0.2,0.5 -0.3,0.6 l -0.1,0.2 c 0.1,-0.1 0.2,-0.1 0.5,-0.2 0.6,-0.2 1.5,-0.1 2.1,0.6 0.1,0.1 0.1,0.2 0.2,0.4 0.4,0.1 0.9,0.4 1.3,1.2 l 0.1,0.2 -0.1,0.2 c -0.5,0.8 -1,1.1 -1.4,1.2 z"
       id="path12" /><path
       class="eagle"
       style="fill:#7a003c"
       d="m 208.7,89.8 c 0.1,-0.2 0.1,-0.4 -0.1,-0.7 -0.3,-0.4 -0.7,-0.3 -0.8,-0.3 h -0.1 l 0.1,0.1 c 0,0 0.1,0.1 0.1,0.2 0,0.1 0,0.3 -0.3,0.5 -0.1,0.1 -0.5,0.1 -0.6,0.1 h -1.5 v -2.2 c 0,-0.1 0,-0.5 0.1,-0.6 0.2,-0.2 0.4,-0.3 0.5,-0.3 0.1,0 0.2,0.1 0.2,0.1 l 0.1,0.1 v -0.1 c 0.1,-0.2 0.1,-0.6 -0.3,-0.8 -0.3,-0.2 -0.5,-0.1 -0.7,-0.1 0.2,-0.6 -0.5,-1.1 -0.5,-1.1 0,0 -0.6,0.5 -0.5,1.1 -0.2,-0.1 -0.4,-0.1 -0.7,0.1 -0.4,0.3 -0.3,0.7 -0.3,0.8 v 0.1 l 0.1,-0.1 c 0,0 0.1,-0.1 0.2,-0.1 0.1,0 0.3,0 0.5,0.3 0.1,0.1 0.1,0.4 0.1,0.6 v 2.2 h -1.6 c -0.1,0 -0.5,0 -0.6,-0.1 -0.2,-0.2 -0.3,-0.4 -0.2,-0.5 0,-0.1 0.1,-0.2 0.1,-0.2 l 0.1,-0.1 H 202 c -0.2,-0.1 -0.6,-0.1 -0.8,0.3 -0.2,0.3 -0.1,0.5 -0.1,0.7 -0.6,-0.2 -1.1,0.5 -1.1,0.5 0,0 0.5,0.6 1.1,0.5 -0.1,0.2 -0.1,0.4 0.1,0.7 0.3,0.4 0.7,0.3 0.8,0.3 h 0.1 L 202,91.7 c 0,0 -0.1,-0.1 -0.1,-0.2 0,-0.1 0,-0.3 0.2,-0.5 0.1,-0.1 0.4,-0.1 0.6,-0.1 h 1.6 v 4 c 0,0.1 0,0.4 -0.1,0.6 -0.2,0.2 -0.4,0.3 -0.5,0.3 -0.1,0 -0.2,-0.1 -0.2,-0.1 l -0.1,-0.1 v 0.1 c -0.1,0.2 -0.1,0.6 0.3,0.8 0.3,0.2 0.5,0.1 0.7,0.1 -0.2,0.6 0.5,1.1 0.5,1.1 0,0 0.6,-0.5 0.5,-1.1 0.2,0.1 0.4,0.1 0.7,-0.1 0.4,-0.3 0.3,-0.7 0.3,-0.8 v -0.1 l -0.1,0.1 c 0,0 -0.1,0.1 -0.2,0.1 -0.1,0 -0.3,0 -0.5,-0.3 -0.1,-0.1 -0.1,-0.5 -0.1,-0.6 v -4 h 1.5 c 0.1,0 0.4,0 0.6,0.1 0.2,0.2 0.3,0.4 0.3,0.5 0,0.1 -0.1,0.2 -0.1,0.2 l -0.1,0.1 h 0.1 c 0.2,0.1 0.6,0.1 0.8,-0.3 0.2,-0.3 0.1,-0.5 0.1,-0.7 0.6,0.2 1.1,-0.5 1.1,-0.5 0,0 -0.4,-0.6 -1.1,-0.5 z"
       id="path13" /></g><path
     class="shieldheader"
     style="fill:#5e6a71"
     d="m 176.5,52.5 v 16.1 h 56.4 V 52.5 Z m 12.1,10.9 -2.5,-0.2 c 0,0 -0.2,0.8 -0.2,1.8 0,0.7 0.4,0.9 0.6,1 h -1.7 c 0.2,-0.1 0.6,-0.3 0.6,-1 0.1,-1 -0.2,-1.8 -0.2,-1.8 l -2.5,0.2 0.5,-0.8 -2.6,-2.4 0.7,-0.2 -0.4,-1.7 1.6,0.3 0.3,-0.8 1.1,1.3 -0.3,-3 0.9,0.8 1.1,-2.1 1.1,2.1 0.9,-0.8 -0.3,3 1.1,-1.3 0.3,0.8 1.6,-0.3 -0.4,1.7 0.7,0.2 -2.6,2.4 z m 26.1,2.9 h -8.1 c 0,0 -0.6,-1.3 -1.8,-1.3 -1.2,0 -1.8,1.3 -1.8,1.3 h -8 V 57 h 1.6 v -1.4 h 1.2 c 0,0 1.8,0.1 2.7,-0.3 0.9,-0.4 3.3,-1.2 4.4,0.4 1.1,-1.6 3.4,-0.8 4.4,-0.4 0.9,0.4 2.7,0.3 2.7,0.3 h 1.2 V 57 h 1.6 v 9.3 z m 11.8,-2.9 -2.5,-0.2 c 0,0 -0.3,0.8 -0.2,1.8 0,0.7 0.4,0.9 0.6,1 h -1.7 c 0.2,-0.1 0.6,-0.3 0.6,-1 0,-1 -0.2,-1.8 -0.2,-1.8 l -2.5,0.2 0.5,-0.8 -2.6,-2.4 0.7,-0.2 -0.4,-1.7 1.6,0.3 0.3,-0.8 1.1,1.3 -0.3,-3 0.9,0.8 1.1,-2.1 1.1,2.1 0.9,-0.8 -0.3,3 1.1,-1.3 0.3,0.8 1.6,-0.3 -0.4,1.7 0.7,0.2 -2.6,2.4 z"
     id="bookspinetop" /><path
     class="bookbg"
     style="fill:#7a003c"
     d="m 213.8,57 h -0.7 v 7.9 h -3 c -1,-0.1 -4.1,-2 -5.2,-0.8 -1.1,-1.2 -4.2,0.7 -5.2,0.8 -0.5,0.1 -3,0 -3,0 V 57 H 195 v 9.3 h 8.1 c 0,0 0.6,-1.3 1.8,-1.3 1.2,0 1.8,1.3 1.8,1.3 h 8.1 V 57 Z"
     id="bookbgtop" /><g
     id="bookoutlinetop"><path
       class="bookoutline"
       style="fill:#fdbf57"
       d="m 211.9,55.6 c 0,0 -1.8,0.1 -2.7,-0.3 -0.8,-0.3 -2.6,-0.9 -3.8,-0.2 v 1.2 l 0.1,-0.1 c 0.7,-1 2.2,-0.6 3.4,-0.1 1,0.4 2.8,0.4 3,0.3 h 0.4 v 7.7 h -2.1 c -0.2,0 -0.7,-0.2 -1.1,-0.4 H 209 c -1.1,-0.4 -2.4,-0.9 -3.6,-0.8 v 0.9 c 1.4,-0.4 3.8,1 4.7,1.1 0.5,0.1 3,0 3,0 v -9.3 z m -11.3,8.1 c -0.4,0.2 -0.9,0.4 -1.1,0.4 h -2.1 v -7.7 h 0.4 c 0.1,0 1.9,0.1 3,-0.3 1.2,-0.5 2.7,-0.8 3.4,0.1 0,0 0,0.1 0.1,0.1 v -1.2 c -1.2,-0.8 -3,-0.2 -3.8,0.2 -0.9,0.4 -2.7,0.3 -2.7,0.3 h -1.2 v 9.3 h 3 c 0.9,-0.1 3.3,-1.5 4.6,-1.1 V 63 c -1.1,-0.3 -2.5,0.3 -3.6,0.7 z"
       id="path14" /></g><path
     class="bookspine"
     style="fill:#7a003c"
     d="m 205.4,57 v -1.9 c -0.2,0.1 -0.4,0.3 -0.6,0.6 -0.2,-0.3 -0.4,-0.4 -0.6,-0.6 v 8.6 l 0.6,0.3 c 0.2,-0.2 0.4,-0.3 0.6,-0.3 z"
     id="bookspine_1_top" /><g
     id="bookstop"><path
       class="books"
       style="fill:#fdbf57"
       d="m 200.8,56 c -1.1,0.4 -2.9,0.4 -3,0.3 h -0.4 v 7.8 h 2.1 c 0.2,0 0.7,-0.2 1.1,-0.4 1.1,-0.4 2.5,-0.9 3.6,-0.8 v -6.6 c 0,-0.1 -0.1,-0.1 -0.1,-0.1 -0.6,-1 -2.1,-0.6 -3.3,-0.2 z m 11.1,0.4 c -0.2,0 -2,0.1 -3,-0.3 -1.2,-0.5 -2.7,-0.8 -3.4,0.1 l -0.1,0.1 v 6.6 c 1.1,-0.2 2.5,0.3 3.6,0.8 h 0.1 c 0.4,0.2 0.9,0.4 1.1,0.4 h 2.1 v -7.7 z"
       id="path15" /></g><g
     id="leavestop"><g
       id="leafstop"><path
         class="leaves"
         style="fill:#fdbf57"
         d="m 189.9,60 0.4,-1.7 -1.6,0.3 -0.3,-0.8 -1.1,1.3 0.3,-3 -0.9,0.8 -1.1,-2.1 -1.1,2.1 -0.9,-0.8 0.3,3 -1.1,-1.3 -0.3,0.8 -1.6,-0.3 0.4,1.7 -0.7,0.2 2.6,2.4 -0.5,0.8 2.5,-0.2 c 0,0 0.3,0.8 0.2,1.8 0,0.7 -0.4,0.9 -0.6,1 h 1.7 c -0.2,-0.1 -0.6,-0.3 -0.6,-1 0,-1 0.2,-1.8 0.2,-1.8 l 2.5,0.2 -0.5,-0.8 2.6,-2.4 z m 36.6,3.4 -0.5,-0.8 2.6,-2.4 -0.7,-0.2 0.4,-1.7 -1.6,0.3 -0.3,-0.8 -1.1,1.3 0.3,-3 -0.9,0.8 -1.1,-2.1 -1.1,2.1 -0.9,-0.8 0.3,3 -1.1,-1.3 -0.3,0.8 -1.6,-0.3 0.4,1.7 -0.7,0.2 2.6,2.4 -0.5,0.8 2.5,-0.2 c 0,0 0.2,0.8 0.2,1.8 0,0.7 -0.4,0.9 -0.6,1 h 1.7 c -0.2,-0.1 -0.6,-0.3 -0.6,-1 -0.1,-1 0.2,-1.8 0.2,-1.8 z"
         id="path16" /></g></g><style
     type="text/css"
     id="style1">&#10;	.st0{fill:#495965;}&#10;	.st1{clip-path:url(#SVGID_2_);fill:none;stroke:#D2D6D8;stroke-width:0.814;}&#10;	.st2{clip-path:url(#SVGID_2_);fill:none;stroke:#A8AFB4;stroke-width:0.814;}&#10;	.st3{clip-path:url(#SVGID_2_);fill:none;stroke:#818A92;stroke-width:0.814;}&#10;	.st4{clip-path:url(#SVGID_2_);fill:none;stroke:#5B6670;stroke-width:0.814;}&#10;	.st5{clip-path:url(#SVGID_2_);fill:none;stroke:#7A003C;stroke-width:0.814;}&#10;</style><g
     id="g1"
     transform="matrix(1.7515758,0,0,1.7515758,0,132.35986)" /></svg>
