<?xml version="1.0" encoding="utf-8"?>
<!-- Generator: Adobe Illustrator 25.2.1, SVG Export Plug-In . SVG Version: 6.00 Build 0)  -->
<svg version="1.1" id="Layer_1" xmlns="http://www.w3.org/2000/svg" xmlns:xlink="http://www.w3.org/1999/xlink" x="0px" y="0px"
	 viewBox="0 0 134.85 28.15" style="enable-background:new 0 0 134.85 28.15;" xml:space="preserve">
<style type="text/css">
	.st0{fill:#495965;}
	.st1{clip-path:url(#SVGID_2_);fill:none;stroke:#D2D6D8;stroke-width:0.814;}
	.st2{clip-path:url(#SVGID_2_);fill:none;stroke:#A8AFB4;stroke-width:0.814;}
	.st3{clip-path:url(#SVGID_2_);fill:none;stroke:#818A92;stroke-width:0.814;}
	.st4{clip-path:url(#SVGID_2_);fill:none;stroke:#5B6670;stroke-width:0.814;}
	.st5{clip-path:url(#SVGID_2_);fill:none;stroke:#7A003C;stroke-width:0.814;}
</style>
<g>
	<path class="st0" d="M48.51,11.58h-1.19V2.27h1.19V11.58z"/>
	<path class="st0" d="M53.73,11.58V7.06c0-0.7-0.25-1.26-1.15-1.26c-1.16,0-1.33,1.03-1.33,1.92v3.86H50.2V6.42
		c0-0.45-0.03-0.9-0.06-1.35h1.12V5.9h0.05c0.41-0.74,0.9-0.97,1.74-0.97c1.39,0,1.74,0.84,1.74,2.13v4.51H53.73z"/>
	<path class="st0" d="M58.17,11.71c-1.41,0-2.28-0.62-2.24-2.11h1.2c0,0.37,0.01,1.25,1.08,1.25c0.63,0,1.12-0.32,1.12-0.99
		c0-1.16-3.25-1.19-3.25-3.13c0-0.68,0.41-1.78,2.24-1.78c1.16,0,2.15,0.55,2.06,1.84h-1.17c0.01-0.68-0.35-1.04-1.02-1.04
		c-0.57,0-1.01,0.31-1.01,0.88c0,1.15,3.25,1.12,3.25,3.11C60.44,11.15,59.46,11.71,58.17,11.71z"/>
	<path class="st0" d="M62.09,5.06V3.81l1.06-0.48v1.73h1.42v0.8h-1.42v3.98c0,0.41,0,0.94,0.97,0.94c0.08,0,0.24-0.03,0.48-0.05
		v0.81c-0.35,0.03-0.7,0.1-1.04,0.1c-1.01,0-1.46-0.41-1.46-1.16V5.86h-1.07v-0.8H62.09z"/>
	<path class="st0" d="M65.36,2.27h1.19V3.4h-1.19V2.27z M66.48,11.58h-1.06V5.06h1.06V11.58z"/>
	<path class="st0" d="M68.35,5.06V3.81l1.06-0.48v1.73h1.42v0.8h-1.42v3.98c0,0.41,0,0.94,0.97,0.94c0.08,0,0.24-0.03,0.48-0.05
		v0.81c-0.35,0.03-0.7,0.1-1.04,0.1c-1.01,0-1.46-0.41-1.46-1.16V5.86h-1.07v-0.8H68.35z"/>
	<path class="st0" d="M75.13,5.06h1.06v5.16c0,0.45,0.03,0.9,0.06,1.35h-1.12v-0.79h-0.04c-0.35,0.59-0.97,0.92-1.65,0.92
		c-1.13,0-1.75-0.57-1.75-1.68V5.06h1.06v4.51c0,0.79,0.36,1.31,1.11,1.31c0.57,0,1.28-0.42,1.28-1.51V5.06z"/>
	<path class="st0" d="M78.11,5.06V3.81l1.06-0.48v1.73h1.42v0.8h-1.42v3.98c0,0.41,0,0.94,0.97,0.94c0.08,0,0.24-0.03,0.48-0.05
		v0.81c-0.35,0.03-0.7,0.1-1.04,0.1c-1.01,0-1.46-0.41-1.46-1.16V5.86h-1.07v-0.8H78.11z"/>
	<path class="st0" d="M82.37,8.66c0,1.82,0.49,2.18,1.32,2.18c0.72,0,1.1-0.58,1.13-1.24h1.16c-0.01,1.44-0.9,2.1-2.27,2.1
		c-1.38,0-2.48-0.41-2.48-3.29c0-1.91,0.22-3.48,2.48-3.48c1.86,0,2.32,1.02,2.32,3.17v0.55H82.37z M84.91,7.86
		c0-1.9-0.53-2.13-1.3-2.13c-0.67,0-1.23,0.32-1.24,2.13H84.91z"/>
	<path class="st0" d="M90.09,5.06V3.8c0-1.32,0.93-1.57,1.87-1.57c0.22,0,0.35,0.01,0.5,0.04v0.76c-1.12-0.08-1.31,0.4-1.31,0.93
		v1.11h1.31v0.8h-1.31v5.71h-1.06V5.86h-1.01v-0.8H90.09z"/>
	<path class="st0" d="M93.07,8.42c0-1.91,0.22-3.48,2.48-3.48c2.26,0,2.48,1.57,2.48,3.48c0,2.88-1.1,3.29-2.48,3.29
		C94.16,11.71,93.07,11.29,93.07,8.42z M96.91,7.97c0-1.78-0.55-2.17-1.37-2.17c-0.81,0-1.37,0.39-1.37,2.17
		c0,2.11,0.27,2.88,1.37,2.88C96.64,10.84,96.91,10.08,96.91,7.97z"/>
	<path class="st0" d="M100.37,6.05h0.03c0.44-0.99,0.98-1.11,2.01-1.11v1.1c-0.09-0.01-0.19-0.03-0.28-0.04
		c-0.09-0.01-0.18-0.03-0.28-0.03c-1.17,0-1.47,0.89-1.47,1.77v3.84h-1.06V5.06h1.06V6.05z"/>
</g>
<g>
	<path class="st0" d="M48.29,26.08h-1.11v-9.31h1.92l2.35,7.81h0.03l2.37-7.81h1.96v9.31h-1.19V17.8h-0.03l-2.6,8.28h-1.12
		l-2.55-8.28h-0.03V26.08z"/>
	<path class="st0" d="M60.89,19.56h1.06v5.16c0,0.45,0.03,0.9,0.06,1.35h-1.12v-0.79h-0.04c-0.35,0.59-0.97,0.92-1.65,0.92
		c-1.13,0-1.75-0.57-1.75-1.68v-4.96h1.06v4.51c0,0.79,0.36,1.31,1.11,1.31c0.57,0,1.28-0.42,1.28-1.51V19.56z"/>
	<path class="st0" d="M65.36,26.21c-1.41,0-2.28-0.62-2.24-2.11h1.2c0,0.37,0.01,1.25,1.08,1.25c0.63,0,1.12-0.32,1.12-0.99
		c0-1.16-3.25-1.19-3.25-3.13c0-0.68,0.41-1.78,2.24-1.78c1.16,0,2.15,0.55,2.06,1.84H66.4c0.01-0.68-0.35-1.04-1.02-1.04
		c-0.57,0-1.01,0.31-1.01,0.88c0,1.15,3.25,1.12,3.25,3.11C67.62,25.65,66.65,26.21,65.36,26.21z"/>
	<path class="st0" d="M68.71,16.77h1.19v1.13h-1.19V16.77z M69.83,26.08h-1.06v-6.51h1.06V26.08z"/>
	<path class="st0" d="M74.57,21.65c0.03-1.07-0.5-1.35-0.9-1.35c-0.81,0-1.37,0.39-1.37,2.17c0,2.11,0.27,2.88,1.37,2.88
		c0.25,0,0.98-0.26,0.94-1.43h1.11c0.04,1.83-1.33,2.29-2.05,2.29c-1.38,0-2.48-0.41-2.48-3.29c0-1.91,0.22-3.48,2.48-3.48
		c1.3,0,2.06,0.76,2,2.22H74.57z"/>
	<path class="st0" d="M85.14,25.12c-0.71,0.86-1.5,1.15-2.59,1.15c-1.68,0-3.06-0.86-3.06-2.67c0-1.53,0.88-2.1,2.06-2.84
		c-0.54-0.62-1.22-1.48-1.22-2.35c0-1.35,1.13-1.84,2.29-1.84c1.19,0,2.18,0.57,2.18,1.88c0,0.98-0.81,1.84-1.56,2.48l1.82,2.31
		c0.18-0.61,0.18-1.25,0.18-2.64h1.06c0,2-0.21,2.86-0.57,3.48l1.5,2h-1.34L85.14,25.12z M82.22,21.45
		c-0.81,0.55-1.51,1.04-1.51,2.13c0,1,0.8,1.7,1.91,1.7c0.84,0,1.42-0.24,1.9-0.93L82.22,21.45z M83.59,18.52
		c0-0.64-0.39-1.04-1.02-1.04c-0.59,0-1.03,0.42-1.03,1.04c0,0.64,0.67,1.19,1.02,1.68C83,19.81,83.59,19.24,83.59,18.52z"/>
	<path class="st0" d="M95.78,16.77v1.03h-2.45v8.28h-1.19V17.8H89.7v-1.03H95.78z"/>
	<path class="st0" d="M100.38,26.08v-4.41c0-0.8-0.26-1.37-1.16-1.37c-1.06,0-1.33,0.85-1.33,1.95v3.83h-1.06v-9.31h1.06v3.64h0.05
		c0.42-0.76,0.92-0.97,1.77-0.97c1.11,0,1.73,0.55,1.73,2.02v4.62H100.38z"/>
	<path class="st0" d="M103.89,23.16c0,1.82,0.49,2.18,1.32,2.18c0.72,0,1.1-0.58,1.13-1.24h1.16c-0.01,1.44-0.9,2.1-2.27,2.1
		c-1.38,0-2.48-0.41-2.48-3.29c0-1.91,0.22-3.48,2.48-3.48c1.86,0,2.32,1.02,2.32,3.17v0.55H103.89z M106.43,22.36
		c0-1.9-0.53-2.13-1.3-2.13c-0.67,0-1.23,0.32-1.24,2.13H106.43z"/>
	<path class="st0" d="M112.65,26.08h-1.11v-9.31h1.92l2.35,7.81h0.03l2.37-7.81h1.96v9.31h-1.19V17.8h-0.03l-2.6,8.28h-1.12
		l-2.55-8.28h-0.03V26.08z"/>
	<path class="st0" d="M121.72,16.77h1.19v1.13h-1.19V16.77z M122.84,26.08h-1.06v-6.51h1.06V26.08z"/>
	<path class="st0" d="M127.82,26.08v-4.51c0-0.7-0.25-1.26-1.15-1.26c-1.16,0-1.33,1.03-1.33,1.92v3.86h-1.06v-5.16
		c0-0.45-0.03-0.9-0.06-1.35h1.12v0.84h0.05c0.41-0.74,0.9-0.97,1.74-0.97c1.39,0,1.74,0.84,1.74,2.13v4.51H127.82z"/>
	<path class="st0" d="M133.79,16.77h1.06v9.31h-1.06V25.3h-0.03c-0.36,0.61-0.81,0.9-1.5,0.9c-1.04,0-2.1-0.41-2.1-3.28
		c0-1.62,0.05-3.49,2.15-3.49c0.62,0,1.07,0.27,1.43,0.79h0.04V16.77z M132.56,20.3c-1.13,0-1.29,0.9-1.29,2.64
		c0,0.98,0,2.4,1.33,2.4c1.19,0,1.19-1.47,1.19-2.78C133.79,21.69,133.74,20.3,132.56,20.3z"/>
</g>
<g>
	<defs>
		<rect id="SVGID_1_" width="41.12" height="28.15"/>
	</defs>
	<clipPath id="SVGID_2_">
		<use xlink:href="#SVGID_1_"  style="overflow:visible;"/>
	</clipPath>
	<path class="st1" d="M20.57,16.92h-0.05C10.97,16.92,13.32,3.26,0,3.26"/>
	<path class="st2" d="M20.57,19.62h-0.05C10.97,19.62,13.32,5.97,0,5.97"/>
	<path class="st3" d="M20.57,22.33h-0.05C10.97,22.33,13.32,8.67,0,8.67"/>
	<path class="st4" d="M20.57,25.04h-0.05c-9.56,0-7.21-13.66-20.52-13.66"/>
	<path class="st5" d="M20.57,27.75h-0.05c-9.56,0-7.21-13.66-20.52-13.66"/>
	<path class="st1" d="M41.12,24.89c-13.32,0-10.97-13.66-20.52-13.66h-0.04c-9.56,0-7.21,13.66-20.52,13.66"/>
	<path class="st2" d="M41.12,22.19c-13.32,0-10.97-13.66-20.52-13.66h-0.04c-9.56,0-7.21,13.66-20.52,13.66"/>
	<path class="st3" d="M41.12,19.48c-13.32,0-10.97-13.66-20.52-13.66h-0.04c-9.56,0-7.21,13.66-20.52,13.66"/>
	<path class="st4" d="M41.12,16.77c-13.32,0-10.97-13.66-20.52-13.66h-0.04c-9.56,0-7.21,13.66-20.52,13.66"/>
	<path class="st5" d="M41.12,14.07c-13.32,0-10.97-13.66-20.52-13.66h-0.04c-9.56,0-7.21,13.66-20.52,13.66"/>
	<path class="st1" d="M41.09,3.26c-13.32,0-10.97,13.66-20.52,13.66h-0.04"/>
	<path class="st2" d="M41.09,5.97c-13.32,0-10.97,13.66-20.52,13.66h-0.04"/>
	<path class="st3" d="M41.09,8.67c-13.32,0-10.97,13.66-20.52,13.66h-0.04"/>
	<path class="st4" d="M41.09,11.38c-13.32,0-10.97,13.66-20.52,13.66h-0.04"/>
	<path class="st5" d="M41.09,14.09c-13.32,0-10.97,13.66-20.52,13.66h-0.04"/>
</g>
</svg>
