<svg class="main-svg" xmlns="http://www.w3.org/2000/svg" xmlns:xlink="http://www.w3.org/1999/xlink" width="700" height="500" style="" viewBox="0 0 700 500"><rect x="0" y="0" width="700" height="500" style="fill: rgb(255, 255, 255); fill-opacity: 1;"/><defs id="defs-cfc088"><g class="clips"/><g class="gradients"><linearGradient x1="0" x2="0" y1="1" y2="0" id="gcfc088-cbcoloraxis"><stop offset="0%" stop-color="rgb(13, 8, 135)" stop-opacity="1"/><stop offset="11.111111%" stop-color="rgb(70, 3, 159)" stop-opacity="1"/><stop offset="22.222222%" stop-color="rgb(114, 1, 168)" stop-opacity="1"/><stop offset="33.333333%" stop-color="rgb(156, 23, 158)" stop-opacity="1"/><stop offset="44.444444%" stop-color="rgb(189, 55, 134)" stop-opacity="1"/><stop offset="55.555556%" stop-color="rgb(216, 87, 107)" stop-opacity="1"/><stop offset="66.666667%" stop-color="rgb(237, 121, 83)" stop-opacity="1"/><stop offset="77.777778%" stop-color="rgb(251, 159, 58)" stop-opacity="1"/><stop offset="88.888889%" stop-color="rgb(253, 202, 38)" stop-opacity="1"/><stop offset="100%" stop-color="rgb(240, 249, 33)" stop-opacity="1"/></linearGradient></g><g class="patterns"/></defs><g class="bglayer"/><g class="layer-below"><g class="imagelayer"/><g class="shapelayer"/></g><g class="cartesianlayer"/><g class="polarlayer"/><g class="smithlayer"/><g class="ternarylayer"/><g class="geolayer"/><g class="funnelarealayer"/><g class="pielayer"/><g class="iciclelayer"/><g class="treemaplayer"/><g class="sunburstlayer"><g class="trace sunburst" stroke-linejoin="round" style="opacity: 1;"><g class="slice cursor-pointer"><path class="surface" d="M338.5,240L428.5,240A90,90 0,0,0 411.3115294937453,187.09932729367742L338.5,240A0,0 0,0,1 338.5,240Z" style="pointer-events: none; stroke-width: 1; fill: rgb(29, 7, 142); fill-opacity: 1; stroke: rgb(255, 255, 255); stroke-opacity: 1;"/><g class="slicetext"><text data-notex="1" class="slicetext" text-anchor="middle" x="0" y="0" style="font-family: 'Open Sans', verdana, arial, sans-serif; font-size: 12px; fill: rgb(255, 255, 255); fill-opacity: 1; white-space: pre;" transform="translate(403.8888275204825,223.50388202501892)">Blues</text></g></g><g class="slice cursor-pointer"><path class="surface" d="M338.5,240L411.3115294937453,187.09932729367742A90,90 0,0,0 366.3115294937453,154.40491353343617L338.5,240A0,0 0,0,1 338.5,240Z" style="pointer-events: none; stroke-width: 1; fill: rgb(101, 2, 165); fill-opacity: 1; stroke: rgb(255, 255, 255); stroke-opacity: 1;"/><g class="slicetext"><text data-notex="1" class="slicetext" text-anchor="middle" x="0" y="0" style="font-family: 'Open Sans', verdana, arial, sans-serif; font-size: 12px; fill: rgb(255, 255, 255); fill-opacity: 1; white-space: pre;" transform="translate(376.63101139569346,195.59834798503158)rotate(-54)">Classical</text></g></g><g class="slice cursor-pointer"><path class="surface" d="M338.5,240L366.3115294937453,154.40491353343617A90,90 0,0,0 310.68847050625476,154.40491353343617L338.5,240A0,0 0,0,1 338.5,240Z" style="pointer-events: none; stroke-width: 1; fill: rgb(22, 7, 139); fill-opacity: 1; stroke: rgb(255, 255, 255); stroke-opacity: 1;"/><g class="slicetext"><text data-notex="1" class="slicetext" text-anchor="middle" x="0" y="0" style="font-family: 'Open Sans', verdana, arial, sans-serif; font-size: 12px; fill: rgb(255, 255, 255); fill-opacity: 1; white-space: pre;" transform="translate(343.25,180.99476261702083)rotate(-90)">Country</text></g></g><g class="slice cursor-pointer"><path class="surface" d="M338.5,240L310.68847050625476,154.40491353343617A90,90 0,0,0 265.68847050625476,187.0993272936774L338.5,240A0,0 0,0,1 338.5,240Z" style="pointer-events: none; stroke-width: 1; fill: rgb(246, 147, 66); fill-opacity: 1; stroke: rgb(255, 255, 255); stroke-opacity: 1;"/><g class="slicetext"><text data-notex="1" class="slicetext" text-anchor="middle" x="0" y="0" style="font-family: 'Open Sans', verdana, arial, sans-serif; font-size: 12px; fill: rgb(68, 68, 68); fill-opacity: 1; white-space: pre;" transform="translate(301.0436963996659,196.5270035961652)rotate(54)">Electronic</text></g></g><g class="slice cursor-pointer"><path class="surface" d="M338.5,240L265.68847050625476,187.0993272936774A90,90 0,0,0 248.5,240L338.5,240A0,0 0,0,1 338.5,240Z" style="pointer-events: none; stroke-width: 1; fill: rgb(85, 2, 162); fill-opacity: 1; stroke: rgb(255, 255, 255); stroke-opacity: 1;"/><g class="slicetext"><text data-notex="1" class="slicetext" text-anchor="middle" x="0" y="0" style="font-family: 'Open Sans', verdana, arial, sans-serif; font-size: 12px; fill: rgb(255, 255, 255); fill-opacity: 1; white-space: pre;" transform="translate(273.1111724795175,223.50388202501892)">Folk</text></g></g><g class="slice cursor-pointer"><path class="surface" d="M338.5,240L248.5,240A90,90 0,0,0 265.6884705062547,292.90067270632255L338.5,240A0,0 0,0,1 338.5,240Z" style="pointer-events: none; stroke-width: 1; fill: rgb(66, 3, 157); fill-opacity: 1; stroke: rgb(255, 255, 255); stroke-opacity: 1;"/><g class="slicetext"><text data-notex="1" class="slicetext" text-anchor="middle" x="0" y="0" style="font-family: 'Open Sans', verdana, arial, sans-serif; font-size: 12px; fill: rgb(255, 255, 255); fill-opacity: 1; white-space: pre;" transform="translate(284.07197610744714,262.6791825548574)rotate(-18)">Hip-Hop</text></g></g><g class="slice cursor-pointer"><path class="surface" d="M338.5,240L265.6884705062547,292.90067270632255A90,90 0,0,0 310.6884705062547,325.5950864665638L338.5,240A0,0 0,0,1 338.5,240Z" style="pointer-events: none; stroke-width: 1; fill: rgb(149, 19, 160); fill-opacity: 1; stroke: rgb(255, 255, 255); stroke-opacity: 1;"/><g class="slicetext"><text data-notex="1" class="slicetext" text-anchor="middle" x="0" y="0" style="font-family: 'Open Sans', verdana, arial, sans-serif; font-size: 12px; fill: rgb(255, 255, 255); fill-opacity: 1; white-space: pre;" transform="translate(298.08748210783733,300.37305898749054)">Jazz</text></g></g><g class="slice cursor-pointer"><path class="surface" d="M338.5,240L310.6884705062547,325.5950864665638A90,90 0,0,0 366.31152949374524,325.5950864665638L338.5,240A0,0 0,0,1 338.5,240Z" style="pointer-events: none; stroke-width: 1; fill: rgb(64, 4, 157); fill-opacity: 1; stroke: rgb(255, 255, 255); stroke-opacity: 1;"/><g class="slicetext"><text data-notex="1" class="slicetext" text-anchor="middle" x="0" y="0" style="font-family: 'Open Sans', verdana, arial, sans-serif; font-size: 12px; fill: rgb(255, 255, 255); fill-opacity: 1; white-space: pre;" transform="translate(338.5,313.5038820250189)">Pop</text></g></g><g class="slice cursor-pointer"><path class="surface" d="M338.5,240L366.31152949374524,325.5950864665638A90,90 0,0,0 411.31152949374524,292.9006727063226L338.5,240A0,0 0,0,1 338.5,240Z" style="pointer-events: none; stroke-width: 1; fill: rgb(90, 2, 163); fill-opacity: 1; stroke: rgb(255, 255, 255); stroke-opacity: 1;"/><g class="slicetext"><text data-notex="1" class="slicetext" text-anchor="middle" x="0" y="0" style="font-family: 'Open Sans', verdana, arial, sans-serif; font-size: 12px; fill: rgb(255, 255, 255); fill-opacity: 1; white-space: pre;" transform="translate(378.91251789216267,300.37305898749054)">Rock</text></g></g><g class="slice cursor-pointer"><path class="surface" d="M338.5,240L411.31152949374524,292.9006727063226A90,90 0,0,0 428.5,240.00000000000003L338.5,240A0,0 0,0,1 338.5,240Z" style="pointer-events: none; stroke-width: 1; fill: rgb(16, 8, 136); fill-opacity: 1; stroke: rgb(255, 255, 255); stroke-opacity: 1;"/><g class="slicetext"><text data-notex="1" class="slicetext" text-anchor="middle" x="0" y="0" style="font-family: 'Open Sans', verdana, arial, sans-serif; font-size: 12px; fill: rgb(255, 255, 255); fill-opacity: 1; white-space: pre;" transform="translate(391.79030506837336,262.30951530010657)rotate(18)">Soul-RnB</text></g></g><g class="slice"><path class="surface" d="M428.5,240L518.5,240A180,180 0,0,0 517.0806462366061,217.44001795842524L427.79032311830304,228.72000897921262A90,90 0,0,1 428.5,240Z" style="pointer-events: none; stroke-width: 1; fill: rgb(53, 4, 152); fill-opacity: 1; stroke: rgb(255, 255, 255); stroke-opacity: 1; opacity: 1;"/><g class="slicetext"><text data-notex="1" class="slicetext" text-anchor="middle" x="0" y="0" style="font-family: 'Open Sans', verdana, arial, sans-serif; font-size: 12px; fill: rgb(255, 255, 255); fill-opacity: 1; white-space: pre;" transform="translate(496.88039546499215,234.79494169190647)rotate(-3.6000000000000227)"> blues</text></g></g><g class="slice"><path class="surface" d="M427.79032311830304,228.72000897921262L517.0806462366061,217.44001795842524A180,180 0,0,0 512.8449690031537,195.23582031032615L425.67248450157683,217.61791015516306A90,90 0,0,1 427.79032311830304,228.72000897921262Z" style="pointer-events: none; stroke-width: 1; fill: rgb(30, 6, 142); fill-opacity: 1; stroke: rgb(255, 255, 255); stroke-opacity: 1; opacity: 1;"/><g class="slicetext"><text data-notex="1" class="slicetext" text-anchor="middle" x="0" y="0" style="font-family: 'Open Sans', verdana, arial, sans-serif; font-size: 12px; fill: rgb(255, 255, 255); fill-opacity: 1; white-space: pre;" transform="translate(499.65292151270677,214.09408880803073)rotate(-10.799999999999955)"> folk</text></g></g><g class="slice"><path class="surface" d="M425.67248450157683,217.61791015516306L512.8449690031537,195.23582031032615A180,180 0,0,0 505.85976745988523,173.73758051675796L422.1798837299426,206.86879025837897A90,90 0,0,1 425.67248450157683,217.61791015516306Z" style="pointer-events: none; stroke-width: 1; fill: rgb(19, 7, 138); fill-opacity: 1; stroke: rgb(255, 255, 255); stroke-opacity: 1; opacity: 1;"/><g class="slicetext"><text data-notex="1" class="slicetext" text-anchor="middle" x="0" y="0" style="font-family: 'Open Sans', verdana, arial, sans-serif; font-size: 12px; fill: rgb(255, 255, 255); fill-opacity: 1; white-space: pre;" transform="translate(486.63711602719735,196.86177882475602)rotate(-18)"> garage</text></g></g><g class="slice"><path class="surface" d="M422.1798837299426,206.86879025837897L505.85976745988523,173.73758051675796A180,180 0,0,0 496.2352024078955,153.28433866169124L417.36760120394774,196.6421693308456A90,90 0,0,1 422.1798837299426,206.86879025837897Z" style="pointer-events: none; stroke-width: 1; fill: rgb(23, 7, 139); fill-opacity: 1; stroke: rgb(255, 255, 255); stroke-opacity: 1; opacity: 1;"/><g class="slicetext"><text data-notex="1" class="slicetext" text-anchor="middle" x="0" y="0" style="font-family: 'Open Sans', verdana, arial, sans-serif; font-size: 12px; fill: rgb(255, 255, 255); fill-opacity: 1; white-space: pre;" transform="translate(487.38411891264195,175.19007359904612)rotate(-25.200000000000045)"> lo-fi</text></g></g><g class="slice"><path class="surface" d="M417.36760120394774,196.6421693308456L496.2352024078955,153.28433866169124A180,180 0,0,0 484.12305898749054,134.19865458735484L411.3115294937453,187.09932729367742A90,90 0,0,1 417.36760120394774,196.6421693308456Z" style="pointer-events: none; stroke-width: 1; fill: rgb(18, 8, 137); fill-opacity: 1; stroke: rgb(255, 255, 255); stroke-opacity: 1; opacity: 1;"/><g class="slicetext"><text data-notex="1" class="slicetext" text-anchor="middle" x="0" y="0" style="font-family: 'Open Sans', verdana, arial, sans-serif; font-size: 12px; fill: rgb(255, 255, 255); fill-opacity: 1; white-space: pre;" transform="translate(477.15838309561735,157.63049058250235)rotate(-32.39999999999998)"> rock</text></g></g><g class="slice"><path class="surface" d="M411.3115294937453,187.09932729367742L484.12305898749054,134.19865458735484A180,180 0,0,0 469.7143529358541,116.78152093283605L404.10717646792705,178.39076046641802A90,90 0,0,1 411.3115294937453,187.09932729367742Z" style="pointer-events: none; stroke-width: 1; fill: rgb(88, 2, 163); fill-opacity: 1; stroke: rgb(255, 255, 255); stroke-opacity: 1; opacity: 1;"/><g class="slicetext"><text data-notex="1" class="slicetext" text-anchor="middle" x="0" y="0" style="font-family: 'Open Sans', verdana, arial, sans-serif; font-size: 12px; fill: rgb(255, 255, 255); fill-opacity: 1; white-space: pre;" transform="translate(464.7258146019772,141.74164680138884)rotate(-39.60000000000002)"> bach</text></g></g><g class="slice"><path class="surface" d="M404.10717646792705,178.39076046641802L469.7143529358541,116.78152093283605A180,180 0,0,0 453.23631815476415,101.30761630035795L395.8681590773821,170.65380815017897A90,90 0,0,1 404.10717646792705,178.39076046641802Z" style="pointer-events: none; stroke-width: 1; fill: rgb(180, 47, 140); fill-opacity: 1; stroke: rgb(255, 255, 255); stroke-opacity: 1; opacity: 1;"/><g class="slicetext"><text data-notex="1" class="slicetext" text-anchor="middle" x="0" y="0" style="font-family: 'Open Sans', verdana, arial, sans-serif; font-size: 12px; fill: rgb(255, 255, 255); fill-opacity: 1; white-space: pre;" transform="translate(445.54372263720364,132.94890748898356)rotate(-46.799999999999955)"> classical</text></g></g><g class="slice"><path class="surface" d="M395.8681590773821,170.65380815017897L453.23631815476415,101.30761630035795A180,180 0,0,0 434.9488230962194,88.02097340963729L386.7244115481097,164.01048670481865A90,90 0,0,1 395.8681590773821,170.65380815017897Z" style="pointer-events: none; stroke-width: 1; fill: rgb(74, 3, 160); fill-opacity: 1; stroke: rgb(255, 255, 255); stroke-opacity: 1; opacity: 1;"/><g class="slicetext"><text data-notex="1" class="slicetext" text-anchor="middle" x="0" y="0" style="font-family: 'Open Sans', verdana, arial, sans-serif; font-size: 12px; fill: rgb(255, 255, 255); fill-opacity: 1; white-space: pre;" transform="translate(425.4402897720027,127.41985476378264)scale(0.8764679685556395)rotate(-54)"> experimental</text></g></g><g class="slice"><path class="surface" d="M386.7244115481097,164.01048670481865L434.9488230962194,88.02097340963729A180,180 0,0,0 415.1402724817131,77.13113055611649L376.8201362408565,158.56556527805824A90,90 0,0,1 386.7244115481097,164.01048670481865Z" style="pointer-events: none; stroke-width: 1; fill: rgb(79, 3, 161); fill-opacity: 1; stroke: rgb(255, 255, 255); stroke-opacity: 1; opacity: 1;"/><g class="slicetext"><text data-notex="1" class="slicetext" text-anchor="middle" x="0" y="0" style="font-family: 'Open Sans', verdana, arial, sans-serif; font-size: 12px; fill: rgb(255, 255, 255); fill-opacity: 1; white-space: pre;" transform="translate(411.0390811618872,116.81222124937618)scale(0.8884876566028466)rotate(-61.19999999999993)"> instrumental</text></g></g><g class="slice"><path class="surface" d="M376.8201362408565,158.56556527805824L415.1402724817131,77.13113055611649A180,180 0,0,0 394.1230589874906,68.80982706687237L366.3115294937453,154.40491353343617A90,90 0,0,1 376.8201362408565,158.56556527805824Z" style="pointer-events: none; stroke-width: 1; fill: rgb(73, 3, 160); fill-opacity: 1; stroke: rgb(255, 255, 255); stroke-opacity: 1; opacity: 1;"/><g class="slicetext"><text data-notex="1" class="slicetext" text-anchor="middle" x="0" y="0" style="font-family: 'Open Sans', verdana, arial, sans-serif; font-size: 12px; fill: rgb(255, 255, 255); fill-opacity: 1; white-space: pre;" transform="translate(393.9061883264409,110.97432286635896)scale(0.8458634524129617)rotate(-68.39999999999998)"> jared c balogh</text></g></g><g class="slice"><path class="surface" d="M366.3115294937453,154.40491353343617L394.12305898749054,68.80982706687237A180,180 0,0,0 372.22863662543045,63.18829486883604L355.3643183127152,151.594147434418A90,90 0,0,1 366.3115294937453,154.40491353343617Z" style="pointer-events: none; stroke-width: 1; fill: rgb(19, 8, 137); fill-opacity: 1; stroke: rgb(255, 255, 255); stroke-opacity: 1; opacity: 1;"/><g class="slicetext"><text data-notex="1" class="slicetext" text-anchor="middle" x="0" y="0" style="font-family: 'Open Sans', verdana, arial, sans-serif; font-size: 12px; fill: rgb(255, 255, 255); fill-opacity: 1; white-space: pre;" transform="translate(380.39237585546846,95.94006156941381)rotate(-75.60000000000002)"> massdist</text></g></g><g class="slice"><path class="surface" d="M355.3643183127152,151.594147434418L372.22863662543045,63.18829486883604A180,180 0,0,0 349.80229351527646,60.35518888291111L344.15114675763823,150.17759444145554A90,90 0,0,1 355.3643183127152,151.594147434418Z" style="pointer-events: none; stroke-width: 1; fill: rgb(23, 7, 139); fill-opacity: 1; stroke: rgb(255, 255, 255); stroke-opacity: 1; opacity: 1;"/><g class="slicetext"><text data-notex="1" class="slicetext" text-anchor="middle" x="0" y="0" style="font-family: 'Open Sans', verdana, arial, sans-serif; font-size: 12px; fill: rgb(255, 255, 255); fill-opacity: 1; white-space: pre;" transform="translate(363.0033462499096,83.93500837989114)rotate(-82.79999999999995)"> piano</text></g></g><g class="slice"><path class="surface" d="M344.15114675763823,150.17759444145554L349.80229351527646,60.35518888291111A180,180 0,0,0 327.19770648472365,60.35518888291111L332.8488532423618,150.17759444145554A90,90 0,0,1 344.15114675763823,150.17759444145554Z" style="pointer-events: none; stroke-width: 1; fill: rgb(23, 7, 139); fill-opacity: 1; stroke: rgb(255, 255, 255); stroke-opacity: 1; opacity: 1;"/><g class="slicetext"><text data-notex="1" class="slicetext" text-anchor="middle" x="0" y="0" style="font-family: 'Open Sans', verdana, arial, sans-serif; font-size: 12px; fill: rgb(255, 255, 255); fill-opacity: 1; white-space: pre;" transform="translate(343.25,77.15194464089686)rotate(-90)"> soft</text></g></g><g class="slice"><path class="surface" d="M332.8488532423618,150.17759444145554L327.19770648472365,60.35518888291111A180,180 0,0,0 304.7713633745696,63.18829486883604L321.63568168728483,151.594147434418A90,90 0,0,1 332.8488532423618,150.17759444145554Z" style="pointer-events: none; stroke-width: 1; fill: rgb(23, 7, 139); fill-opacity: 1; stroke: rgb(255, 255, 255); stroke-opacity: 1; opacity: 1;"/><g class="slicetext"><text data-notex="1" class="slicetext" text-anchor="middle" x="0" y="0" style="font-family: 'Open Sans', verdana, arial, sans-serif; font-size: 12px; fill: rgb(255, 255, 255); fill-opacity: 1; white-space: pre;" transform="translate(314.4119674805555,87.22255507388724)rotate(82.80000000000007)"> strings</text></g></g><g class="slice"><path class="surface" d="M321.63568168728483,151.594147434418L304.7713633745696,63.18829486883604A180,180 0,0,0 282.8769410125095,68.80982706687234L310.68847050625476,154.40491353343617A90,90 0,0,1 321.63568168728483,151.594147434418Z" style="pointer-events: none; stroke-width: 1; fill: rgb(23, 7, 139); fill-opacity: 1; stroke: rgb(255, 255, 255); stroke-opacity: 1; opacity: 1;"/><g class="slicetext"><text data-notex="1" class="slicetext" text-anchor="middle" x="0" y="0" style="font-family: 'Open Sans', verdana, arial, sans-serif; font-size: 12px; fill: rgb(255, 255, 255); fill-opacity: 1; white-space: pre;" transform="translate(299.55619962530443,104.62350953262825)scale(0.8533779229853281)rotate(75.60000000000002)"> tracks to sync</text></g></g><g class="slice"><path class="surface" d="M310.68847050625476,154.40491353343617L282.87694101250946,68.80982706687234A180,180 0,0,0 261.85972751828695,77.13113055611649L300.1798637591435,158.56556527805824A90,90 0,0,1 310.68847050625476,154.40491353343617Z" style="pointer-events: none; stroke-width: 1; fill: rgb(208, 77, 115); fill-opacity: 1; stroke: rgb(255, 255, 255); stroke-opacity: 1; opacity: 1;"/><g class="slicetext"><text data-notex="1" class="slicetext" text-anchor="middle" x="0" y="0" style="font-family: 'Open Sans', verdana, arial, sans-serif; font-size: 12px; fill: rgb(255, 255, 255); fill-opacity: 1; white-space: pre;" transform="translate(281.26593630764256,107.2541617645314)scale(0.9153440614315607)rotate(68.39999999999998)"> downtempo</text></g></g><g class="slice"><path class="surface" d="M300.1798637591435,158.56556527805824L261.85972751828695,77.13113055611649A180,180 0,0,0 242.05117690378057,88.02097340963729L290.27558845189026,164.01048670481865A90,90 0,0,1 300.1798637591435,158.56556527805824Z" style="pointer-events: none; stroke-width: 1; fill: rgb(240, 249, 33); fill-opacity: 1; stroke: rgb(255, 255, 255); stroke-opacity: 1; opacity: 1;"/><g class="slicetext"><text data-notex="1" class="slicetext" text-anchor="middle" x="0" y="0" style="font-family: 'Open Sans', verdana, arial, sans-serif; font-size: 12px; fill: rgb(68, 68, 68); fill-opacity: 1; white-space: pre;" transform="translate(262.9905295235963,112.30182587263212)scale(0.9790292259173397)rotate(61.19999999999993)"> electronic</text></g></g><g class="slice"><path class="surface" d="M290.27558845189026,164.01048670481865L242.05117690378057,88.02097340963729A180,180 0,0,0 223.7636818452358,101.307616300358L281.13184092261787,170.653808150179A90,90 0,0,1 290.27558845189026,164.01048670481865Z" style="pointer-events: none; stroke-width: 1; fill: rgb(251, 159, 58); fill-opacity: 1; stroke: rgb(255, 255, 255); stroke-opacity: 1; opacity: 1;"/><g class="slicetext"><text data-notex="1" class="slicetext" text-anchor="middle" x="0" y="0" style="font-family: 'Open Sans', verdana, arial, sans-serif; font-size: 12px; fill: rgb(68, 68, 68); fill-opacity: 1; white-space: pre;" transform="translate(251.55971022799727,127.41985476378265)scale(0.8764679685556402)rotate(54)"> experimental</text></g></g><g class="slice"><path class="surface" d="M281.13184092261787,170.653808150179L223.7636818452358,101.307616300358A180,180 0,0,0 207.28564706414585,116.78152093283612L272.89282353207295,178.39076046641804A90,90 0,0,1 281.13184092261787,170.653808150179Z" style="pointer-events: none; stroke-width: 1; fill: rgb(252, 179, 49); fill-opacity: 1; stroke: rgb(255, 255, 255); stroke-opacity: 1; opacity: 1;"/><g class="slicetext"><text data-notex="1" class="slicetext" text-anchor="middle" x="0" y="0" style="font-family: 'Open Sans', verdana, arial, sans-serif; font-size: 12px; fill: rgb(68, 68, 68); fill-opacity: 1; white-space: pre;" transform="translate(223.54929972532076,124.52883152120532)rotate(46.799999999999955)"> idm</text></g></g><g class="slice"><path class="surface" d="M272.89282353207295,178.39076046641804L207.28564706414585,116.78152093283612A180,180 0,0,0 192.87694101250938,134.19865458735495L265.6884705062547,187.09932729367748A90,90 0,0,1 272.89282353207295,178.39076046641804Z" style="pointer-events: none; stroke-width: 1; fill: rgb(221, 95, 101); fill-opacity: 1; stroke: rgb(255, 255, 255); stroke-opacity: 1; opacity: 1;"/><g class="slicetext"><text data-notex="1" class="slicetext" text-anchor="middle" x="0" y="0" style="font-family: 'Open Sans', verdana, arial, sans-serif; font-size: 12px; fill: rgb(68, 68, 68); fill-opacity: 1; white-space: pre;" transform="translate(231.30734005492866,156.09303557989995)scale(0.7738412057174259)rotate(39.59999999999991)"> not normal music</text></g></g><g class="slice"><path class="surface" d="M265.68847050625476,187.0993272936774L192.8769410125095,134.1986545873548A180,180 0,0,0 180.76479759210454,153.28433866169127L259.63239879605226,196.64216933084563A90,90 0,0,1 265.68847050625476,187.0993272936774Z" style="pointer-events: none; stroke-width: 1; fill: rgb(50, 5, 150); fill-opacity: 1; stroke: rgb(255, 255, 255); stroke-opacity: 1; opacity: 1;"/><g class="slicetext"><text data-notex="1" class="slicetext" text-anchor="middle" x="0" y="0" style="font-family: 'Open Sans', verdana, arial, sans-serif; font-size: 12px; fill: rgb(255, 255, 255); fill-opacity: 1; white-space: pre;" transform="translate(220.05127920003497,169.35259661549276)scale(0.8038785039709946)rotate(32.39999999999998)"> betterwithmusic</text></g></g><g class="slice"><path class="surface" d="M259.63239879605226,196.64216933084563L180.76479759210454,153.28433866169127A180,180 0,0,0 171.14023254011474,173.737580516758L254.82011627005738,206.868790258379A90,90 0,0,1 259.63239879605226,196.64216933084563Z" style="pointer-events: none; stroke-width: 1; fill: rgb(176, 42, 144); fill-opacity: 1; stroke: rgb(255, 255, 255); stroke-opacity: 1; opacity: 1;"/><g class="slicetext"><text data-notex="1" class="slicetext" text-anchor="middle" x="0" y="0" style="font-family: 'Open Sans', verdana, arial, sans-serif; font-size: 12px; fill: rgb(255, 255, 255); fill-opacity: 1; white-space: pre;" transform="translate(188.85253198734188,174.83086877848305)rotate(25.200000000000045)"> folk</text></g></g><g class="slice"><path class="surface" d="M254.82011627005738,206.868790258379L171.14023254011474,173.737580516758A180,180 0,0,0 164.1550309968464,195.2358203103262L251.3275154984232,217.61791015516312A90,90 0,0,1 254.82011627005738,206.868790258379Z" style="pointer-events: none; stroke-width: 1; fill: rgb(73, 3, 160); fill-opacity: 1; stroke: rgb(255, 255, 255); stroke-opacity: 1; opacity: 1;"/><g class="slicetext"><text data-notex="1" class="slicetext" text-anchor="middle" x="0" y="0" style="font-family: 'Open Sans', verdana, arial, sans-serif; font-size: 12px; fill: rgb(255, 255, 255); fill-opacity: 1; white-space: pre;" transform="translate(201.2934481414856,199.85639208516145)scale(0.8884876566028475)rotate(18)"> instrumental</text></g></g><g class="slice"><path class="surface" d="M251.3275154984232,217.61791015516312L164.1550309968464,195.2358203103262A180,180 0,0,0 159.91935376339399,217.44001795842536L249.209676881697,228.72000897921268A90,90 0,0,1 251.3275154984232,217.61791015516312Z" style="pointer-events: none; stroke-width: 1; fill: rgb(45, 5, 148); fill-opacity: 1; stroke: rgb(255, 255, 255); stroke-opacity: 1; opacity: 1;"/><g class="slicetext"><text data-notex="1" class="slicetext" text-anchor="middle" x="0" y="0" style="font-family: 'Open Sans', verdana, arial, sans-serif; font-size: 12px; fill: rgb(255, 255, 255); fill-opacity: 1; white-space: pre;" transform="translate(177.52065663135318,214.12720060989238)rotate(10.799999999999955)"> pop</text></g></g><g class="slice"><path class="surface" d="M249.209676881697,228.72000897921268L159.91935376339399,217.44001795842536A180,180 0,0,0 158.5,240.00000000000014L248.5,240.00000000000006A90,90 0,0,1 249.209676881697,228.72000897921268Z" style="pointer-events: none; stroke-width: 1; fill: rgb(58, 4, 154); fill-opacity: 1; stroke: rgb(255, 255, 255); stroke-opacity: 1; opacity: 1;"/><g class="slicetext"><text data-notex="1" class="slicetext" text-anchor="middle" x="0" y="0" style="font-family: 'Open Sans', verdana, arial, sans-serif; font-size: 12px; fill: rgb(255, 255, 255); fill-opacity: 1; white-space: pre;" transform="translate(177.3109188533941,234.6182341668278)rotate(3.599999999999909)"> rock</text></g></g><g class="slice"><path class="surface" d="M248.5,240L158.5,239.99999999999997A180,180 0,0,0 159.91935376339399,262.55998204157476L249.209676881697,251.27999102078738A90,90 0,0,1 248.5,240Z" style="pointer-events: none; stroke-width: 1; fill: rgb(71, 3, 159); fill-opacity: 1; stroke: rgb(255, 255, 255); stroke-opacity: 1; opacity: 1;"/><g class="slicetext"><text data-notex="1" class="slicetext" text-anchor="middle" x="0" y="0" style="font-family: 'Open Sans', verdana, arial, sans-serif; font-size: 12px; fill: rgb(255, 255, 255); fill-opacity: 1; white-space: pre;" transform="translate(181.1766757827773,254.65733616645255)rotate(-3.6000000000000227)"> beats</text></g></g><g class="slice"><path class="surface" d="M249.209676881697,251.27999102078738L159.91935376339399,262.55998204157476A180,180 0,0,0 164.1550309968464,284.7641796896739L251.3275154984232,262.38208984483697A90,90 0,0,1 249.209676881697,251.27999102078738Z" style="pointer-events: none; stroke-width: 1; fill: rgb(60, 4, 155); fill-opacity: 1; stroke: rgb(255, 255, 255); stroke-opacity: 1; opacity: 1;"/><g class="slicetext"><text data-notex="1" class="slicetext" text-anchor="middle" x="0" y="0" style="font-family: 'Open Sans', verdana, arial, sans-serif; font-size: 12px; fill: rgb(255, 255, 255); fill-opacity: 1; white-space: pre;" transform="translate(193.71810976371148,272.3528679825724)scale(0.9790292259173397)rotate(-10.799999999999955)"> electronic</text></g></g><g class="slice"><path class="surface" d="M251.3275154984232,262.38208984483697L164.1550309968464,284.7641796896739A180,180 0,0,0 171.14023254011477,306.26241948324207L254.82011627005738,273.13120974162103A90,90 0,0,1 251.3275154984232,262.38208984483697Z" style="pointer-events: none; stroke-width: 1; fill: rgb(62, 4, 156); fill-opacity: 1; stroke: rgb(255, 255, 255); stroke-opacity: 1; opacity: 1;"/><g class="slicetext"><text data-notex="1" class="slicetext" text-anchor="middle" x="0" y="0" style="font-family: 'Open Sans', verdana, arial, sans-serif; font-size: 12px; fill: rgb(255, 255, 255); fill-opacity: 1; white-space: pre;" transform="translate(204.56389223220947,287.8959510090611)scale(0.8764679685556402)rotate(-18)"> experimental</text></g></g><g class="slice"><path class="surface" d="M254.82011627005738,273.13120974162103L171.14023254011477,306.26241948324207A180,180 0,0,0 180.7647975921046,326.71566133830885L259.6323987960523,283.3578306691544A90,90 0,0,1 254.82011627005738,273.13120974162103Z" style="pointer-events: none; stroke-width: 1; fill: rgb(63, 4, 156); fill-opacity: 1; stroke: rgb(255, 255, 255); stroke-opacity: 1; opacity: 1;"/><g class="slicetext"><text data-notex="1" class="slicetext" text-anchor="middle" x="0" y="0" style="font-family: 'Open Sans', verdana, arial, sans-serif; font-size: 12px; fill: rgb(255, 255, 255); fill-opacity: 1; white-space: pre;" transform="translate(202.1384506808596,309.4164964394433)rotate(-25.200000000000045)"> hip hop</text></g></g><g class="slice"><path class="surface" d="M259.6323987960523,283.3578306691544L180.7647975921046,326.71566133830885A180,180 0,0,0 192.87694101250955,345.8013454126453L265.68847050625476,292.9006727063226A90,90 0,0,1 259.6323987960523,283.3578306691544Z" style="pointer-events: none; stroke-width: 1; fill: rgb(73, 3, 160); fill-opacity: 1; stroke: rgb(255, 255, 255); stroke-opacity: 1; opacity: 1;"/><g class="slicetext"><text data-notex="1" class="slicetext" text-anchor="middle" x="0" y="0" style="font-family: 'Open Sans', verdana, arial, sans-serif; font-size: 12px; fill: rgb(255, 255, 255); fill-opacity: 1; white-space: pre;" transform="translate(212.31360591903686,325.70609703254036)rotate(-32.40000000000009)"> hip-hop</text></g></g><g class="slice"><path class="surface" d="M265.6884705062547,292.90067270632255L192.87694101250946,345.80134541264516A180,180 0,0,0 207.28564706414593,363.21847906716397L272.89282353207295,301.609239533582A90,90 0,0,1 265.6884705062547,292.90067270632255Z" style="pointer-events: none; stroke-width: 1; fill: rgb(106, 1, 166); fill-opacity: 1; stroke: rgb(255, 255, 255); stroke-opacity: 1; opacity: 1;"/><g class="slicetext"><text data-notex="1" class="slicetext" text-anchor="middle" x="0" y="0" style="font-family: 'Open Sans', verdana, arial, sans-serif; font-size: 12px; fill: rgb(255, 255, 255); fill-opacity: 1; white-space: pre;" transform="translate(230.58919581110337,334.82053197895243)scale(0.9001137334214644)rotate(-39.60000000000002)"> avant-garde</text></g></g><g class="slice"><path class="surface" d="M272.89282353207295,301.609239533582L207.28564706414593,363.21847906716397A180,180 0,0,0 223.76368184523588,378.69238369964205L281.1318409226179,309.346191849821A90,90 0,0,1 272.89282353207295,301.609239533582Z" style="pointer-events: none; stroke-width: 1; fill: rgb(87, 2, 162); fill-opacity: 1; stroke: rgb(255, 255, 255); stroke-opacity: 1; opacity: 1;"/><g class="slicetext"><text data-notex="1" class="slicetext" text-anchor="middle" x="0" y="0" style="font-family: 'Open Sans', verdana, arial, sans-serif; font-size: 12px; fill: rgb(255, 255, 255); fill-opacity: 1; white-space: pre;" transform="translate(236.03384310180337,356.05426867366145)rotate(-46.799999999999955)"> balogh</text></g></g><g class="slice"><path class="surface" d="M281.1318409226179,309.346191849821L223.76368184523588,378.69238369964205A180,180 0,0,0 242.05117690378066,391.97902659036276L290.2755884518903,315.9895132951814A90,90 0,0,1 281.1318409226179,309.346191849821Z" style="pointer-events: none; stroke-width: 1; fill: rgb(180, 46, 141); fill-opacity: 1; stroke: rgb(255, 255, 255); stroke-opacity: 1; opacity: 1;"/><g class="slicetext"><text data-notex="1" class="slicetext" text-anchor="middle" x="0" y="0" style="font-family: 'Open Sans', verdana, arial, sans-serif; font-size: 12px; fill: rgb(255, 255, 255); fill-opacity: 1; white-space: pre;" transform="translate(258.295946303072,357.474307223443)scale(0.8764679685556402)rotate(-54)"> experimental</text></g></g><g class="slice"><path class="surface" d="M290.2755884518903,315.9895132951814L242.05117690378066,391.97902659036276A180,180 0,0,0 261.859727518287,402.86886944388357L300.17986375914353,321.4344347219418A90,90 0,0,1 290.2755884518903,315.9895132951814Z" style="pointer-events: none; stroke-width: 1; fill: rgb(135, 12, 163); fill-opacity: 1; stroke: rgb(255, 255, 255); stroke-opacity: 1; opacity: 1;"/><g class="slicetext"><text data-notex="1" class="slicetext" text-anchor="middle" x="0" y="0" style="font-family: 'Open Sans', verdana, arial, sans-serif; font-size: 12px; fill: rgb(255, 255, 255); fill-opacity: 1; white-space: pre;" transform="translate(274.40124073022355,364.9352637358038)scale(0.8458634524129625)rotate(-61.200000000000045)"> jared c balogh</text></g></g><g class="slice"><path class="surface" d="M300.17986375914353,321.4344347219418L261.859727518287,402.86886944388357A180,180 0,0,0 282.8769410125096,411.19017293312766L310.6884705062548,325.5950864665638A90,90 0,0,1 300.17986375914353,321.4344347219418Z" style="pointer-events: none; stroke-width: 1; fill: rgb(208, 78, 115); fill-opacity: 1; stroke: rgb(255, 255, 255); stroke-opacity: 1; opacity: 1;"/><g class="slicetext"><text data-notex="1" class="slicetext" text-anchor="middle" x="0" y="0" style="font-family: 'Open Sans', verdana, arial, sans-serif; font-size: 12px; fill: rgb(255, 255, 255); fill-opacity: 1; white-space: pre;" transform="translate(283.24155914612436,392.4701314906794)rotate(-68.39999999999998)"> jazz</text></g></g><g class="slice"><path class="surface" d="M310.6884705062547,325.5950864665638L282.87694101250946,411.19017293312766A180,180 0,0,0 304.77136337456955,416.811705131164L321.6356816872848,328.405852565582A90,90 0,0,1 310.6884705062547,325.5950864665638Z" style="pointer-events: none; stroke-width: 1; fill: rgb(62, 4, 156); fill-opacity: 1; stroke: rgb(255, 255, 255); stroke-opacity: 1; opacity: 1;"/><g class="slicetext"><text data-notex="1" class="slicetext" text-anchor="middle" x="0" y="0" style="font-family: 'Open Sans', verdana, arial, sans-serif; font-size: 12px; fill: rgb(255, 255, 255); fill-opacity: 1; white-space: pre;" transform="translate(307.9129943409946,374.48267601790695)scale(0.8038785039709946)rotate(-75.59999999999991)"> betterwithmusic</text></g></g><g class="slice"><path class="surface" d="M321.6356816872848,328.405852565582L304.77136337456955,416.811705131164A180,180 0,0,0 327.1977064847236,419.6448111170889L332.8488532423618,329.82240555854446A90,90 0,0,1 321.6356816872848,328.405852565582Z" style="pointer-events: none; stroke-width: 1; fill: rgb(47, 5, 149); fill-opacity: 1; stroke: rgb(255, 255, 255); stroke-opacity: 1; opacity: 1;"/><g class="slicetext"><text data-notex="1" class="slicetext" text-anchor="middle" x="0" y="0" style="font-family: 'Open Sans', verdana, arial, sans-serif; font-size: 12px; fill: rgb(255, 255, 255); fill-opacity: 1; white-space: pre;" transform="translate(323.5754673074266,396.0388074126937)rotate(-82.80000000000007)"> dance</text></g></g><g class="slice"><path class="surface" d="M332.8488532423618,329.82240555854446L327.1977064847236,419.6448111170889A180,180 0,0,0 349.80229351527646,419.6448111170889L344.15114675763823,329.82240555854446A90,90 0,0,1 332.8488532423618,329.82240555854446Z" style="pointer-events: none; stroke-width: 1; fill: rgb(47, 5, 150); fill-opacity: 1; stroke: rgb(255, 255, 255); stroke-opacity: 1; opacity: 1;"/><g class="slicetext"><text data-notex="1" class="slicetext" text-anchor="middle" x="0" y="0" style="font-family: 'Open Sans', verdana, arial, sans-serif; font-size: 12px; fill: rgb(255, 255, 255); fill-opacity: 1; white-space: pre;" transform="translate(342.72031636886356,382.8962422846388)scale(0.8884876566028475)rotate(-90)"> instrumental</text></g></g><g class="slice"><path class="surface" d="M344.15114675763823,329.82240555854446L349.80229351527646,419.6448111170889A180,180 0,0,0 372.2286366254305,416.811705131164L355.3643183127153,328.405852565582A90,90 0,0,1 344.15114675763823,329.82240555854446Z" style="pointer-events: none; stroke-width: 1; fill: rgb(110, 1, 167); fill-opacity: 1; stroke: rgb(255, 255, 255); stroke-opacity: 1; opacity: 1;"/><g class="slicetext"><text data-notex="1" class="slicetext" text-anchor="middle" x="0" y="0" style="font-family: 'Open Sans', verdana, arial, sans-serif; font-size: 12px; fill: rgb(255, 255, 255); fill-opacity: 1; white-space: pre;" transform="translate(354.2137687269852,402.28625392212456)rotate(82.79999999999995)"> pop</text></g></g><g class="slice"><path class="surface" d="M355.3643183127153,328.405852565582L372.2286366254305,416.811705131164A180,180 0,0,0 394.12305898749065,411.1901729331276L366.3115294937453,325.59508646656377A90,90 0,0,1 355.3643183127153,328.405852565582Z" style="pointer-events: none; stroke-width: 1; fill: rgb(44, 5, 148); fill-opacity: 1; stroke: rgb(255, 255, 255); stroke-opacity: 1; opacity: 1;"/><g class="slicetext"><text data-notex="1" class="slicetext" text-anchor="middle" x="0" y="0" style="font-family: 'Open Sans', verdana, arial, sans-serif; font-size: 12px; fill: rgb(255, 255, 255); fill-opacity: 1; white-space: pre;" transform="translate(373.99026188644865,397.32553701037057)rotate(75.60000000000002)"> rock</text></g></g><g class="slice"><path class="surface" d="M366.31152949374524,325.5950864665638L394.1230589874905,411.19017293312766A180,180 0,0,0 415.14027248171305,402.8688694438835L376.8201362408565,321.4344347219418A90,90 0,0,1 366.31152949374524,325.5950864665638Z" style="pointer-events: none; stroke-width: 1; fill: rgb(90, 2, 163); fill-opacity: 1; stroke: rgb(255, 255, 255); stroke-opacity: 1; opacity: 1;"/><g class="slicetext"><text data-notex="1" class="slicetext" text-anchor="middle" x="0" y="0" style="font-family: 'Open Sans', verdana, arial, sans-serif; font-size: 12px; fill: rgb(255, 255, 255); fill-opacity: 1; white-space: pre;" transform="translate(386.96962365693355,373.7295729059314)scale(0.8764679685556402)rotate(68.40000000000009)"> experimental</text></g></g><g class="slice"><path class="surface" d="M376.8201362408565,321.4344347219418L415.14027248171305,402.8688694438835A180,180 0,0,0 434.9488230962194,391.9790265903627L386.7244115481097,315.9895132951814A90,90 0,0,1 376.8201362408565,321.4344347219418Z" style="pointer-events: none; stroke-width: 1; fill: rgb(74, 3, 160); fill-opacity: 1; stroke: rgb(255, 255, 255); stroke-opacity: 1; opacity: 1;"/><g class="slicetext"><text data-notex="1" class="slicetext" text-anchor="middle" x="0" y="0" style="font-family: 'Open Sans', verdana, arial, sans-serif; font-size: 12px; fill: rgb(255, 255, 255); fill-opacity: 1; white-space: pre;" transform="translate(412.9369770902844,385.26016931157454)rotate(61.19999999999993)"> folk</text></g></g><g class="slice"><path class="surface" d="M386.7244115481097,315.9895132951814L434.9488230962194,391.9790265903627A180,180 0,0,0 453.2363181547642,378.69238369964205L395.8681590773821,309.346191849821A90,90 0,0,1 386.7244115481097,315.9895132951814Z" style="pointer-events: none; stroke-width: 1; fill: rgb(73, 3, 160); fill-opacity: 1; stroke: rgb(255, 255, 255); stroke-opacity: 1; opacity: 1;"/><g class="slicetext"><text data-notex="1" class="slicetext" text-anchor="middle" x="0" y="0" style="font-family: 'Open Sans', verdana, arial, sans-serif; font-size: 12px; fill: rgb(255, 255, 255); fill-opacity: 1; white-space: pre;" transform="translate(421.0922143948807,361.3817234966384)scale(0.9532382990840362)rotate(54)"> free music</text></g></g><g class="slice"><path class="surface" d="M395.8681590773821,309.346191849821L453.2363181547642,378.69238369964205A180,180 0,0,0 469.71435293585415,363.2184790671639L404.10717646792705,301.60923953358196A90,90 0,0,1 395.8681590773821,309.346191849821Z" style="pointer-events: none; stroke-width: 1; fill: rgb(140, 15, 162); fill-opacity: 1; stroke: rgb(255, 255, 255); stroke-opacity: 1; opacity: 1;"/><g class="slicetext"><text data-notex="1" class="slicetext" text-anchor="middle" x="0" y="0" style="font-family: 'Open Sans', verdana, arial, sans-serif; font-size: 12px; fill: rgb(255, 255, 255); fill-opacity: 1; white-space: pre;" transform="translate(445.3925090523725,360.7678549650472)rotate(46.799999999999955)"> rock</text></g></g><g class="slice"><path class="surface" d="M404.10717646792705,301.60923953358196L469.71435293585415,363.2184790671639A180,180 0,0,0 484.1230589874906,345.80134541264505L411.3115294937453,292.90067270632255A90,90 0,0,1 404.10717646792705,301.60923953358196Z" style="pointer-events: none; stroke-width: 1; fill: rgb(74, 3, 160); fill-opacity: 1; stroke: rgb(255, 255, 255); stroke-opacity: 1; opacity: 1;"/><g class="slicetext"><text data-notex="1" class="slicetext" text-anchor="middle" x="0" y="0" style="font-family: 'Open Sans', verdana, arial, sans-serif; font-size: 12px; fill: rgb(255, 255, 255); fill-opacity: 1; white-space: pre;" transform="translate(440.4679847319706,329.04819397039637)scale(0.7612574831518828)rotate(39.60000000000002)"> royalty free music</text></g></g><g class="slice"><path class="surface" d="M411.31152949374524,292.9006727063226L484.1230589874905,345.8013454126452A180,180 0,0,0 496.2352024078955,326.7156613383088L417.36760120394774,283.3578306691544A90,90 0,0,1 411.31152949374524,292.9006727063226Z" style="pointer-events: none; stroke-width: 1; fill: rgb(19, 8, 137); fill-opacity: 1; stroke: rgb(255, 255, 255); stroke-opacity: 1; opacity: 1;"/><g class="slicetext"><text data-notex="1" class="slicetext" text-anchor="middle" x="0" y="0" style="font-family: 'Open Sans', verdana, arial, sans-serif; font-size: 12px; fill: rgb(255, 255, 255); fill-opacity: 1; white-space: pre;" transform="translate(463.7703118828159,325.1247335914594)rotate(32.400000000000034)"> ambient</text></g></g><g class="slice"><path class="surface" d="M417.36760120394774,283.3578306691544L496.2352024078955,326.7156613383088A180,180 0,0,0 505.85976745988523,306.262419483242L422.1798837299426,273.131209741621A90,90 0,0,1 417.36760120394774,283.3578306691544Z" style="pointer-events: none; stroke-width: 1; fill: rgb(13, 8, 135); fill-opacity: 1; stroke: rgb(255, 255, 255); stroke-opacity: 1; opacity: 1;"/><g class="slicetext"><text data-notex="1" class="slicetext" text-anchor="middle" x="0" y="0" style="font-family: 'Open Sans', verdana, arial, sans-serif; font-size: 12px; fill: rgb(255, 255, 255); fill-opacity: 1; white-space: pre;" transform="translate(479.3798022191231,311.5426248676586)rotate(25.199999999999932)"> beats</text></g></g><g class="slice"><path class="surface" d="M422.1798837299426,273.131209741621L505.85976745988523,306.262419483242A180,180 0,0,0 512.8449690031537,284.7641796896738L425.67248450157683,262.3820898448369A90,90 0,0,1 422.1798837299426,273.131209741621Z" style="pointer-events: none; stroke-width: 1; fill: rgb(13, 8, 135); fill-opacity: 1; stroke: rgb(255, 255, 255); stroke-opacity: 1; opacity: 1;"/><g class="slicetext"><text data-notex="1" class="slicetext" text-anchor="middle" x="0" y="0" style="font-family: 'Open Sans', verdana, arial, sans-serif; font-size: 12px; fill: rgb(255, 255, 255); fill-opacity: 1; white-space: pre;" transform="translate(481.6588421674475,291.50957307523345)rotate(18)"> bj block</text></g></g><g class="slice"><path class="surface" d="M425.67248450157683,262.3820898448369L512.8449690031537,284.7641796896738A180,180 0,0,0 517.0806462366061,262.5599820415747L427.79032311830304,251.27999102078735A90,90 0,0,1 425.67248450157683,262.3820898448369Z" style="pointer-events: none; stroke-width: 1; fill: rgb(13, 8, 135); fill-opacity: 1; stroke: rgb(255, 255, 255); stroke-opacity: 1; opacity: 1;"/><g class="slicetext"><text data-notex="1" class="slicetext" text-anchor="middle" x="0" y="0" style="font-family: 'Open Sans', verdana, arial, sans-serif; font-size: 12px; fill: rgb(255, 255, 255); fill-opacity: 1; white-space: pre;" transform="translate(498.9484478438099,275.44283106024767)rotate(10.799999999999955)"> rap</text></g></g><g class="slice"><path class="surface" d="M427.79032311830304,251.27999102078735L517.0806462366061,262.5599820415747A180,180 0,0,0 518.5,239.9999999999999L428.5,239.99999999999994A90,90 0,0,1 427.79032311830304,251.27999102078735Z" style="pointer-events: none; stroke-width: 1; fill: rgb(22, 7, 139); fill-opacity: 1; stroke: rgb(255, 255, 255); stroke-opacity: 1; opacity: 1;"/><g class="slicetext"><text data-notex="1" class="slicetext" text-anchor="middle" x="0" y="0" style="font-family: 'Open Sans', verdana, arial, sans-serif; font-size: 12px; fill: rgb(255, 255, 255); fill-opacity: 1; white-space: pre;" transform="translate(499.75353321041484,254.9046039574965)rotate(3.599999999999966)"> soul</text></g></g></g></g><g class="glimages"/><defs id="topdefs-cfc088"><g class="clips"/></defs><g class="layer-above"><g class="imagelayer"/><g class="shapelayer"/></g><g class="infolayer"><g class="cbcoloraxis colorbar" transform="translate(80,60)"><rect class="cbbg" x="527" y="0" width="80.53125" height="360" style="fill: rgb(0, 0, 0); fill-opacity: 0; stroke: rgb(68, 68, 68); stroke-opacity: 1; stroke-width: 0;"/><g class="cbfills" transform="translate(0,32)"><rect class="cbfill gradient_filled" style="fill: url('#gcfc088-cbcoloraxis');" x="537" y="0" width="30" height="318"/></g><g class="cblines" transform="translate(0,32)"/><g class="cbaxis crisp" transform="translate(0,-60)"><g class="ycbcoloraxistick"><text text-anchor="start" x="569.9" y="4.199999999999999" transform="translate(0,360.24)" style="font-family: 'Open Sans', verdana, arial, sans-serif; font-size: 12px; fill: rgb(42, 63, 95); fill-opacity: 1; white-space: pre; opacity: 1;">200</text></g><g class="ycbcoloraxistick"><text text-anchor="start" x="569.9" y="4.199999999999999" style="font-family: 'Open Sans', verdana, arial, sans-serif; font-size: 12px; fill: rgb(42, 63, 95); fill-opacity: 1; white-space: pre; opacity: 1;" transform="translate(0,306.15999999999997)">400</text></g><g class="ycbcoloraxistick"><text text-anchor="start" x="569.9" y="4.199999999999999" style="font-family: 'Open Sans', verdana, arial, sans-serif; font-size: 12px; fill: rgb(42, 63, 95); fill-opacity: 1; white-space: pre; opacity: 1;" transform="translate(0,252.08)">600</text></g><g class="ycbcoloraxistick"><text text-anchor="start" x="569.9" y="4.199999999999999" style="font-family: 'Open Sans', verdana, arial, sans-serif; font-size: 12px; fill: rgb(42, 63, 95); fill-opacity: 1; white-space: pre; opacity: 1;" transform="translate(0,198)">800</text></g><g class="ycbcoloraxistick"><text text-anchor="start" x="569.9" y="4.199999999999999" style="font-family: 'Open Sans', verdana, arial, sans-serif; font-size: 12px; fill: rgb(42, 63, 95); fill-opacity: 1; white-space: pre; opacity: 1;" transform="translate(0,143.92000000000002)">1000</text></g></g><g class="cbtitleunshift" transform="translate(-80,-60)"><g class="cbtitle" transform=""><text class="ycbcoloraxistitle" x="617.34" y="83.5" text-anchor="start" style="font-family: 'Open Sans', verdana, arial, sans-serif; font-size: 14px; fill: rgb(42, 63, 95); opacity: 1; font-weight: normal; white-space: pre;">title</text></g></g><rect class="cboutline" x="537" y="32" width="30" height="318" style="stroke: rgb(68, 68, 68); stroke-opacity: 1; fill: none; stroke-width: 0;"/></g><g class="g-gtitle"/></g></svg>