<svg class="main-svg" xmlns="http://www.w3.org/2000/svg" xmlns:xlink="http://www.w3.org/1999/xlink" width="550" height="500" style="" viewBox="0 0 550 500"><rect x="0" y="0" width="550" height="500" style="fill: rgb(255, 255, 255); fill-opacity: 1;"/><defs id="defs-12663d"><g class="clips"/><g class="gradients"><linearGradient x1="0" x2="0" y1="1" y2="0" id="g12663d-cbcoloraxis"><stop offset="0%" stop-color="rgb(13, 8, 135)" stop-opacity="1"/><stop offset="11.111111%" stop-color="rgb(70, 3, 159)" stop-opacity="1"/><stop offset="22.222222%" stop-color="rgb(114, 1, 168)" stop-opacity="1"/><stop offset="33.333333%" stop-color="rgb(156, 23, 158)" stop-opacity="1"/><stop offset="44.444444%" stop-color="rgb(189, 55, 134)" stop-opacity="1"/><stop offset="55.555556%" stop-color="rgb(216, 87, 107)" stop-opacity="1"/><stop offset="66.666667%" stop-color="rgb(237, 121, 83)" stop-opacity="1"/><stop offset="77.777778%" stop-color="rgb(251, 159, 58)" stop-opacity="1"/><stop offset="88.888889%" stop-color="rgb(253, 202, 38)" stop-opacity="1"/><stop offset="100%" stop-color="rgb(240, 249, 33)" stop-opacity="1"/></linearGradient></g><g class="patterns"/></defs><g class="bglayer"/><g class="layer-below"><g class="imagelayer"/><g class="shapelayer"/></g><g class="cartesianlayer"/><g class="polarlayer"/><g class="smithlayer"/><g class="ternarylayer"/><g class="geolayer"/><g class="funnelarealayer"/><g class="pielayer"/><g class="iciclelayer"/><g class="treemaplayer"/><g class="sunburstlayer"><g class="trace sunburst" stroke-linejoin="round" style="opacity: 1;"><g class="slice cursor-pointer"><path class="surface" d="M243.5,250L323.5,250A80,80 0,0,0 308.2213595499958,202.97717981660213L243.5,250A0,0 0,0,1 243.5,250Z" style="pointer-events: all; stroke-width: 1; fill: rgb(19, 7, 138); fill-opacity: 1; stroke: rgb(255, 255, 255); stroke-opacity: 1;"/><g class="slicetext"><text data-notex="1" class="slicetext" text-anchor="middle" x="0" y="0" style="font-family: 'Open Sans', verdana, arial, sans-serif; font-size: 12px; fill: rgb(255, 255, 255); fill-opacity: 1; white-space: pre;" transform="translate(301.24840224042885,235.61456180001682)">Blues</text></g></g><g class="slice cursor-pointer"><path class="surface" d="M243.5,250L308.2213595499958,202.97717981660213A80,80 0,0,0 268.2213595499958,173.9154786963877L243.5,250A0,0 0,0,1 243.5,250Z" style="pointer-events: all; stroke-width: 1; fill: rgb(73, 3, 160); fill-opacity: 1; stroke: rgb(255, 255, 255); stroke-opacity: 1;"/><g class="slicetext"><text data-notex="1" class="slicetext" text-anchor="middle" x="0" y="0" style="font-family: 'Open Sans', verdana, arial, sans-serif; font-size: 12px; fill: rgb(255, 255, 255); fill-opacity: 1; white-space: pre;" transform="translate(277.7369122561923,210.44123670370695)scale(0.9880413745985953)rotate(-54)">Classical</text></g></g><g class="slice cursor-pointer"><path class="surface" d="M243.5,250L268.2213595499958,173.9154786963877A80,80 0,0,0 218.77864045000422,173.9154786963877L243.5,250A0,0 0,0,1 243.5,250Z" style="pointer-events: all; stroke-width: 1; fill: rgb(21, 7, 138); fill-opacity: 1; stroke: rgb(255, 255, 255); stroke-opacity: 1;"/><g class="slicetext"><text data-notex="1" class="slicetext" text-anchor="middle" x="0" y="0" style="font-family: 'Open Sans', verdana, arial, sans-serif; font-size: 12px; fill: rgb(255, 255, 255); fill-opacity: 1; white-space: pre;" transform="translate(248,197.87884541657752)rotate(-90)">Country</text></g></g><g class="slice cursor-pointer"><path class="surface" d="M243.5,250L218.77864045000422,173.9154786963877A80,80 0,0,0 178.77864045000422,202.97717981660213L243.5,250A0,0 0,0,1 243.5,250Z" style="pointer-events: all; stroke-width: 1; fill: rgb(250, 156, 60); fill-opacity: 1; stroke: rgb(255, 255, 255); stroke-opacity: 1;"/><g class="slicetext"><text data-notex="1" class="slicetext" text-anchor="middle" x="0" y="0" style="font-family: 'Open Sans', verdana, arial, sans-serif; font-size: 12px; fill: rgb(68, 68, 68); fill-opacity: 1; white-space: pre;" transform="translate(210.07215071711883,210.8380738491222)scale(0.8944212249783)rotate(54)">Electronic</text></g></g><g class="slice cursor-pointer"><path class="surface" d="M243.5,250L178.77864045000422,202.97717981660213A80,80 0,0,0 163.5,250L243.5,250A0,0 0,0,1 243.5,250Z" style="pointer-events: all; stroke-width: 1; fill: rgb(55, 4, 153); fill-opacity: 1; stroke: rgb(255, 255, 255); stroke-opacity: 1;"/><g class="slicetext"><text data-notex="1" class="slicetext" text-anchor="middle" x="0" y="0" style="font-family: 'Open Sans', verdana, arial, sans-serif; font-size: 12px; fill: rgb(255, 255, 255); fill-opacity: 1; white-space: pre;" transform="translate(184.92347275957113,235.61456180001682)">Folk</text></g></g><g class="slice cursor-pointer"><path class="surface" d="M243.5,250L163.5,250A80,80 0,0,0 178.77864045000422,297.0228201833978L243.5,250A0,0 0,0,1 243.5,250Z" style="pointer-events: all; stroke-width: 1; fill: rgb(69, 3, 158); fill-opacity: 1; stroke: rgb(255, 255, 255); stroke-opacity: 1;"/><g class="slicetext"><text data-notex="1" class="slicetext" text-anchor="middle" x="0" y="0" style="font-family: 'Open Sans', verdana, arial, sans-serif; font-size: 12px; fill: rgb(255, 255, 255); fill-opacity: 1; white-space: pre;" transform="translate(194.776909352761,270.5626718217015)rotate(-18)">Hip-Hop</text></g></g><g class="slice cursor-pointer"><path class="surface" d="M243.5,250L178.77864045000422,297.0228201833978A80,80 0,0,0 218.7786404500042,326.0845213036123L243.5,250A0,0 0,0,1 243.5,250Z" style="pointer-events: all; stroke-width: 1; fill: rgb(117, 3, 167); fill-opacity: 1; stroke: rgb(255, 255, 255); stroke-opacity: 1;"/><g class="slicetext"><text data-notex="1" class="slicetext" text-anchor="middle" x="0" y="0" style="font-family: 'Open Sans', verdana, arial, sans-serif; font-size: 12px; fill: rgb(255, 255, 255); fill-opacity: 1; white-space: pre;" transform="translate(207.72619937363316,303.94271909999156)">Jazz</text></g></g><g class="slice cursor-pointer"><path class="surface" d="M243.5,250L218.7786404500042,326.0845213036123A80,80 0,0,0 268.2213595499958,326.0845213036123L243.5,250A0,0 0,0,1 243.5,250Z" style="pointer-events: all; stroke-width: 1; fill: rgb(48, 5, 150); fill-opacity: 1; stroke: rgb(255, 255, 255); stroke-opacity: 1;"/><g class="slicetext"><text data-notex="1" class="slicetext" text-anchor="middle" x="0" y="0" style="font-family: 'Open Sans', verdana, arial, sans-serif; font-size: 12px; fill: rgb(255, 255, 255); fill-opacity: 1; white-space: pre;" transform="translate(243.2421875,315.6145618000168)">Pop</text></g></g><g class="slice cursor-pointer"><path class="surface" d="M243.5,250L268.2213595499958,326.0845213036123A80,80 0,0,0 308.2213595499958,297.02282018339787L243.5,250A0,0 0,0,1 243.5,250Z" style="pointer-events: all; stroke-width: 1; fill: rgb(67, 3, 158); fill-opacity: 1; stroke: rgb(255, 255, 255); stroke-opacity: 1;"/><g class="slicetext"><text data-notex="1" class="slicetext" text-anchor="middle" x="0" y="0" style="font-family: 'Open Sans', verdana, arial, sans-serif; font-size: 12px; fill: rgb(255, 255, 255); fill-opacity: 1; white-space: pre;" transform="translate(278.96911312636684,303.94271909999156)">Rock</text></g></g><g class="slice cursor-pointer"><path class="surface" d="M243.5,250L308.2213595499958,297.02282018339787A80,80 0,0,0 323.5,250.00000000000003L243.5,250A0,0 0,0,1 243.5,250Z" style="pointer-events: all; stroke-width: 1; fill: rgb(17, 8, 137); fill-opacity: 1; stroke: rgb(255, 255, 255); stroke-opacity: 1;"/><g class="slicetext"><text data-notex="1" class="slicetext" text-anchor="middle" x="0" y="0" style="font-family: 'Open Sans', verdana, arial, sans-serif; font-size: 12px; fill: rgb(255, 255, 255); fill-opacity: 1; white-space: pre;" transform="translate(290.69773912879003,269.7004829501286)scale(0.9225264882244074)rotate(18)">Soul-RnB</text></g></g><g class="slice"><path class="surface" d="M323.5,250L403.5,250A160,160 0,0,0 402.23835221031646,229.94668262971132L322.8691761051582,239.97334131485565A80,80 0,0,1 323.5,250Z" style="pointer-events: all; stroke-width: 1; fill: rgb(16, 8, 136); fill-opacity: 1; stroke: rgb(255, 255, 255); stroke-opacity: 1; opacity: 1;"/><g class="slicetext"><text data-notex="1" class="slicetext" text-anchor="middle" x="0" y="0" style="font-family: 'Open Sans', verdana, arial, sans-serif; font-size: 12px; fill: rgb(255, 255, 255); fill-opacity: 1; white-space: pre;" transform="translate(379.4987938431257,245.55236813344297)scale(0.9112398754970236)rotate(-3.6000000000000227)">acoustic</text></g></g><g class="slice"><path class="surface" d="M322.8691761051582,239.97334131485565L402.23835221031646,229.94668262971132A160,160 0,0,0 398.473305780581,210.20961805362322L320.9866528902905,230.1048090268116A80,80 0,0,1 322.8691761051582,239.97334131485565Z" style="pointer-events: all; stroke-width: 1; fill: rgb(18, 8, 137); fill-opacity: 1; stroke: rgb(255, 255, 255); stroke-opacity: 1; opacity: 1;"/><g class="slicetext"><text data-notex="1" class="slicetext" text-anchor="middle" x="0" y="0" style="font-family: 'Open Sans', verdana, arial, sans-serif; font-size: 12px; fill: rgb(255, 255, 255); fill-opacity: 1; white-space: pre;" transform="translate(373.81896514629176,229.01625825146547)scale(0.8460615583099086)rotate(-10.799999999999955)">blues rock</text></g></g><g class="slice"><path class="surface" d="M320.9866528902905,230.1048090268116L398.473305780581,210.20961805362322A160,160 0,0,0 392.2642377421202,191.10007157045152L317.88211887106013,220.55003578522576A80,80 0,0,1 320.9866528902905,230.1048090268116Z" style="pointer-events: all; stroke-width: 1; fill: rgb(16, 8, 136); fill-opacity: 1; stroke: rgb(255, 255, 255); stroke-opacity: 1; opacity: 1;"/><g class="slicetext"><text data-notex="1" class="slicetext" text-anchor="middle" x="0" y="0" style="font-family: 'Open Sans', verdana, arial, sans-serif; font-size: 12px; fill: rgb(255, 255, 255); fill-opacity: 1; white-space: pre;" transform="translate(360.28006682709247,215.22800514870886)scale(0.6704206590914741)rotate(-18)">free improvisation</text></g></g><g class="slice"><path class="surface" d="M317.88211887106013,220.55003578522576L392.2642377421202,191.10007157045152A160,160 0,0,0 383.7090688070182,172.91941214372554L313.6045344035091,211.45970607186277A80,80 0,0,1 317.88211887106013,220.55003578522576Z" style="pointer-events: all; stroke-width: 1; fill: rgb(20, 7, 138); fill-opacity: 1; stroke: rgb(255, 255, 255); stroke-opacity: 1; opacity: 1;"/><g class="slicetext"><text data-notex="1" class="slicetext" text-anchor="middle" x="0" y="0" style="font-family: 'Open Sans', verdana, arial, sans-serif; font-size: 12px; fill: rgb(255, 255, 255); fill-opacity: 1; white-space: pre;" transform="translate(371.29853553691873,194.62494944111197)scale(0.9575835881350145)rotate(-25.200000000000045)">garage</text></g></g><g class="slice"><path class="surface" d="M313.6045344035091,211.45970607186277L383.7090688070182,172.91941214372554A160,160 0,0,0 372.94271909999156,155.9543596332043L308.2213595499958,202.97717981660213A80,80 0,0,1 313.6045344035091,211.45970607186277Z" style="pointer-events: all; stroke-width: 1; fill: rgb(25, 7, 140); fill-opacity: 1; stroke: rgb(255, 255, 255); stroke-opacity: 1; opacity: 1;"/><g class="slicetext"><text data-notex="1" class="slicetext" text-anchor="middle" x="0" y="0" style="font-family: 'Open Sans', verdana, arial, sans-serif; font-size: 12px; fill: rgb(255, 255, 255); fill-opacity: 1; white-space: pre;" transform="translate(369.68560204848984,175.24986464161807)rotate(-32.39999999999998)">lo-fi</text></g></g><g class="slice"><path class="surface" d="M308.2213595499958,202.97717981660213L372.94271909999156,155.9543596332043A160,160 0,0,0 360.13498038742586,140.47246305140982L301.81749019371296,195.2362315257049A80,80 0,0,1 308.2213595499958,202.97717981660213Z" style="pointer-events: all; stroke-width: 1; fill: rgb(57, 4, 153); fill-opacity: 1; stroke: rgb(255, 255, 255); stroke-opacity: 1; opacity: 1;"/><g class="slicetext"><text data-notex="1" class="slicetext" text-anchor="middle" x="0" y="0" style="font-family: 'Open Sans', verdana, arial, sans-serif; font-size: 12px; fill: rgb(255, 255, 255); fill-opacity: 1; white-space: pre;" transform="translate(345.558950194148,170.24142664563885)scale(0.7999524950838086)rotate(-39.60000000000002)">avant-garde</text></g></g><g class="slice"><path class="surface" d="M301.81749019371296,195.2362315257049L360.13498038742586,140.47246305140982A160,160 0,0,0 345.4878383597904,126.71788115587374L294.4939191798952,188.35894057793686A80,80 0,0,1 301.81749019371296,195.2362315257049Z" style="pointer-events: all; stroke-width: 1; fill: rgb(66, 3, 157); fill-opacity: 1; stroke: rgb(255, 255, 255); stroke-opacity: 1; opacity: 1;"/><g class="slicetext"><text data-notex="1" class="slicetext" text-anchor="middle" x="0" y="0" style="font-family: 'Open Sans', verdana, arial, sans-serif; font-size: 12px; fill: rgb(255, 255, 255); fill-opacity: 1; white-space: pre;" transform="translate(343.3009894574305,150.21415217843153)scale(0.987483769152579)rotate(-46.799999999999955)">choral</text></g></g><g class="slice"><path class="surface" d="M294.4939191798952,188.35894057793686L345.4878383597904,126.71788115587374A160,160 0,0,0 329.2322871966395,114.90753191967761L286.36614359831975,182.4537659598388A80,80 0,0,1 294.4939191798952,188.35894057793686Z" style="pointer-events: all; stroke-width: 1; fill: rgb(85, 2, 162); fill-opacity: 1; stroke: rgb(255, 255, 255); stroke-opacity: 1; opacity: 1;"/><g class="slicetext"><text data-notex="1" class="slicetext" text-anchor="middle" x="0" y="0" style="font-family: 'Open Sans', verdana, arial, sans-serif; font-size: 12px; fill: rgb(255, 255, 255); fill-opacity: 1; white-space: pre;" transform="translate(321.5862981981713,148.4693252407336)scale(0.77664644252221)rotate(-54)">experimental</text></g></g><g class="slice"><path class="surface" d="M286.36614359831975,182.4537659598388L329.2322871966395,114.90753191967761A160,160 0,0,0 311.62468665041166,105.22767160543688L277.5623433252058,177.61383580271843A80,80 0,0,1 286.36614359831975,182.4537659598388Z" style="pointer-events: all; stroke-width: 1; fill: rgb(90, 2, 163); fill-opacity: 1; stroke: rgb(255, 255, 255); stroke-opacity: 1; opacity: 1;"/><g class="slicetext"><text data-notex="1" class="slicetext" text-anchor="middle" x="0" y="0" style="font-family: 'Open Sans', verdana, arial, sans-serif; font-size: 12px; fill: rgb(255, 255, 255); fill-opacity: 1; white-space: pre;" transform="translate(308.60479925165896,138.92896804121068)scale(0.7873095010505948)rotate(-61.19999999999993)">instrumental</text></g></g><g class="slice"><path class="surface" d="M277.5623433252058,177.61383580271843L311.62468665041166,105.22767160543688A160,160 0,0,0 292.9427190999916,97.83095739277545L268.22135954999584,173.9154786963877A80,80 0,0,1 277.5623433252058,177.61383580271843Z" style="pointer-events: all; stroke-width: 1; fill: rgb(59, 4, 154); fill-opacity: 1; stroke: rgb(255, 255, 255); stroke-opacity: 1; opacity: 1;"/><g class="slicetext"><text data-notex="1" class="slicetext" text-anchor="middle" x="0" y="0" style="font-family: 'Open Sans', verdana, arial, sans-serif; font-size: 12px; fill: rgb(255, 255, 255); fill-opacity: 1; white-space: pre;" transform="translate(300.15421010959517,119.13192278228821)rotate(-68.39999999999998)">piano</text></g></g><g class="slice"><path class="surface" d="M268.2213595499958,173.9154786963877L292.94271909999156,97.83095739277545A160,160 0,0,0 273.481010333716,92.83403988340982L258.490505166858,171.4170199417049A80,80 0,0,1 268.2213595499958,173.9154786963877Z" style="pointer-events: all; stroke-width: 1; fill: rgb(13, 8, 135); fill-opacity: 1; stroke: rgb(255, 255, 255); stroke-opacity: 1; opacity: 1;"/><g class="slicetext"><text data-notex="1" class="slicetext" text-anchor="middle" x="0" y="0" style="font-family: 'Open Sans', verdana, arial, sans-serif; font-size: 12px; fill: rgb(255, 255, 255); fill-opacity: 1; white-space: pre;" transform="translate(279.13490518692373,125.72033307171684)scale(0.8018383927087037)rotate(-75.60000000000002)">country folk</text></g></g><g class="slice"><path class="surface" d="M258.490505166858,171.4170199417049L273.481010333716,92.83403988340982A160,160 0,0,0 253.54648312469016,90.31572345147654L248.52324156234508,170.15786172573826A80,80 0,0,1 258.490505166858,171.4170199417049Z" style="pointer-events: all; stroke-width: 1; fill: rgb(25, 7, 140); fill-opacity: 1; stroke: rgb(255, 255, 255); stroke-opacity: 1; opacity: 1;"/><g class="slicetext"><text data-notex="1" class="slicetext" text-anchor="middle" x="0" y="0" style="font-family: 'Open Sans', verdana, arial, sans-serif; font-size: 12px; fill: rgb(255, 255, 255); fill-opacity: 1; white-space: pre;" transform="translate(265.8287465624431,109.1540549580737)rotate(-82.79999999999995)">piano</text></g></g><g class="slice"><path class="surface" d="M248.52324156234508,170.15786172573826L253.54648312469016,90.31572345147654A160,160 0,0,0 233.4535168753099,90.31572345147654L238.47675843765495,170.15786172573826A80,80 0,0,1 248.52324156234508,170.15786172573826Z" style="pointer-events: all; stroke-width: 1; fill: rgb(16, 8, 136); fill-opacity: 1; stroke: rgb(255, 255, 255); stroke-opacity: 1; opacity: 1;"/><g class="slicetext"><text data-notex="1" class="slicetext" text-anchor="middle" x="0" y="0" style="font-family: 'Open Sans', verdana, arial, sans-serif; font-size: 12px; fill: rgb(255, 255, 255); fill-opacity: 1; white-space: pre;" transform="translate(248.00000000000003,106.99596866087717)rotate(-90)">punk</text></g></g><g class="slice"><path class="surface" d="M238.47675843765495,170.15786172573826L233.4535168753099,90.31572345147654A160,160 0,0,0 213.51898966628409,92.83403988340982L228.50949483314204,171.4170199417049A80,80 0,0,1 238.47675843765495,170.15786172573826Z" style="pointer-events: all; stroke-width: 1; fill: rgb(25, 7, 140); fill-opacity: 1; stroke: rgb(255, 255, 255); stroke-opacity: 1; opacity: 1;"/><g class="slicetext"><text data-notex="1" class="slicetext" text-anchor="middle" x="0" y="0" style="font-family: 'Open Sans', verdana, arial, sans-serif; font-size: 12px; fill: rgb(255, 255, 255); fill-opacity: 1; white-space: pre;" transform="translate(220.59895316301473,104.62383180981088)rotate(82.80000000000007)">soft</text></g></g><g class="slice"><path class="surface" d="M228.50949483314204,171.4170199417049L213.51898966628409,92.83403988340982A160,160 0,0,0 194.05728090000846,97.83095739277542L218.77864045000422,173.9154786963877A80,80 0,0,1 228.50949483314204,171.4170199417049Z" style="pointer-events: all; stroke-width: 1; fill: rgb(25, 7, 140); fill-opacity: 1; stroke: rgb(255, 255, 255); stroke-opacity: 1; opacity: 1;"/><g class="slicetext"><text data-notex="1" class="slicetext" text-anchor="middle" x="0" y="0" style="font-family: 'Open Sans', verdana, arial, sans-serif; font-size: 12px; fill: rgb(255, 255, 255); fill-opacity: 1; white-space: pre;" transform="translate(204.61973524235287,115.89531149179575)scale(0.9573977535770424)rotate(75.60000000000002)">strings</text></g></g><g class="slice"><path class="surface" d="M218.77864045000422,173.9154786963877L194.05728090000844,97.83095739277542A160,160 0,0,0 175.37531334958837,105.22767160543688L209.4376566747942,177.61383580271843A80,80 0,0,1 218.77864045000422,173.9154786963877Z" style="pointer-events: all; stroke-width: 1; fill: rgb(230, 110, 91); fill-opacity: 1; stroke: rgb(255, 255, 255); stroke-opacity: 1; opacity: 1;"/><g class="slicetext"><text data-notex="1" class="slicetext" text-anchor="middle" x="0" y="0" style="font-family: 'Open Sans', verdana, arial, sans-serif; font-size: 12px; fill: rgb(68, 68, 68); fill-opacity: 1; white-space: pre;" transform="translate(192.1879394629546,130.31595366025056)scale(0.8111358461126096)rotate(68.39999999999998)">downtempo</text></g></g><g class="slice"><path class="surface" d="M209.4376566747942,177.61383580271843L175.37531334958837,105.22767160543688A160,160 0,0,0 157.7677128033605,114.90753191967761L200.63385640168025,182.4537659598388A80,80 0,0,1 209.4376566747942,177.61383580271843Z" style="pointer-events: all; stroke-width: 1; fill: rgb(247, 223, 36); fill-opacity: 1; stroke: rgb(255, 255, 255); stroke-opacity: 1; opacity: 1;"/><g class="slicetext"><text data-notex="1" class="slicetext" text-anchor="middle" x="0" y="0" style="font-family: 'Open Sans', verdana, arial, sans-serif; font-size: 12px; fill: rgb(68, 68, 68); fill-opacity: 1; white-space: pre;" transform="translate(178.7546033599126,139.48311668670974)scale(0.7766464425222107)rotate(61.19999999999993)">experimental</text></g></g><g class="slice"><path class="surface" d="M200.63385640168025,182.4537659598388L157.7677128033605,114.90753191967761A160,160 0,0,0 141.51216164020957,126.71788115587377L192.50608082010478,188.3589405779369A80,80 0,0,1 200.63385640168025,182.4537659598388Z" style="pointer-events: all; stroke-width: 1; fill: rgb(219, 93, 103); fill-opacity: 1; stroke: rgb(255, 255, 255); stroke-opacity: 1; opacity: 1;"/><g class="slicetext"><text data-notex="1" class="slicetext" text-anchor="middle" x="0" y="0" style="font-family: 'Open Sans', verdana, arial, sans-serif; font-size: 12px; fill: rgb(68, 68, 68); fill-opacity: 1; white-space: pre;" transform="translate(156.02738446445588,137.26013071571964)rotate(54)">glitch</text></g></g><g class="slice"><path class="surface" d="M192.50608082010478,188.3589405779369L141.51216164020957,126.71788115587377A160,160 0,0,0 126.86501961257409,140.47246305140987L185.18250980628704,195.23623152570494A80,80 0,0,1 192.50608082010478,188.3589405779369Z" style="pointer-events: all; stroke-width: 1; fill: rgb(240, 249, 33); fill-opacity: 1; stroke: rgb(255, 255, 255); stroke-opacity: 1; opacity: 1;"/><g class="slicetext"><text data-notex="1" class="slicetext" text-anchor="middle" x="0" y="0" style="font-family: 'Open Sans', verdana, arial, sans-serif; font-size: 12px; fill: rgb(68, 68, 68); fill-opacity: 1; white-space: pre;" transform="translate(139.51798082795784,145.84408556424768)rotate(46.799999999999955)">idm</text></g></g><g class="slice"><path class="surface" d="M185.18250980628704,195.23623152570494L126.86501961257409,140.47246305140987A160,160 0,0,0 114.05728090000832,155.9543596332044L178.77864045000416,202.9771798166022A80,80 0,0,1 185.18250980628704,195.23623152570494Z" style="pointer-events: all; stroke-width: 1; fill: rgb(242, 134, 75); fill-opacity: 1; stroke: rgb(255, 255, 255); stroke-opacity: 1; opacity: 1;"/><g class="slicetext"><text data-notex="1" class="slicetext" text-anchor="middle" x="0" y="0" style="font-family: 'Open Sans', verdana, arial, sans-serif; font-size: 12px; fill: rgb(68, 68, 68); fill-opacity: 1; white-space: pre;" transform="translate(147.12989896537204,174.26657812952683)scale(0.6833355160114768)rotate(39.59999999999991)">not normal music</text></g></g><g class="slice"><path class="surface" d="M178.77864045000422,202.97717981660213L114.05728090000844,155.95435963320426A160,160 0,0,0 103.29093119298182,172.91941214372557L173.3954655964909,211.4597060718628A80,80 0,0,1 178.77864045000422,202.97717981660213Z" style="pointer-events: all; stroke-width: 1; fill: rgb(51, 5, 151); fill-opacity: 1; stroke: rgb(255, 255, 255); stroke-opacity: 1; opacity: 1;"/><g class="slicetext"><text data-notex="1" class="slicetext" text-anchor="middle" x="0" y="0" style="font-family: 'Open Sans', verdana, arial, sans-serif; font-size: 12px; fill: rgb(255, 255, 255); fill-opacity: 1; white-space: pre;" transform="translate(133.52126183575376,184.34464960747047)scale(0.7766464425222107)rotate(32.39999999999998)">experimental</text></g></g><g class="slice"><path class="surface" d="M173.3954655964909,211.4597060718628L103.29093119298182,172.91941214372557A160,160 0,0,0 94.73576225787977,191.10007157045158L169.11788112893987,220.5500357852258A80,80 0,0,1 173.3954655964909,211.4597060718628Z" style="pointer-events: all; stroke-width: 1; fill: rgb(44, 5, 148); fill-opacity: 1; stroke: rgb(255, 255, 255); stroke-opacity: 1; opacity: 1;"/><g class="slicetext"><text data-notex="1" class="slicetext" text-anchor="middle" x="0" y="0" style="font-family: 'Open Sans', verdana, arial, sans-serif; font-size: 12px; fill: rgb(255, 255, 255); fill-opacity: 1; white-space: pre;" transform="translate(113.49072677494388,193.74123484854445)scale(0.9890674673966164)rotate(25.200000000000045)">guitar</text></g></g><g class="slice"><path class="surface" d="M169.11788112893987,220.5500357852258L94.73576225787977,191.10007157045158A160,160 0,0,0 88.526694219419,210.2096180536233L166.0133471097095,230.10480902681167A80,80 0,0,1 169.11788112893987,220.5500357852258Z" style="pointer-events: all; stroke-width: 1; fill: rgb(46, 5, 149); fill-opacity: 1; stroke: rgb(255, 255, 255); stroke-opacity: 1; opacity: 1;"/><g class="slicetext"><text data-notex="1" class="slicetext" text-anchor="middle" x="0" y="0" style="font-family: 'Open Sans', verdana, arial, sans-serif; font-size: 12px; fill: rgb(255, 255, 255); fill-opacity: 1; white-space: pre;" transform="translate(104.9261100458844,209.70619377936882)rotate(18)">indie</text></g></g><g class="slice"><path class="surface" d="M166.0133471097095,230.10480902681167L88.526694219419,210.2096180536233A160,160 0,0,0 84.76164778968354,229.9466826297114L164.13082389484177,239.9733413148557A80,80 0,0,1 166.0133471097095,230.10480902681167Z" style="pointer-events: all; stroke-width: 1; fill: rgb(83, 2, 162); fill-opacity: 1; stroke: rgb(255, 255, 255); stroke-opacity: 1; opacity: 1;"/><g class="slicetext"><text data-notex="1" class="slicetext" text-anchor="middle" x="0" y="0" style="font-family: 'Open Sans', verdana, arial, sans-serif; font-size: 12px; fill: rgb(255, 255, 255); fill-opacity: 1; white-space: pre;" transform="translate(116.41893809620001,229.3647696549869)scale(0.7873095010505956)rotate(10.799999999999955)">instrumental</text></g></g><g class="slice"><path class="surface" d="M164.13082389484177,239.9733413148557L84.76164778968354,229.9466826297114A160,160 0,0,0 83.5,250.0000000000001L163.5,250.00000000000006A80,80 0,0,1 164.13082389484177,239.9733413148557Z" style="pointer-events: all; stroke-width: 1; fill: rgb(46, 5, 149); fill-opacity: 1; stroke: rgb(255, 255, 255); stroke-opacity: 1; opacity: 1;"/><g class="slicetext"><text data-notex="1" class="slicetext" text-anchor="middle" x="0" y="0" style="font-family: 'Open Sans', verdana, arial, sans-serif; font-size: 12px; fill: rgb(255, 255, 255); fill-opacity: 1; white-space: pre;" transform="translate(100.9648339845602,245.54134473701512)rotate(3.599999999999909)">piano</text></g></g><g class="slice"><path class="surface" d="M163.5,250L83.5,249.99999999999997A160,160 0,0,0 84.76164778968354,270.0533173702887L164.13082389484177,260.02665868514435A80,80 0,0,1 163.5,250Z" style="pointer-events: all; stroke-width: 1; fill: rgb(80, 3, 161); fill-opacity: 1; stroke: rgb(255, 255, 255); stroke-opacity: 1; opacity: 1;"/><g class="slicetext"><text data-notex="1" class="slicetext" text-anchor="middle" x="0" y="0" style="font-family: 'Open Sans', verdana, arial, sans-serif; font-size: 12px; fill: rgb(255, 255, 255); fill-opacity: 1; white-space: pre;" transform="translate(101.4354388332397,263.4468418731626)rotate(-3.6000000000000227)">beats</text></g></g><g class="slice"><path class="surface" d="M164.13082389484177,260.02665868514435L84.76164778968354,270.0533173702887A160,160 0,0,0 88.52669421941903,289.7903819463768L166.0133471097095,269.8951909731884A80,80 0,0,1 164.13082389484177,260.02665868514435Z" style="pointer-events: all; stroke-width: 1; fill: rgb(50, 5, 151); fill-opacity: 1; stroke: rgb(255, 255, 255); stroke-opacity: 1; opacity: 1;"/><g class="slicetext"><text data-notex="1" class="slicetext" text-anchor="middle" x="0" y="0" style="font-family: 'Open Sans', verdana, arial, sans-serif; font-size: 12px; fill: rgb(255, 255, 255); fill-opacity: 1; white-space: pre;" transform="translate(114.96719626815829,278.3385255244928)scale(0.8337614658882984)rotate(-10.799999999999955)">electronica</text></g></g><g class="slice"><path class="surface" d="M166.0133471097095,269.8951909731884L88.52669421941903,289.7903819463768A160,160 0,0,0 94.7357622578798,308.89992842954854L169.1178811289399,279.44996421477424A80,80 0,0,1 166.0133471097095,269.8951909731884Z" style="pointer-events: all; stroke-width: 1; fill: rgb(72, 3, 159); fill-opacity: 1; stroke: rgb(255, 255, 255); stroke-opacity: 1; opacity: 1;"/><g class="slicetext"><text data-notex="1" class="slicetext" text-anchor="middle" x="0" y="0" style="font-family: 'Open Sans', verdana, arial, sans-serif; font-size: 12px; fill: rgb(255, 255, 255); fill-opacity: 1; white-space: pre;" transform="translate(122.80859699529108,292.88977878376846)scale(0.7766464425222107)rotate(-18)">experimental</text></g></g><g class="slice"><path class="surface" d="M169.1178811289399,279.44996421477424L94.7357622578798,308.89992842954854A160,160 0,0,0 103.29093119298187,327.0805878562745L173.39546559649094,288.54029392813726A80,80 0,0,1 169.1178811289399,279.44996421477424Z" style="pointer-events: all; stroke-width: 1; fill: rgb(73, 3, 160); fill-opacity: 1; stroke: rgb(255, 255, 255); stroke-opacity: 1; opacity: 1;"/><g class="slicetext"><text data-notex="1" class="slicetext" text-anchor="middle" x="0" y="0" style="font-family: 'Open Sans', verdana, arial, sans-serif; font-size: 12px; fill: rgb(255, 255, 255); fill-opacity: 1; white-space: pre;" transform="translate(120.40853030421181,312.5684873755441)scale(0.9341913876654593)rotate(-25.200000000000045)">hip hop</text></g></g><g class="slice"><path class="surface" d="M173.39546559649094,288.54029392813726L103.29093119298187,327.0805878562745A160,160 0,0,0 114.0572809000085,344.0456403667958L178.77864045000425,297.0228201833979A80,80 0,0,1 173.39546559649094,288.54029392813726Z" style="pointer-events: all; stroke-width: 1; fill: rgb(65, 3, 157); fill-opacity: 1; stroke: rgb(255, 255, 255); stroke-opacity: 1; opacity: 1;"/><g class="slicetext"><text data-notex="1" class="slicetext" text-anchor="middle" x="0" y="0" style="font-family: 'Open Sans', verdana, arial, sans-serif; font-size: 12px; fill: rgb(255, 255, 255); fill-opacity: 1; white-space: pre;" transform="translate(122.47785067359222,332.1326741666242)rotate(-32.40000000000009)">soul</text></g></g><g class="slice"><path class="surface" d="M178.77864045000422,297.0228201833978L114.05728090000841,344.0456403667957A160,160 0,0,0 126.86501961257414,359.5275369485902L185.18250980628707,304.7637684742951A80,80 0,0,1 178.77864045000422,297.0228201833978Z" style="pointer-events: all; stroke-width: 1; fill: rgb(77, 3, 160); fill-opacity: 1; stroke: rgb(255, 255, 255); stroke-opacity: 1; opacity: 1;"/><g class="slicetext"><text data-notex="1" class="slicetext" text-anchor="middle" x="0" y="0" style="font-family: 'Open Sans', verdana, arial, sans-serif; font-size: 12px; fill: rgb(255, 255, 255); fill-opacity: 1; white-space: pre;" transform="translate(152.44042047551002,328.45793793390106)scale(0.5354043763584947)rotate(-39.60000000000002)">altered state reflections</text></g></g><g class="slice"><path class="surface" d="M185.18250980628707,304.7637684742951L126.86501961257414,359.5275369485902A160,160 0,0,0 141.51216164020968,373.28211884412633L192.50608082010484,311.64105942206317A80,80 0,0,1 185.18250980628707,304.7637684742951Z" style="pointer-events: all; stroke-width: 1; fill: rgb(86, 2, 162); fill-opacity: 1; stroke: rgb(255, 255, 255); stroke-opacity: 1; opacity: 1;"/><g class="slicetext"><text data-notex="1" class="slicetext" text-anchor="middle" x="0" y="0" style="font-family: 'Open Sans', verdana, arial, sans-serif; font-size: 12px; fill: rgb(255, 255, 255); fill-opacity: 1; white-space: pre;" transform="translate(157.33278031351693,347.0439841452864)scale(0.8039952513045544)rotate(-46.799999999999955)">avant garde</text></g></g><g class="slice"><path class="surface" d="M192.50608082010484,311.64105942206317L141.51216164020968,373.28211884412633A160,160 0,0,0 157.76771280336058,385.0924680803224L200.6338564016803,317.5462340401612A80,80 0,0,1 192.50608082010484,311.64105942206317Z" style="pointer-events: all; stroke-width: 1; fill: rgb(122, 5, 166); fill-opacity: 1; stroke: rgb(255, 255, 255); stroke-opacity: 1; opacity: 1;"/><g class="slicetext"><text data-notex="1" class="slicetext" text-anchor="middle" x="0" y="0" style="font-family: 'Open Sans', verdana, arial, sans-serif; font-size: 12px; fill: rgb(255, 255, 255); fill-opacity: 1; white-space: pre;" transform="translate(170.30714647634755,356.8656424269266)scale(0.7999524950838095)rotate(-54)">avant-garde</text></g></g><g class="slice"><path class="surface" d="M200.6338564016803,317.5462340401612L157.76771280336058,385.0924680803224A160,160 0,0,0 175.37531334958845,394.77232839456315L209.43765667479423,322.3861641972816A80,80 0,0,1 200.6338564016803,317.5462340401612Z" style="pointer-events: all; stroke-width: 1; fill: rgb(76, 3, 160); fill-opacity: 1; stroke: rgb(255, 255, 255); stroke-opacity: 1; opacity: 1;"/><g class="slicetext"><text data-notex="1" class="slicetext" text-anchor="middle" x="0" y="0" style="font-family: 'Open Sans', verdana, arial, sans-serif; font-size: 12px; fill: rgb(255, 255, 255); fill-opacity: 1; white-space: pre;" transform="translate(186.75008897684867,359.76002722715714)scale(0.6993267254899573)rotate(-61.200000000000045)">composed music</text></g></g><g class="slice"><path class="surface" d="M209.43765667479423,322.3861641972816L175.37531334958845,394.77232839456315A160,160 0,0,0 194.05728090000852,402.1690426072246L218.77864045000427,326.0845213036123A80,80 0,0,1 209.43765667479423,322.3861641972816Z" style="pointer-events: all; stroke-width: 1; fill: rgb(203, 71, 121); fill-opacity: 1; stroke: rgb(255, 255, 255); stroke-opacity: 1; opacity: 1;"/><g class="slicetext"><text data-notex="1" class="slicetext" text-anchor="middle" x="0" y="0" style="font-family: 'Open Sans', verdana, arial, sans-serif; font-size: 12px; fill: rgb(255, 255, 255); fill-opacity: 1; white-space: pre;" transform="translate(199.6155469009892,370.3332982161063)scale(0.7766464425222107)rotate(-68.39999999999998)">experimental</text></g></g><g class="slice"><path class="surface" d="M218.7786404500042,326.0845213036123L194.05728090000838,402.1690426072246A160,160 0,0,0 213.51898966628406,407.1659601165902L228.50949483314204,328.5829800582951A80,80 0,0,1 218.7786404500042,326.0845213036123Z" style="pointer-events: all; stroke-width: 1; fill: rgb(54, 4, 152); fill-opacity: 1; stroke: rgb(255, 255, 255); stroke-opacity: 1; opacity: 1;"/><g class="slicetext"><text data-notex="1" class="slicetext" text-anchor="middle" x="0" y="0" style="font-family: 'Open Sans', verdana, arial, sans-serif; font-size: 12px; fill: rgb(255, 255, 255); fill-opacity: 1; white-space: pre;" transform="translate(212.6628753106094,388.07171897988195)scale(0.9930490004437083)rotate(-75.59999999999991)">dance</text></g></g><g class="slice"><path class="surface" d="M228.50949483314204,328.5829800582951L213.51898966628406,407.1659601165902A160,160 0,0,0 233.4535168753099,409.6842765485235L238.47675843765495,329.84213827426174A80,80 0,0,1 228.50949483314204,328.5829800582951Z" style="pointer-events: all; stroke-width: 1; fill: rgb(45, 5, 149); fill-opacity: 1; stroke: rgb(255, 255, 255); stroke-opacity: 1; opacity: 1;"/><g class="slicetext"><text data-notex="1" class="slicetext" text-anchor="middle" x="0" y="0" style="font-family: 'Open Sans', verdana, arial, sans-serif; font-size: 12px; fill: rgb(255, 255, 255); fill-opacity: 1; white-space: pre;" transform="translate(231.0260295544927,375.0872157075874)scale(0.7337723909860998)rotate(-82.80000000000007)">drum and bass</text></g></g><g class="slice"><path class="surface" d="M238.47675843765495,329.84213827426174L233.4535168753099,409.6842765485235A160,160 0,0,0 253.54648312469018,409.6842765485235L248.5232415623451,329.84213827426174A80,80 0,0,1 238.47675843765495,329.84213827426174Z" style="pointer-events: all; stroke-width: 1; fill: rgb(47, 5, 149); fill-opacity: 1; stroke: rgb(255, 255, 255); stroke-opacity: 1; opacity: 1;"/><g class="slicetext"><text data-notex="1" class="slicetext" text-anchor="middle" x="0" y="0" style="font-family: 'Open Sans', verdana, arial, sans-serif; font-size: 12px; fill: rgb(255, 255, 255); fill-opacity: 1; white-space: pre;" transform="translate(247.82086786659318,389.37423142416225)scale(0.9601928592429125)rotate(-90)">electro</text></g></g><g class="slice"><path class="surface" d="M248.5232415623451,329.84213827426174L253.54648312469018,409.6842765485235A160,160 0,0,0 273.48101033371603,407.1659601165902L258.490505166858,328.5829800582951A80,80 0,0,1 248.5232415623451,329.84213827426174Z" style="pointer-events: all; stroke-width: 1; fill: rgb(42, 5, 147); fill-opacity: 1; stroke: rgb(255, 255, 255); stroke-opacity: 1; opacity: 1;"/><g class="slicetext"><text data-notex="1" class="slicetext" text-anchor="middle" x="0" y="0" style="font-family: 'Open Sans', verdana, arial, sans-serif; font-size: 12px; fill: rgb(255, 255, 255); fill-opacity: 1; white-space: pre;" transform="translate(256.38763805563076,383.58189294683416)scale(0.879163424101403)rotate(82.79999999999995)">indie pop</text></g></g><g class="slice"><path class="surface" d="M258.490505166858,328.5829800582951L273.48101033371603,407.1659601165902A160,160 0,0,0 292.9427190999917,402.1690426072245L268.22135954999584,326.0845213036123A80,80 0,0,1 258.490505166858,328.5829800582951Z" style="pointer-events: all; stroke-width: 1; fill: rgb(55, 4, 153); fill-opacity: 1; stroke: rgb(255, 255, 255); stroke-opacity: 1; opacity: 1;"/><g class="slicetext"><text data-notex="1" class="slicetext" text-anchor="middle" x="0" y="0" style="font-family: 'Open Sans', verdana, arial, sans-serif; font-size: 12px; fill: rgb(255, 255, 255); fill-opacity: 1; white-space: pre;" transform="translate(272.07399733087385,375.53459962306965)scale(0.7873095010505956)rotate(75.60000000000002)">instrumental</text></g></g><g class="slice"><path class="surface" d="M268.2213595499958,326.0845213036123L292.94271909999156,402.1690426072246A160,160 0,0,0 311.6246866504116,394.77232839456315L277.5623433252058,322.3861641972816A80,80 0,0,1 268.2213595499958,326.0845213036123Z" style="pointer-events: all; stroke-width: 1; fill: rgb(38, 6, 146); fill-opacity: 1; stroke: rgb(255, 255, 255); stroke-opacity: 1; opacity: 1;"/><g class="slicetext"><text data-notex="1" class="slicetext" text-anchor="middle" x="0" y="0" style="font-family: 'Open Sans', verdana, arial, sans-serif; font-size: 12px; fill: rgb(255, 255, 255); fill-opacity: 1; white-space: pre;" transform="translate(289.7558877807918,377.96814526129623)scale(0.9112398754970243)rotate(68.40000000000009)">acoustic</text></g></g><g class="slice"><path class="surface" d="M277.5623433252058,322.3861641972816L311.6246866504116,394.77232839456315A160,160 0,0,0 329.2322871966395,385.0924680803224L286.36614359831975,317.5462340401612A80,80 0,0,1 277.5623433252058,322.3861641972816Z" style="pointer-events: all; stroke-width: 1; fill: rgb(41, 6, 147); fill-opacity: 1; stroke: rgb(255, 255, 255); stroke-opacity: 1; opacity: 1;"/><g class="slicetext"><text data-notex="1" class="slicetext" text-anchor="middle" x="0" y="0" style="font-family: 'Open Sans', verdana, arial, sans-serif; font-size: 12px; fill: rgb(255, 255, 255); fill-opacity: 1; white-space: pre;" transform="translate(311.06760163958216,382.2458843517966)rotate(61.19999999999993)">diy</text></g></g><g class="slice"><path class="surface" d="M286.36614359831975,317.5462340401612L329.2322871966395,385.0924680803224A160,160 0,0,0 345.48783835979043,373.2821188441262L294.4939191798952,311.6410594220631A80,80 0,0,1 286.36614359831975,317.5462340401612Z" style="pointer-events: all; stroke-width: 1; fill: rgb(103, 2, 166); fill-opacity: 1; stroke: rgb(255, 255, 255); stroke-opacity: 1; opacity: 1;"/><g class="slicetext"><text data-notex="1" class="slicetext" text-anchor="middle" x="0" y="0" style="font-family: 'Open Sans', verdana, arial, sans-serif; font-size: 12px; fill: rgb(255, 255, 255); fill-opacity: 1; white-space: pre;" transform="translate(315.93141666257947,355.6391866857061)scale(0.7766464425222107)rotate(54)">experimental</text></g></g><g class="slice"><path class="surface" d="M294.4939191798952,311.6410594220631L345.48783835979043,373.2821188441262A160,160 0,0,0 360.1349803874259,359.5275369485901L301.81749019371296,304.76376847429503A80,80 0,0,1 294.4939191798952,311.6410594220631Z" style="pointer-events: all; stroke-width: 1; fill: rgb(80, 3, 161); fill-opacity: 1; stroke: rgb(255, 255, 255); stroke-opacity: 1; opacity: 1;"/><g class="slicetext"><text data-notex="1" class="slicetext" text-anchor="middle" x="0" y="0" style="font-family: 'Open Sans', verdana, arial, sans-serif; font-size: 12px; fill: rgb(255, 255, 255); fill-opacity: 1; white-space: pre;" transform="translate(338.1530272592657,357.3689257114833)rotate(46.799999999999955)">noise</text></g></g><g class="slice"><path class="surface" d="M301.81749019371296,304.76376847429503L360.1349803874259,359.5275369485901A160,160 0,0,0 372.9427190999917,344.0456403667956L308.22135954999584,297.0228201833978A80,80 0,0,1 301.81749019371296,304.76376847429503Z" style="pointer-events: all; stroke-width: 1; fill: rgb(58, 4, 154); fill-opacity: 1; stroke: rgb(255, 255, 255); stroke-opacity: 1; opacity: 1;"/><g class="slicetext"><text data-notex="1" class="slicetext" text-anchor="middle" x="0" y="0" style="font-family: 'Open Sans', verdana, arial, sans-serif; font-size: 12px; fill: rgb(255, 255, 255); fill-opacity: 1; white-space: pre;" transform="translate(342.7836918401744,337.0813506085548)scale(0.8470059717665885)rotate(39.60000000000002)">noise rock</text></g></g><g class="slice"><path class="surface" d="M308.2213595499958,297.02282018339787L372.94271909999156,344.04564036679574A160,160 0,0,0 383.7090688070182,327.08058785627446L313.6045344035091,288.5402939281372A80,80 0,0,1 308.2213595499958,297.02282018339787Z" style="pointer-events: all; stroke-width: 1; fill: rgb(20, 7, 138); fill-opacity: 1; stroke: rgb(255, 255, 255); stroke-opacity: 1; opacity: 1;"/><g class="slicetext"><text data-notex="1" class="slicetext" text-anchor="middle" x="0" y="0" style="font-family: 'Open Sans', verdana, arial, sans-serif; font-size: 12px; fill: rgb(255, 255, 255); fill-opacity: 1; white-space: pre;" transform="translate(356.3784455639491,326.4977475239918)scale(0.9124197252815176)rotate(32.400000000000034)">ambient</text></g></g><g class="slice"><path class="surface" d="M313.6045344035091,288.5402939281372L383.7090688070182,327.08058785627446A160,160 0,0,0 392.26423774212026,308.8999284295485L317.88211887106013,279.44996421477424A80,80 0,0,1 313.6045344035091,288.5402939281372Z" style="pointer-events: all; stroke-width: 1; fill: rgb(13, 8, 135); fill-opacity: 1; stroke: rgb(255, 255, 255); stroke-opacity: 1; opacity: 1;"/><g class="slicetext"><text data-notex="1" class="slicetext" text-anchor="middle" x="0" y="0" style="font-family: 'Open Sans', verdana, arial, sans-serif; font-size: 12px; fill: rgb(255, 255, 255); fill-opacity: 1; white-space: pre;" transform="translate(369.9595555119579,314.48067594630896)rotate(25.199999999999932)">beats</text></g></g><g class="slice"><path class="surface" d="M317.88211887106013,279.44996421477424L392.26423774212026,308.8999284295485A160,160 0,0,0 398.473305780581,289.7903819463767L320.9866528902905,269.89519097318833A80,80 0,0,1 317.88211887106013,279.44996421477424Z" style="pointer-events: all; stroke-width: 1; fill: rgb(13, 8, 135); fill-opacity: 1; stroke: rgb(255, 255, 255); stroke-opacity: 1; opacity: 1;"/><g class="slicetext"><text data-notex="1" class="slicetext" text-anchor="middle" x="0" y="0" style="font-family: 'Open Sans', verdana, arial, sans-serif; font-size: 12px; fill: rgb(255, 255, 255); fill-opacity: 1; white-space: pre;" transform="translate(356.92282038071437,288.72158374476476)scale(0.39485233203313913)rotate(18)">contemporary rhythm and blues</text></g></g><g class="slice"><path class="surface" d="M320.9866528902905,269.89519097318833L398.473305780581,289.7903819463767A160,160 0,0,0 402.23835221031646,270.0533173702886L322.8691761051582,260.0266586851443A80,80 0,0,1 320.9866528902905,269.89519097318833Z" style="pointer-events: all; stroke-width: 1; fill: rgb(14, 8, 135); fill-opacity: 1; stroke: rgb(255, 255, 255); stroke-opacity: 1; opacity: 1;"/><g class="slicetext"><text data-notex="1" class="slicetext" text-anchor="middle" x="0" y="0" style="font-family: 'Open Sans', verdana, arial, sans-serif; font-size: 12px; fill: rgb(255, 255, 255); fill-opacity: 1; white-space: pre;" transform="translate(388.0009544769865,282.1461759636654)rotate(10.799999999999955)">rap</text></g></g><g class="slice"><path class="surface" d="M322.8691761051582,260.0266586851443L402.23835221031646,270.0533173702886A160,160 0,0,0 403.5,249.9999999999999L323.5,249.99999999999994A80,80 0,0,1 322.8691761051582,260.0266586851443Z" style="pointer-events: all; stroke-width: 1; fill: rgb(24, 7, 140); fill-opacity: 1; stroke: rgb(255, 255, 255); stroke-opacity: 1; opacity: 1;"/><g class="slicetext"><text data-notex="1" class="slicetext" text-anchor="middle" x="0" y="0" style="font-family: 'Open Sans', verdana, arial, sans-serif; font-size: 12px; fill: rgb(255, 255, 255); fill-opacity: 1; white-space: pre;" transform="translate(389.1202354315673,263.6705459363953)rotate(3.599999999999966)">soul</text></g></g></g></g><g class="glimages"/><defs id="topdefs-12663d"><g class="clips"/></defs><g class="layer-above"><g class="imagelayer"/><g class="shapelayer"/></g><g class="infolayer"><g class="cbcoloraxis colorbar" transform="translate(50,90)"><rect class="cbbg" x="395" y="0" width="93.1875" height="320" style="fill: rgb(0, 0, 0); fill-opacity: 0; stroke: rgb(68, 68, 68); stroke-opacity: 1; stroke-width: 0;"/><g class="cbfills" transform="translate(0,32)"><rect class="cbfill gradient_filled" x="405" y="0" width="30" height="278" style="fill: url('#g12663d-cbcoloraxis');"/></g><g class="cblines" transform="translate(0,32)"/><g class="cbaxis crisp" transform="translate(0,-90)"><g class="ycbcoloraxistick"><text text-anchor="start" x="437.9" y="4.199999999999999" transform="translate(0,347.48)" style="font-family: 'Open Sans', verdana, arial, sans-serif; font-size: 12px; fill: rgb(42, 63, 95); fill-opacity: 1; white-space: pre; opacity: 1;">200</text></g><g class="ycbcoloraxistick"><text text-anchor="start" x="437.9" y="4.199999999999999" style="font-family: 'Open Sans', verdana, arial, sans-serif; font-size: 12px; fill: rgb(42, 63, 95); fill-opacity: 1; white-space: pre; opacity: 1;" transform="translate(0,290.4)">400</text></g><g class="ycbcoloraxistick"><text text-anchor="start" x="437.9" y="4.199999999999999" style="font-family: 'Open Sans', verdana, arial, sans-serif; font-size: 12px; fill: rgb(42, 63, 95); fill-opacity: 1; white-space: pre; opacity: 1;" transform="translate(0,233.31)">600</text></g><g class="ycbcoloraxistick"><text text-anchor="start" x="437.9" y="4.199999999999999" style="font-family: 'Open Sans', verdana, arial, sans-serif; font-size: 12px; fill: rgb(42, 63, 95); fill-opacity: 1; white-space: pre; opacity: 1;" transform="translate(0,176.23)">800</text></g></g><g class="cbtitleunshift" transform="translate(-50,-90)"><g class="cbtitle" transform=""><text class="ycbcoloraxistitle" x="454.74" y="113.5" text-anchor="start" style="font-family: 'Open Sans', verdana, arial, sans-serif; font-size: 14px; fill: rgb(42, 63, 95); opacity: 1; font-weight: normal; white-space: pre;">Frequency</text></g></g><rect class="cboutline" x="405" y="32" width="30" height="278" style="stroke: rgb(68, 68, 68); stroke-opacity: 1; fill: none; stroke-width: 0;"/></g><g class="g-gtitle"><text class="gtitle" x="27.5" y="45" text-anchor="start" dy="0em" style="font-family: 'Open Sans', verdana, arial, sans-serif; font-size: 17px; fill: rgb(42, 63, 95); opacity: 1; font-weight: normal; white-space: pre;">Tags and Word Frequency per Genre</text></g></g></svg>